<?xml version="1.0" encoding="UTF-8"?>
<svg id="Ebene_2" data-name="Ebene 2" xmlns="http://www.w3.org/2000/svg" viewBox="0 0 39.37 45.11">
  <g id="Ebene_1-2" data-name="Ebene 1">
    <g id="XH2XSF.tif">
      <path d="M8.09.03l1.45.14c.75.07,1.52.04,2.23.34.5.21.97.41,1.47.59.58.22,1.1.52,1.57.91s.95.77,1.3,1.28c.23.34.48.64.67.99s1.2,2.49,1.29,2.75l.51,1.54c.12.35.23.72.53.96l.44.37,2.01.04c.11-.42.27-.8.4-1.19.08-.21.11-.42.27-.6.21-.29.41-.57.63-.84l.79-.97c.09-.11.14-.26.23-.36.21,0,.38-.09.58-.21.21.19.52.11.78.2.29.1.37.59.21.81-.12.16-.19.33-.36.45-.3.2-.66.36-.92.63-.17.18-.35.31-.54.48-.32.28-.88,1.16-.84,1.66,1.31,0,2.59.04,3.89-.02,1.14-.05,2.23.05,3.32.42,1.38.47,2.73,1.12,3.92,1.98,2.07,1.49,3.63,4.24,4.54,6.58.37.94.54,1.94.68,2.94.15,1.15.17,2.3.22,3.44,0,0-.08,1.57-.16,2.1-.18,1.17-.88,3.99-.88,3.99,0,0-.62,1.7-.66,1.82-.58,1.51-1.21,3.01-1.92,4.47s-1.72,2.9-2.81,4.18c-.1.12-.21.17-.32.27-.26.28-.54.52-.82.78-1.06.99-6.53,1.81-6.53,1.81-.81.08-1.58.25-2.39.29-1.79.1-3.56.06-5.35-.04-.33-.02-.63-.04-.95-.11-.85-.19-1.72-.3-2.52-.63l-2.6-1.07c-.35-.14-3.41-2.58-3.61-2.83l-.68-.83c-.71-.87-1.78-2.64-2.29-3.71-.07-.15-.14-.28-.21-.42l-1.27-2.75c-1.17-2.54-1.85-7.04-1.59-9.96.24-2.7,1.15-4.87,2.67-7.08.62-.91,1.33-1.73,2.19-2.43,1.45-1.17,3.13-2.06,4.93-2.53,1.02-.27,2.08-.35,3.12-.43.4-.03.76-.03,1.16-.09.92-.13,1.83-.22,2.8-.23-.28-.23-1.01-.7-1.29-.71-.55-.02-1.06-.09-1.61-.11l-1.27-.06c-.96-.04-1.9-.08-2.86-.16l-1.29-.12c-1.49-.14-3.25-.24-4.6-.85-.49-.22-1.26-.64-1.65-.98l-.27-.23c-.23-.2-1.12-.99-1.3-1.19-.66-.73-1.16-1.78-1.75-2.67-.14-.21-.19-.42-.38-.61-.07-.07-.47-.58-.42-.75.1-.34.95-.6,1.28-.69.52-.14,1.04-.3,1.58-.39.61-.11,1.19-.18,1.79-.35.25-.07,2.88-.08,3.43-.02Z"/>
    </g>
  </g>
</svg>