<?xml version="1.0" encoding="UTF-8"?>
<svg id="Ebene_2" data-name="Ebene 2" xmlns="http://www.w3.org/2000/svg" viewBox="0 0 93.52 91.16">
  <defs>
    <style>
      .cls-1 {
        fill: none;
        stroke: #000;
        stroke-miterlimit: 10;
      }
    </style>
  </defs>
  <g id="Ebene_1-2" data-name="Ebene 1">
    <path class="cls-1" d="M86.71,79.69c-11.11-5.31-22.24-10.82-30.96-18.93l-11.05-10.27c1.78-.07,3.27.81,5.01,1.16,1.17.23,2.83-2.07,3.75-2.8.34-.27,1.22-.46,1.38-.79,2.47-4.91.67-.13,2.11-3.94.41-1.07.75-1.98,1.03-2.85l1.93-6c.39-1.21,3.1-2.04,4.2-2.85l3.54-2.61,3.03-2.19,1.99-1.58,2.84-2.42c.83-.7,3.27-.89,4.3-1.47l-1.4-1.89,5.7-.71c.18-.02.51-1.07.32-1.09l-1.03-.12c-.94-.11-1.99-.63-2.29-1.34,2.58-.35,4.42-.24,6.68-1.45-3-1.47-6.08-1.23-9.31-1.21l-.56-.7c1.99-.52,4.43.18,6.08-2.3-4-.53-7.5-.09-11.26.19-9.15.67-17.76,2.66-26.53,5.15-5.17,1.46-9.64,3.33-13.94,6.59-.82-.63-1.94-1.67-2.16-2.39l-1.16-3.85c-.23-1.62.22-3.18-1.72-4.12.19-.7,1.02-2.15.64-2.67s-1.38-1.51-1.81-1.96l1.49-2.88c-2.19-.61-3.63-.23-5.9.52.86-1.49,1.8-3.04,2.4-5.23-6.97,1.9-9.99,8.02-13.02,13.69-5.98,11.17,2.76,11.04,5.46,19.78-5.04-.43-11.82-3.02-15.31,2.32l-.54,3.28c-.51,3.13.29,6.25,3.83,7.54l.2-1.92,4.13-.58c2.34,1.85,5.28,2.97,7.58,4.6,4.2,2.98,7.43,6.6,12.39,8.61,1.62.65,4.69,2.55,4,4.57-1.81,2.1-4.09,7.17-.62,9.13l.29-3.69c.06-.78.97-2.2,1.69-2.48,1.82-.7,2.25,1.85,6.18,1.41-.6-1.28-1.16-1.92-2.36-2.94l2.7-2.71,6.02,1.96c2.62,2.67,5.25,4.36,7.93,6.68l5.39,4.67,1.05-.65c.23-.14.75.35,1.02.57l4.54,3.77-.23-2.38c1.52,1.06,3.1,2.25,4.72,3.65,1.16,1,2.62,1.04,3.98,1.8,1.48.82,18.17,10.96,17.95,9.05-.03-.28-.41-.75-.74-.98-6.99-4.77-13.86-9.29-20.62-14.73,5.45,1.21,9.27,5.16,15.05,4.98Z"/>
  </g>
</svg>