<?xml version="1.0" encoding="UTF-8"?>
<svg id="Ebene_2" data-name="Ebene 2" xmlns="http://www.w3.org/2000/svg" viewBox="0 0 19.55 49.29">
  <g id="Ebene_1-2" data-name="Ebene 1">
    <path d="M17.67,40.01l-4.35.58,6.22-25.87c.04-.15-.12-.26-.25-.19l-11.16,6.4c-.14.08-.31-.06-.24-.22L16.63.24c.05-.11-.03-.24-.16-.24H7.82c-.08,0-.15.05-.17.13L0,30.12c-.04.14.11.26.24.2l12.02-6.11c.12-.06.27.04.25.18l-2.13,15.02-2.89-3.1c-.11-.12-.3-.02-.27.14l2.44,12.67c.04.19.28.25.41.11l7.7-9.01c.07-.09,0-.22-.11-.2Z"/>
  </g>
</svg>