<?xml version="1.0" encoding="UTF-8"?>
<svg id="Ebene_2" data-name="Ebene 2" xmlns="http://www.w3.org/2000/svg" viewBox="0 0 50.28 52.39">
  <defs>
    <style>
      .cls-1 {
        fill: none;
        stroke: #000;
        stroke-miterlimit: 10;
      }
    </style>
  </defs>
  <g id="Ebene_1-2" data-name="Ebene 1">
    <g id="uuid-ba140568-3e6a-4c78-b03b-85d97f509d62" data-name="Ebene 1-2">
      <path class="cls-1" d="M14.03,11.61c0,1.39.26,2.7.72,3.92-.98-.29-2.03-.45-3.13-.45C5.47,15.08.5,20.05.5,26.19s4.97,11.11,11.11,11.11c1.08,0,2.13-.17,3.13-.45-.45,1.22-.72,2.53-.72,3.92,0,6.14,4.97,11.11,11.11,11.11s11.11-4.97,11.11-11.11c0-1.39-.26-2.7-.72-3.92.98.29,2.03.45,3.13.45,6.14,0,11.11-4.97,11.11-11.11s-4.97-11.11-11.11-11.11c-1.08,0-2.13.17-3.13.45.45-1.22.72-2.53.72-3.92,0-6.14-4.97-11.11-11.11-11.11s-11.11,4.97-11.11,11.11Z"/>
    </g>
  </g>
</svg>