<?xml version="1.0" encoding="UTF-8"?>
<svg id="Ebene_2" data-name="Ebene 2" xmlns="http://www.w3.org/2000/svg" viewBox="0 0 50.28 45.75">
  <defs>
    <style>
      .cls-1 {
        fill: none;
        stroke: #000;
        stroke-miterlimit: 10;
      }
    </style>
  </defs>
  <g id="Ebene_1-2" data-name="Ebene 1">
    <g id="uuid-5ac78750-2e10-41a5-912f-198d6c9874d3" data-name="Ebene 1-2">
      <path class="cls-1" d="M49.78,19.97c0-5.38-4.36-9.73-9.73-9.73-1.96,0-3.77.59-5.3,1.55.08-.51.13-1.04.13-1.55,0-5.38-4.36-9.73-9.73-9.73s-9.73,4.36-9.73,9.73c0,.54.05,1.04.13,1.55-1.53-.99-3.34-1.55-5.3-1.55C4.86,10.23.5,14.59.5,19.97c0,5.07,3.87,9.22,8.82,9.71-1.22,1.63-1.96,3.64-1.96,5.84,0,5.38,4.36,9.73,9.73,9.73,3.34,0,6.27-1.68,8.03-4.23,1.76,2.55,4.69,4.23,8.03,4.23,5.38,0,9.73-4.36,9.73-9.73,0-2.19-.74-4.2-1.96-5.84,4.94-.46,8.82-4.64,8.82-9.71h.05Z"/>
    </g>
  </g>
</svg>