<?xml version="1.0" encoding="UTF-8"?>
<svg id="Ebene_2" data-name="Ebene 2" xmlns="http://www.w3.org/2000/svg" viewBox="0 0 49.28 51.39">
  <g id="Ebene_1-2" data-name="Ebene 1">
    <g id="uuid-ee764bcb-8950-4ccc-aa1c-d48ba9aee0f8" data-name="Ebene 1-2">
      <path d="M13.53,11.11c0,1.39.26,2.7.72,3.92-.98-.29-2.03-.45-3.13-.45C4.97,14.58,0,19.55,0,25.69s4.97,11.11,11.11,11.11c1.08,0,2.13-.17,3.13-.45-.45,1.22-.72,2.53-.72,3.92,0,6.14,4.97,11.11,11.11,11.11s11.11-4.97,11.11-11.11c0-1.39-.26-2.7-.72-3.92.98.29,2.03.45,3.13.45,6.14,0,11.11-4.97,11.11-11.11s-4.97-11.11-11.11-11.11c-1.08,0-2.13.17-3.13.45.45-1.22.72-2.53.72-3.92,0-6.14-4.97-11.11-11.11-11.11s-11.11,4.97-11.11,11.11Z"/>
    </g>
  </g>
</svg>