<?xml version="1.0" encoding="UTF-8"?>
<svg id="Ebene_2" data-name="Ebene 2" xmlns="http://www.w3.org/2000/svg" viewBox="0 0 39.39 22.42">
  <g id="Ebene_1-2" data-name="Ebene 1">
    <path d="M37.65,14.81c.21-.66.33-1.36.33-2.09,0-3.76-3.05-6.8-6.8-6.8-1.22,0-2.36.32-3.35.88-.7-3.86-4.07-6.8-8.14-6.8-3.51,0-6.51,2.19-7.71,5.27-.62-.19-1.28-.3-1.96-.3-3.63,0-6.57,2.94-6.57,6.57,0,.88.17,1.71.48,2.47-2.2.14-3.94,1.96-3.94,4.19h0c0,2.32,1.88,4.21,4.21,4.21h30.97c2.32,0,4.21-1.88,4.21-4.21h0c0-1.4-.69-2.64-1.74-3.4Z"/>
  </g>
</svg>