<?xml version="1.0" encoding="UTF-8"?>
<svg id="Ebene_2" data-name="Ebene 2" xmlns="http://www.w3.org/2000/svg" viewBox="0 0 98.14 96.72">
  <defs>
    <style>
      .cls-1 {
        fill: none;
        stroke: #000;
        stroke-miterlimit: 10;
      }
    </style>
  </defs>
  <g id="Ebene_1-2" data-name="Ebene 1">
    <path class="cls-1" d="M49.59,74.39c.71.5,1.62.46,2.43.29,1.9-.39,3.84.41,4.52,2.38-.75-.28-1.35-.57-2-.57-.74,0-1.3.52-1.43,1.07-.16.67.18,1.3.81,1.67,1.94,1.11,4.53-.41,6.01,1.46-.55,0-1.08-.03-1.55.08-.71.17-1,.99-.63,1.59.55.9,1.63,1.43,2.69,1.28l1.97-.28c.8-.11,1.64,0,2.21.55-1.02.16-2.66.28-2.53,1.53.05.44.43.88.94.95.71.1,1.39-.07,2.04-.35,1.28-.56,3.22-1.08,3.84.45-.51-.15-.98-.13-1.21.23s-.11.94.33,1.21c1.67,1,3.5-2.11,4.98-.15-.41.06-.83.12-.97.32-.19.25-.13.85.13,1.09,1.47,1.27,4.43-.74,5.75-.09-.38.17-.68.26-.8.42-.13.18-.01.75.17.92.44.41,1.22.56,1.84.42l2.76-.61c.48-.11,1.06.06,1.38.41-.7.16-1.52.69-1.19,1.54.52.16,1.4.09,1.97-.08l3.16-.97c.45-.14,1.04-.1,1.45.02l-.43.49c.25.3.79.59,1.21.49l3.97-.88c-7.15,3.79-18.39,3.65-26.13,1.93-6.47-1.44-14.74-5.19-19.08-10.37-1.24,2.65-3.84,4.07-6.78,3.69,1.09,1.46,2.69,2.16,4.38,2.52,1.16.24,2.56.76,2.49,2.11s-2.38,1.74-3.55,1.82c-2.78.17-5.42.25-8.22.22l-14.44-.13c-3.96-.04-2.52.25-4.88.94-.55.16-.98.33-1.5.59l.08-2.25-1.37,3.2c-.62-1.24-.55-2.44-.35-3.97-.44.81-.71,1.62-.99,2.64-1.61-4.6.47-5.08.79-5.52.61-.84,1.04-1.86,1.87-2.52s1.54-.34,2.44-.17c.68.13,1.42-.03,2.13.34.44.23,1.09.64,1.58.69l8.34.94c-1.75-.95-2.93-2.26-4.11-3.77-2.05-2.62-3.3-5.36-1.86-8.69-2.08-1.12-3.86-2.4-5.52-4.01.22,1.35.16,2.61-.31,3.86-.64,1.72-1.44,3.31-2.29,4.94l-2.38,4.55c-1.63,3.1-.73,4.02-3.13,6.1-.92.8-1.91,1.18-3.01,1.58-.75.27-1.35.84-2.25.87-.55.02-1.1.16-1.69.3l.18-1.54-.87.94c-.47.51-.8,1-.8,1.66-.67-.91-.6-1.85-.27-2.9-.51.33-.82.8-1.05,1.49-.31-.61-.44-1.43-.27-2.18l.82-3.48c.11-.47.48-1,.73-1.29.67-.8,1.32.04,1.79,0,.58-.05,1.19-.52,1.98-.26.67.22,1.68.2,2.15-.43,1.05-1.41,1.59-3.08,1.82-4.85.35-2.71.5-5.44.05-8.17-.37-2.23-.59-4.8-1.93-6.59l-2.47-3.29c-2.14-2.86-2.73-6.5-2.73-10.14,0-6.79,4-10.23,8.77-14.19,2.79-2.31,5.3-4.78,7.42-7.71,1.56-2.15,3.78-5.77,2.83-8.53-1.08.44-2.14.55-3.29.74-1.54.26-2.67,1.58-3.48,2.84-.61.94-1.15,1.85-2.01,2.5-1.06.8-2.47.83-3.37-.19-.32.05-.7.44-.74.73-.05.36.09.77.24,1.16-.8.47-1.9-.06-2.35-.95-.71-1.42-1.31-2.81-1.96-4.31-.16-.37.1-.95.39-1.23,1.48-1.45,2.79-2.98,3.6-4.92.49-1.18-.7-3.81-.23-5.17.53-1.51,3.18-2.56,3.87-4.64.5-1.47,1.03-2.86,2.05-4.03.96-1.09,2.1-2.01,3.57-2.3-.82.59-1.59,1.14-2.07,2.05-.38.73-.45,1.91.26,2.43.62.45,1.54-.06,1.9-.69,1.81-3.12,4.79-5.26,8.4-5.74.4-.05.82-.02,1.2.15-2.64.68-4.82,2.06-6.14,4.41-.16.29-.21.87-.05,1.16.46.84,1.66.65,2.53.14,2.19-1.28,4.78-1.95,7.35-1.16-1.18.3-2.29.36-3.36.78-1.84.73-3.64,2.85-2.47,3.58.22.14.78.34,1.09.26,4.15-1.07,8.63-.33,11.97,2.65-1.92-.33-3.65-.86-5.54-.72-1.48.11-3.07.61-3.86,1.92-.47.78.37,1.59,1.08,1.85,2.86,1.04,7.01,2.6,7.07,6.28-1.2-1.62-3.76-3.33-5.65-2.07-.73.48-.7,1.65-.03,2.23l1.98,1.69c1.43,1.22,3.07,4,1.57,5.72-.28-1.16-.85-2.16-2.06-2.11-.32.01-.82.22-.93.44-.13.25-.03.79.16,1.04,1.35,1.74,2.14,4.24.74,6.24-.12-1.35-.61-2.92-2.14-3.11-.85-.1-1.77,1.02-1.86,1.81-.06.64.26,1.31.61,1.79l1.34,1.81c.5.68.55,1.63-.06,2.2-.29-.61-.55-1.35-1.1-1.76-.72-.53-1.78-.35-2.4.21-.65.59-.5,1.65.22,2.09s.9,1.28.45,2.01c-.37-.56-.82-.85-1.36-.87s-1.19.18-1.4.76c-.22.62.25,1.27.78,1.64.7.49,1.62.7,2.53.75,5.2.31,10.85-2.72,14.37-6.37,5.29-5.49,6.67-15.06,5.47-22.26-.7-4.2-2.71-7.57-6.07-10.43,2.82.07,5.12,1.74,6.84,3.79,1.73-3.08,5.28-4.53,8.71-3.6,4.32,1.18,7.83,3.97,10.88,7.17,10.74,11.26,20.21,31.93,25.36,46.57.8,2.26,2.07,6.1,2.17,8.29,1.96,3.37.85,8.91-.89,12.12-1.32,2.43-3.7,3.93-6.46,3.88,1.84-.64,3.28-1.98,3.93-3.98,1.59-4.91.68-12.63-5.35-13.77-2.32-.44-4.4.66-5.44,2.76-1.6,3.2-.87,6.28-1.69,9.85-.44,1.91-1.57,3.53-3.35,4.32-.92.41-1.92.53-2.88.04,2.94-1.22,3.7-4.47,2.71-7.37-.68-1.98-1.76-3.77-3.12-5.35-2.12-2.46-5.15-3.83-8.12-1.81-2.46,1.68-3.58,3.88-6.2,5.26-1.09.57-2.3.86-3.55.44,3.58-2.31,6.26-5.6,6.27-10.01,0-1.6-.65-3.12-1.9-4.07-1.42-1.09-3.9,1.74-4.68,2.46-1.88,1.76-4.52,2.61-7.06,2.54-.7-.02-1.33-.22-1.82-.71,3.31.29,6.99-1.82,8.74-4.51.76-1.17.81-2.43.14-3.62-.49-.87-1.24-1.53-2.16-1.59-.98-.06-1.97.33-2.55,1.2l-2.47,3.73c-.41.62-1.72,2.39-2.53,1.76,1.84-1.61,1.56-5.96.04-6.28-1.36-.28-3.45,5.5-5.48,4.7,1.38-.66,2.15-2.17,1.49-3.61-.6-1.32-3.73-.38-4.82-.04l-4.35,1.37c1,.47,1.39,1.47.95,2.45-.27-.57-.68-.98-1.21-1.08-.61-.12-1.24.02-1.64.49s-.41,1.08-.07,1.52c.96,1.25,2.43-.85,5.77-.33.95.15,1.78.6,2.2,1.48-.95-.2-2.15-.48-2.78.39-.69.95.2,2.44,1.11,2.86.55.25,1.34-2.23,3.86-2.04,1.17.09,2.38.7,2.95,1.85-1-.3-1.97-.02-2.24.97-.11.4.06.92.33,1.19s.83.37,1.22.22c1.97-.78,4.19-.13,5.29,1.78l-2.4-.45c-.24-.04-.75.15-.91.32-.53.54-.02,1.67.75,2.1,2.11-1.28,4.61-.44,5.74,1.69-.7-.31-1.29-.62-1.99-.5-.5.09-.96.54-1.03.89-.11.52.13,1.04.62,1.38ZM11.62,17.73c1.4-.36,1.95-1.52,1.77-2.75-.57.15-1.38.29-1.72.77-.38.55-.21,1.43-.05,1.97Z"/>
  </g>
</svg>