<?xml version="1.0" encoding="UTF-8"?>
<svg id="Ebene_2" data-name="Ebene 2" xmlns="http://www.w3.org/2000/svg" viewBox="0 0 32.71 48.77">
  <defs>
    <style>
      .cls-1 {
        fill: none;
        stroke: #000;
      }
    </style>
  </defs>
  <g id="Ebene_1-2" data-name="Ebene 1">
    <path class="cls-1" d="M31.62,28.13c-.09-.45-.21-.9-.37-1.35-.39-1.11-1.02-2.32-1.89-3.65-.53-.82-1.94-2.74-4.23-5.77-3.12-4.13-5.23-7.17-6.32-9.13-1.09-1.96-1.93-4.06-2.51-6.29-.59,2.18-1.44,4.26-2.56,6.25-1.42,2.52-3.68,5.74-6.79,9.66-2.4,3.03-4.02,5.46-4.84,7.3-.34.76-.59,1.5-.79,2.24-.53,1.58-.82,3.27-.82,5.03,0,8.76,7.1,15.85,15.85,15.85s15.85-7.1,15.85-15.85c0-1.49-.21-2.92-.59-4.29Z"/>
  </g>
</svg>