<?xml version="1.0" encoding="UTF-8"?>
<svg id="Ebene_2" data-name="Ebene 2" xmlns="http://www.w3.org/2000/svg" viewBox="0 0 39.08 38.79">
  <defs>
    <style>
      .cls-1 {
        fill: none;
        stroke: #000;
        stroke-miterlimit: 10;
      }
    </style>
  </defs>
  <g id="Ebene_1-2" data-name="Ebene 1">
    <path class="cls-1" d="M23.98,4.58h0s0,0,0,0c3.33-4.32,10.02-.02,7.46,4.8h0s0,0,0,0c5.14-1.84,8.44,5.39,3.69,8.07h0s0,0,0,0c5.32,1.23,4.18,9.1-1.26,8.78h0s0,0,0,0c3.81,3.91-1.4,9.92-5.81,6.71h0s0,0,0,0c1.09,5.35-6.54,7.59-8.51,2.5h0s0,0,0,0c-1.97,5.09-9.6,2.85-8.51-2.5h0s0,0,0,0c-4.41,3.21-9.62-2.8-5.81-6.71h0s0,0,0,0c-5.45.32-6.58-7.55-1.26-8.78h0s0,0,0,0c-4.75-2.68-1.45-9.91,3.69-8.07h0s0,0,0,0C5.09,4.55,11.78.25,15.1,4.58h0s0,0,0,0c.46-5.44,8.41-5.44,8.87,0Z"/>
  </g>
</svg>