<?xml version="1.0" encoding="UTF-8"?>
<svg id="Ebene_2" data-name="Ebene 2" xmlns="http://www.w3.org/2000/svg" viewBox="0 0 44.91 40.19">
  <g id="Ebene_1-2" data-name="Ebene 1">
    <g id="uuid-397a0fac-b656-40ee-9ec2-e9fb999eec0e" data-name="Ebene 1-2">
      <g id="FcMlsz.tif">
        <path d="M10.88.05c4.45-.24,8.32,1.93,10.86,5.46.1.14.63,1.06.69,1.06s.08-.04.1-.06c.22-.3.41-.67.65-.99C26.93.32,33.69-1.73,39.42,1.68c5.26,3.15,6.13,8.83,5.14,14.47-1.06,5.99-4.93,9.62-9.26,13.48-2.7,2.42-5.48,4.71-8.18,7.12-1.03.92-2.04,1.86-3.06,2.8-.9.84-2.3.84-3.2,0-1.15-1.07-2.31-2.13-3.48-3.17-3.92-3.49-8.36-6.9-11.94-10.72C1.44,21.39-.29,16.86.04,10.89.36,4.92,5.01.38,10.88.05Z"/>
      </g>
    </g>
  </g>
</svg>