<?xml version="1.0" encoding="UTF-8"?>
<svg id="Ebene_2" data-name="Ebene 2" xmlns="http://www.w3.org/2000/svg" viewBox="0 0 45.91 41.19">
  <defs>
    <style>
      .cls-1 {
        fill: none;
        stroke: #000;
        stroke-miterlimit: 10;
      }
    </style>
  </defs>
  <g id="Ebene_1-2" data-name="Ebene 1">
    <g id="uuid-a4675eb7-a286-4d04-8a35-e9ca0d343a92" data-name="Ebene 1-2">
      <g id="FcMlsz.tif">
        <path class="cls-1" d="M11.38.55c4.45-.24,8.32,1.93,10.86,5.46.1.14.63,1.06.69,1.06s.08-.04.1-.06c.22-.3.41-.67.65-.99,3.76-5.2,10.51-7.25,16.24-3.84,5.26,3.15,6.13,8.83,5.14,14.47-1.06,5.99-4.93,9.62-9.26,13.48-2.7,2.42-5.48,4.71-8.18,7.12-1.03.92-2.04,1.86-3.06,2.81-.9.84-2.3.84-3.2,0-1.15-1.07-2.31-2.13-3.48-3.17-3.92-3.49-8.36-6.9-11.94-10.72C1.94,21.89.21,17.36.54,11.39.86,5.42,5.51.88,11.38.55Z"/>
      </g>
    </g>
  </g>
</svg>