<?xml version="1.0" encoding="UTF-8"?>
<svg id="Ebene_2" data-name="Ebene 2" xmlns="http://www.w3.org/2000/svg" viewBox="0 0 90.08 99.21">
  <g id="Ebene_1-2" data-name="Ebene 1">
    <path d="M86.45,87.15c-1.53-.94-1.9-2.6-3.11-3.78-7.53-7.3.61-15.03-7.58-18.63-2.73-1.2-2.88-2.38-4.35-4.13-.13-.15-.75.27-.82.53-1.91,7.23-5.69,8.11-2.89,13.02l2.24,3.93c.24.95-.04,2.97-.3,3.95-.9,3.41-1.3,6.62-1.7,10.09l-1.45,2.58c.28,1.26.52,2.8-.03,3.81-1.86.62-3.88.95-5.86.49-.73-.17-.3-2.37.34-2.82,1.99-1.42,2.35-3.59,2.87-5.82l1.06-4.5c.4-1.69,1.66-4.56.5-6.21l-7.68-10.87c-1.72,2.81,1.4,6.91-2.82,8.26-3.47,1.11-11.25,3.49-12.12,7.35-.22,1-.31,2.36-.82,3-1.93.6-4.07.77-5.96.17s1.89-4.72,3.08-6.69c3.49-5.77,10.36-3.88,12.48-7.21.25-.39-.29-1.43-.37-1.93l-.75-4.77c-.17-1.06-.41-2.77.07-3.64,2.49-4.46-3.16.22-10.68-6.86-2.23-2.1-4.43-4.99-5.73-7.79-.98-2.11-1.83-2.18-3.84-2.92-3.35-1.22-8.35-5.38-9.72-5.33-1.86.06-3.11,5.19-3.81,7.11-.23.65-.97,1.78-1.18,2.27,1.12-.22,2.28.1,2.53.87.68,2.16-1.18,4.7-2.19,5.11-.41.17-1.2-.6-1.41-1.05l-2.98-6.46,2.02-4,3.65-7.84c.75-1.6,3.3-1.45,4.74-.89s2.88,1.16,4.2,1.11c.73-.78-.53-1.2-.87-1.61-3.43-4.12-8.42-9.3-14.27-7.52l-4.46-.67c-.17,1.31-.27,2.13-.84,2.62-.9.79-2.12.4-3.11.03C1.81,29.2-.05,28.68,0,27.94c.17-2.3,2.47-2.9,4.1-3.52,1.18-.45,2.58-1.28,3.87-1.18,10.79.77,8.06-1.8,13.93,2.54,3.76,2.78,5.51,4.3,8.02,1.75,1.12-1.14,3.33-1.09,4.47-2l2.61-2.9c1.54-1.7,2.85-2.95,4-5.01-7.26-.98-5.67,3.06-9.69,3.65-.34.05-1.03-.91-.82-1.16l.99-1.2c.1-.12-.22-.71-.34-.63l-.72.49c-.28.19-1.06.48-1.39.52-.4.05-.73-.93-.88-1.33-1.37-3.76,1.74-3.73,3.99-6.84l4.14-5.75c-1.68-3.73,2.37-5.36,2.36-5.37l.76.75c.36.35.85.81,1.19,1.09s1.24-.35,1.76-.45c1.71-.35,3.53.88,5.08.79,2.39-.15,5.28-.81,7.25.94.17,1.33.34,2.79,2.23,3.19-2.99,1.4-2.55-1.54-4.69.03,2.87,1.84,7.41,1.46,7.13,4.42-1.51-.66-2.36-1.15-3.74-.48,1.57,1.42,2.83,1.69,5.04,2.32l-1.91,1.01c1.86,2.14,2.63,1.32,4.76,4.52-1.49.37-1.98-.59-3.01-1.22l-.77-.48c-.16-.1-.65.37-.57.54s.39.69.56.82l3.09,2.27c1.29.95,2.94,1.67,2.84,3.86l-2.89-2.07c-.35-.25-1.48.02-1.36.4l3.72,5.5c.12.18.52.5.64.64s-.17.6-.32.7c-.2.13-.77-.07-.98-.28l-2.82-2.76c.76,3.17,2.91,5.09,5.71,6.65-3.42,3.14-8.38-8.94-10.88-7.61.61,1.04,1.48,1.88,2.18,3l2.74,4.41c.11.19.04.78-.13.82-.22.05-.94-.09-1.1-.29l-3.6-4.44c-.14-.17-.67-.54-.81-.62-.19-.11-.53.31-.53.4l2.52,4.8c.44.83.92,1.55.48,2.47-3.12-1.37-2.7-5.31-5.08-4.72.6,1.62,1.21,2.77,2.04,4.33-1.77.02-2.61-1.43-3.84-2.8-.65.72-.34,1.88-.07,3.01,1.03,4.27,3.82,7.65,8.28,8.96,3.51,1.03,7.01,2.38,8.97,5.84l1.82,3.21c3.82-3.23,5.98-1.3,7.92-5.74.12-.27.54-.68.72-.83s.7.86.63,1.07c-.3,1.02-1.02,2.7-1.63,3.97-.25.08.8-.05,1.08-.17,1.06-.84,2.97-1.89,4.46-2.28.35,1.43-.59,1.49-1.4,2.12l-2.98,2.31c-.18.14-.32.75-.32.97,0,.7,1.44-.42,4.56.11,3.53.59,4.16,2.57,3.37,2.68-1.47.21-2.57-1.4-5,.55l4.03,2.97c2.16,1.59,3.12,3.83,3.73,6.34.28,1.16.98,2.23.23,3.39-1.94-2.14-3.91-4.08-6.58-5.85-.76,2.9,4.36,4.96,5.69,8.52l1.16,3.12c.11.3-.04,1.09-.18,1.34-.73,1.42-3.44-5.32-4.68-2.79l1.27,2.24c.95,1.69,1.93,3.16,2.21,5.17.04.28-.36,1.1-.63,1.05-1.62-.32-.31-2.04-2.74-3.89-1.05.8-.05,1.55.22,2.35.51,1.49.78,2.97.98,4.96Z"/>
  </g>
</svg>