<?xml version="1.0" encoding="UTF-8"?>
<svg id="Ebene_2" data-name="Ebene 2" xmlns="http://www.w3.org/2000/svg" viewBox="0 0 62.55 68.95">
  <defs>
    <style>
      .cls-1 {
        fill: none;
        stroke: #000;
        stroke-miterlimit: 10;
      }
    </style>
  </defs>
  <g id="Ebene_1-2" data-name="Ebene 1">
    <g id="DC68LH.tif">
      <path class="cls-1" d="M62.05,51.88v1.57c0,.14-.05.39-.06.55-.14,1.87-.54,3.67-1.26,5.39-2.03,4.87-6.24,8.44-11.58,8.99-2.83.29-5.81-.48-8.25-1.94-3.83-2.29-6.47-6.1-7.33-10.49-.45-2.27-.42-4.56.03-6.83.3-1.53.86-2.92,1.75-4.19s2.09-2.21,3.54-2.81c.92-.38,1.85-.52,2.85-.52,1.81-.01,2.13.29,3.88.68l.12-1.13c.21-1.98-.6-5.68-1.11-7.69l-.76-3.01-1.24-5.26-1.39-5.83-1.67-6.2c-.29-1.07-.67-2.04-1.15-3.02-.11-.22-.48-.48-.66-.28-.26,1.08-.43,2.15-.75,3.22-.51,1.73-1.02,3.22-2.26,4.66l-.3-.68c-.22.7-.67,2.1-1.22,2.61l-.29-.42c-.4.94-.81,2.28-1.71,2.81l-.26-.41c-.44.84-1.11,2.01-2.06,2.6l-.2-.75c-.67.94-1.28,1.79-2.35,2.43l-.27-.62c-.48.75-1.07,1.36-1.86,1.81l-.36-.52c-.56.48-1.1.9-1.74,1.27-1.92,3.08-3.81,6.47-5.09,9.88-.48,1.29-1.13,3.26-1.1,4.64.66-.07,1.2-.23,1.82-.43.98-.32,1.98-.34,3.04-.33,2.01.02,3.89.85,5.36,2.24,2.31,2.19,3.09,5.56,3.14,8.65.06,4-1.19,7.94-3.79,11.01-4.48,5.3-11.71,6.5-17.62,2.76-3.03-1.92-5.32-4.8-6.48-8.21-.66-1.93-1.02-3.93-.9-5.94l.08-1.24c.07-1.08.31-2.09.64-3.12.47-1.44,1.19-2.75,2.25-3.83,1.37-1.39,3.18-2.26,5.13-2.32,1.18-.04,2.25.07,3.35.44.44.15.91.24,1.37.28.66-.94.99-1.91,1.41-2.95,1.11-2.8,2.39-5.46,3.88-8.07l1.74-3.06c-.57.26-.96.64-1.55.64-.16,0-.24-.39-.22-.56l-2.4,1.05c-.23-.2-.35-.43-.45-.7-.88.4-1.78.72-2.73.74-.24-.17-.26-.59-.23-.87-1.02.3-2.5.6-3.43.06.07-.29.15-.52.26-.81l-1.82-.02c-.42,0-.79-.11-1.24-.19.03-.27.08-.43.18-.72-.26-.05-.6-.09-.92-.11-1.06-.09-2.55-.53-3.41-1.23.64-.47,1.41-1.76,1.76-2.49.43-.89.98-2.02,1.89-2.58l-.48-.31c.52-.91,1.28-1.44,2.04-2.08-.19-.12-.4-.32-.44-.53.39-.51.9-.91,1.43-1.25l.93-.6c-.19-.21-.29-.34-.31-.51-.06-.6,2.11-1.53,2.71-1.73-1.85-.85,2.09-2.21,2.71-2.35-.21-.12-.43-.36-.47-.59.87-.95,2.58-1.33,3.77-1.55.06-.01.17-.08.14-.11l-.09-.14c-.05-.07-.12-.22-.14-.29-.05-.22,1.04-.41,1.23-.44.54-.09,1.71-.1,2.25-.06l.69.05,1.08.11c-.06-.17-.28-.43-.15-.58.1-.11.86-.12,1.11-.11,1,0,1.98.24,2.98.41l.38.07c.01-.18,0-.32.06-.36.27-.14,1.43.19,1.83.29.94.25,1.85.43,2.83.52l.76.07c1.1.1,2.88.03,3.74-.73.35-.31.56-.74.77-1.14.31-.57.67-1.1.89-1.71.33-.9-.12-1.42.39-1.87.62-.53.11-.79.81-1.39.45-.4.08-.67.45-.98.09-.08.34-.11.48-.09,1.43.26,2.65,1.45,2.09,1.82-.21.14-.35.25-.41.51-.28,1.21-.66.52-.79,1.33-.02.16-.08.37-.14.52-.53.24-.92.68-1.1,1.25-.09.29-.24.7-.2,1.01.21,1.53.52,2.97.86,4.47l1.23,5.4,1.95,8.16.32,1.33,1.79,7.09c.77,3.05,1.64,5.99,2.64,8.97,1.51-.15,1.82-.63,3.43-.72.66-.03,1.32-.07,1.98,0,1.92.18,3.65,1.06,4.99,2.43,1.09,1.12,1.78,2.47,2.25,3.96.4,1.27.53,2.56.69,3.84Z"/>
    </g>
  </g>
</svg>