<?xml version="1.0" encoding="UTF-8"?>
<svg id="Ebene_2" data-name="Ebene 2" xmlns="http://www.w3.org/2000/svg" viewBox="0 0 37.92 55.89">
  <g id="Ebene_1-2" data-name="Ebene 1">
    <path d="M17.92,0h1.52c4.58,0,7.6.19,9.06.56,2.1.53,3.95,1.56,5.55,3.07,1.2,1.12,2.14,2.69,2.84,4.73s1.04,4.41,1.04,7.13v4.11h-3.95v-1.72c0-1.81-.38-3.35-1.14-4.61s-1.88-2.23-3.37-2.89c-1.94-.85-4.1-1.28-6.47-1.28h-1.12v33.33c0,3.22-.43,5.73-1.28,7.52-.85,1.79-2.32,3.23-4.39,4.31-2.08,1.08-4.34,1.62-6.79,1.62-2.9,0-5.2-.82-6.88-2.46-1.69-1.64-2.53-3.79-2.53-6.45,0-2.79,1.01-5.14,3.03-7.05,2.02-1.9,4.67-2.85,7.94-2.85,2.07,0,4.39.61,6.94,1.84V0Z"/>
  </g>
</svg>