<?xml version="1.0" encoding="UTF-8"?>
<svg id="Ebene_2" data-name="Ebene 2" xmlns="http://www.w3.org/2000/svg" viewBox="0 0 43.18 46.83">
  <g id="Ebene_1-2" data-name="Ebene 1">
    <path d="M37.26,24.87h0s-7.51-.92-8.16-.99-.79-1.14-.06-1.33l8.19-.79h0c3.44-.57,5.98-3.79,5.42-7.49-.43-2.84-2.77-5.13-5.62-5.49-2.17-.28-4.17.51-5.54,1.91h0s0,0,0,0c-.32.32-.6.68-.84,1.07,0,0-4.12,5.01-4.54,5.34-.63.5-1.27-.08-1-1.03l2.83-7.53h0c.32-1.03.41-2.16.17-3.34-.51-2.52-2.55-4.56-5.07-5.07-4.22-.84-7.92,2.36-7.92,6.43,0,.82.16,1.59.43,2.32h0s2.92,7.59,2.92,7.59c.31.83-.6,1.41-1.18.93l-5.63-6.28s0,0,0-.01v-.02s-.01,0-.01,0c-1.19-1.43-2.98-2.35-4.98-2.37C3.15,8.69.14,11.55,0,15.03c-.13,3.43,2.38,6.3,5.66,6.75l-.04.07,8.65.79c1.14.02,1.5.89.22,1.12-3.14.39-5.74.8-7.75,1.1-.38.02-.75.08-1.1.16,0,0-.02,0-.02,0h0c-3.01.73-5.21,3.53-5,6.81s3.24,6.2,6.68,6.12c1.58-.03,3.02-.63,4.14-1.59h0s0,0,0,0c.56-.48,1.03-1.05,1.4-1.69l4.22-5.08c.85-1.23,2.03-.39,1.53.61l-3.03,7.61h0c-.5,1.23-.64,2.65-.27,4.12.61,2.4,2.6,4.29,5.02,4.77,4.21.82,7.89-2.37,7.89-6.43,0-.98-.22-1.91-.61-2.74h0s-2.92-7.78-2.92-7.78c-.32-1.09,1.15-1.54,1.81-.73l4.48,5.76c1.26,2.1,3.66,3.43,6.34,3.15,2.94-.31,5.38-2.68,5.78-5.61.51-3.81-2.24-7.09-5.86-7.44Z"/>
  </g>
</svg>