<?xml version="1.0" encoding="UTF-8"?>
<svg id="Ebene_2" data-name="Ebene 2" xmlns="http://www.w3.org/2000/svg" viewBox="0 0 47.79 50.08">
  <g id="Ebene_1-2" data-name="Ebene 1">
    <path d="M25.41,1.26l1.74,9.39c.22,1.2,1.69,1.68,2.57.84l6.93-6.57c1.24-1.18,3.18.24,2.45,1.78l-4.11,8.62c-.53,1.1.38,2.35,1.59,2.19l9.47-1.25c1.69-.22,2.44,2.06.94,2.88l-8.39,4.56c-1.07.58-1.07,2.12,0,2.71l8.39,4.56c1.5.81.76,3.1-.94,2.88l-9.47-1.25c-1.21-.16-2.12,1.09-1.59,2.19l4.11,8.62c.73,1.54-1.21,2.95-2.45,1.78l-6.93-6.57c-.89-.84-2.35-.36-2.57.84l-1.74,9.39c-.31,1.68-2.72,1.68-3.03,0l-1.74-9.39c-.22-1.2-1.69-1.68-2.57-.84l-6.93,6.57c-1.24,1.18-3.18-.24-2.45-1.78l4.11-8.62c.53-1.1-.38-2.35-1.59-2.19l-9.47,1.25c-1.69.22-2.44-2.06-.94-2.88l8.39-4.56c1.07-.58,1.07-2.12,0-2.71L.81,19.13c-1.5-.81-.76-3.1.94-2.88l9.47,1.25c1.21.16,2.12-1.09,1.59-2.19l-4.11-8.62c-.73-1.54,1.21-2.95,2.45-1.78l6.93,6.57c.89.84,2.35.36,2.57-.84l1.74-9.39c.31-1.68,2.72-1.68,3.03,0Z"/>
  </g>
</svg>