<?xml version="1.0" encoding="UTF-8"?>
<svg id="Ebene_2" data-name="Ebene 2" xmlns="http://www.w3.org/2000/svg" viewBox="0 0 46.25 44.2">
  <defs>
    <style>
      .cls-1 {
        fill: none;
        stroke: #000;
        stroke-miterlimit: 10;
      }
    </style>
  </defs>
  <g id="Ebene_1-2" data-name="Ebene 1">
    <path class="cls-1" d="M24.68,1.63l4.22,12.98c.22.68.85,1.13,1.56,1.13h13.64c1.59,0,2.25,2.03.96,2.97l-11.04,8.02c-.57.42-.82,1.16-.6,1.83l4.22,12.98c.49,1.51-1.24,2.77-2.52,1.83l-11.04-8.02c-.57-.42-1.35-.42-1.93,0l-11.04,8.02c-1.29.93-3.02-.32-2.52-1.83l4.22-12.98c.22-.68-.02-1.42-.6-1.83L1.18,18.71c-1.29-.93-.62-2.97.96-2.97h13.64c.71,0,1.34-.46,1.56-1.13L21.56,1.63c.49-1.51,2.63-1.51,3.12,0Z"/>
  </g>
</svg>