<?xml version="1.0" encoding="UTF-8"?>
<svg id="Ebene_2" data-name="Ebene 2" xmlns="http://www.w3.org/2000/svg" viewBox="0 0 46.68 46.68">
  <g id="Ebene_1-2" data-name="Ebene 1">
    <path d="M45.07,25.21l-15.86,2.41c-.82.12-1.46.77-1.59,1.59l-2.41,15.86c-.33,2.14-3.41,2.14-3.74,0l-2.41-15.86c-.12-.82-.77-1.46-1.59-1.59l-15.86-2.41c-2.14-.33-2.14-3.41,0-3.74l15.86-2.41c.82-.12,1.46-.77,1.59-1.59l2.41-15.86c.33-2.14,3.41-2.14,3.74,0l2.41,15.86c.12.82.77,1.46,1.59,1.59l15.86,2.41c2.14.33,2.14,3.41,0,3.74Z"/>
  </g>
</svg>