<?xml version="1.0" encoding="UTF-8"?>
<svg id="Ebene_2" data-name="Ebene 2" xmlns="http://www.w3.org/2000/svg" viewBox="0 0 45.25 43.2">
  <g id="Ebene_1-2" data-name="Ebene 1">
    <path d="M24.18,1.13l4.22,12.98c.22.68.85,1.13,1.56,1.13h13.64c1.59,0,2.25,2.03.96,2.97l-11.04,8.02c-.57.42-.82,1.16-.6,1.83l4.22,12.98c.49,1.51-1.24,2.77-2.52,1.83l-11.04-8.02c-.57-.42-1.35-.42-1.93,0l-11.04,8.02c-1.29.93-3.02-.32-2.52-1.83l4.22-12.98c.22-.68-.02-1.42-.6-1.83L.68,18.21c-1.29-.93-.62-2.97.96-2.97h13.64c.71,0,1.34-.46,1.56-1.13L21.06,1.13c.49-1.51,2.63-1.51,3.12,0Z"/>
  </g>
</svg>