<?xml version="1.0" encoding="UTF-8"?>
<svg id="Ebene_2" data-name="Ebene 2" xmlns="http://www.w3.org/2000/svg" viewBox="0 0 42.84 43.12">
  <g id="Ebene_1-2" data-name="Ebene 1">
    <path d="M32.93,20.02l9.91-3.05-1.03-3.33-9.91,3.05s-.09.04-.13.05c-.61-1.35-1.48-2.56-2.54-3.57,0,0,0,0,0,0l5.63-8.71s0,0,0,0l-2.92-1.89-5.56,8.61c-1.34-.66-2.83-1.07-4.41-1.16l-1.25-10.01-3.46.43,1.24,9.9c-1.57.39-3.01,1.1-4.25,2.06l-7.23-6.71-2.37,2.55,7.19,6.68c-.91,1.3-1.56,2.8-1.87,4.42l-9.8-.49-.17,3.48,9.84.5c.18,1.62.7,3.14,1.49,4.49l-7.95,6.01,2.1,2.78,8.03-6.08c1.12,1.03,2.45,1.83,3.92,2.35l-2.28,9.98,3.39.78,2.31-10.11c.14,0,.28.01.42.01,1.37,0,2.69-.24,3.91-.68.02.04.03.08.05.12l4.73,9.23,3.1-1.59-4.73-9.23c-.03-.06-.07-.12-.12-.18,1.15-.87,2.13-1.95,2.89-3.18.07.05.15.09.23.13l9.56,4.03,1.35-3.21-9.56-4.03c-.08-.04-.17-.06-.26-.08.23-.91.35-1.86.35-2.84,0-.49-.03-.97-.09-1.44.07,0,.14-.02.22-.04Z"/>
  </g>
</svg>