<?xml version="1.0" encoding="UTF-8"?>
<svg id="Ebene_2" data-name="Ebene 2" xmlns="http://www.w3.org/2000/svg" viewBox="0 0 44.08 40.42">
  <defs>
    <style>
      .cls-1 {
        fill: none;
        stroke: #000;
        stroke-miterlimit: 10;
      }
    </style>
  </defs>
  <g id="Ebene_1-2" data-name="Ebene 1">
    <g id="uuid-ffe2a534-6474-4c97-8e9c-14b1c8a9e7c6" data-name="Ebene 1-2">
      <g id="_9lYoy6.tif" data-name=" 9lYoy6.tif">
        <path class="cls-1" d="M3.56,23.36c-1.01.97-2.81.42-3.03-.99-.15-.99.29-3.21.53-4.26C4.37,3.56,20.77-4.35,33.88,3.73c10.6,6.54,13.11,20.9,4.57,30.27-7.38,8.1-20.48,7.92-27.29-.79-6.17-7.9-3.69-20,5.55-24.19,9.24-4.19,21.14,3.05,19.45,13.79-1.23,7.73-9.72,12.64-16.71,8.28-5.01-3.14-6.23-10.32-1.56-14.33,3.45-2.99,9.46-2.15,11,2.39,1.08,3.21-1.27,7.33-4.92,6.43-2.11-.53-1.95-3.6.64-3.56.37,0,.4.15.7-.26,1.1-1.6-1.05-3.21-2.59-3.21-3.67-.02-5.03,4.59-3.36,7.44,2.46,4.21,8.43,3.93,11.39.37,4.98-6.01.02-14.49-7.24-14.97-10.89-.72-15.94,12.82-8.69,20.55,6.61,7.05,17.78,5.31,22.74-2.7,6.43-10.38-.55-23.03-12.12-24.89C14.47,2.57,5.47,10.82,4.13,21.38c-.09.77.04,1.36-.57,1.98Z"/>
      </g>
    </g>
  </g>
</svg>