<?xml version="1.0" encoding="UTF-8"?>
<svg id="Ebene_2" data-name="Ebene 2" xmlns="http://www.w3.org/2000/svg" viewBox="0 0 49.7 65.74">
  <g id="Ebene_1-2" data-name="Ebene 1">
    <path d="M17.92,9.9L49.7,0v44.23c0,3.3-.42,5.79-1.26,7.47s-2.26,3.06-4.27,4.15c-2.01,1.09-4.28,1.64-6.81,1.64-2.9,0-5.22-.83-6.94-2.49-1.73-1.66-2.6-3.81-2.6-6.45s1.02-4.96,3.07-6.88,4.7-2.89,7.94-2.89c1.06,0,2,.09,2.81.28.81.19,2.13.67,3.97,1.44V11.58l-23.75,7.38v33.37c0,3.22-.43,5.73-1.28,7.52s-2.32,3.23-4.39,4.29c-2.07,1.07-4.34,1.6-6.79,1.6-2.9,0-5.19-.82-6.88-2.46-1.69-1.64-2.53-3.77-2.53-6.41,0-2.79,1.01-5.14,3.03-7.04s4.67-2.85,7.94-2.85c2.07,0,4.39.61,6.95,1.84V9.9Z"/>
  </g>
</svg>