<?xml version="1.0" encoding="UTF-8"?>
<svg id="Ebene_2" data-name="Ebene 2" xmlns="http://www.w3.org/2000/svg" viewBox="0 0 15.01 24.1">
  <defs>
    <style>
      .cls-1 {
        fill: #1d1d1b;
      }
    </style>
  </defs>
  <g id="Ebene_1-2" data-name="Ebene 1">
    <path class="cls-1" d="M0,12.22c0-2.65.4-4.93,1.2-6.84.8-1.91,1.86-3.33,3.18-4.27,1.03-.74,2.09-1.11,3.18-1.11,1.78,0,3.38.91,4.79,2.72,1.77,2.25,2.65,5.29,2.65,9.14,0,2.69-.39,4.98-1.16,6.86-.78,1.88-1.77,3.25-2.97,4.1-1.2.85-2.37,1.28-3.48,1.28-2.21,0-4.06-1.31-5.53-3.92-1.24-2.2-1.87-4.86-1.87-7.96ZM3.35,12.65c0,3.2.39,5.8,1.18,7.82.65,1.7,1.62,2.55,2.91,2.55.62,0,1.26-.28,1.92-.83.66-.55,1.16-1.48,1.51-2.78.52-1.96.79-4.73.79-8.3,0-2.65-.27-4.85-.82-6.62-.41-1.31-.94-2.24-1.59-2.79-.47-.38-1.03-.56-1.69-.56-.78,0-1.47.35-2.07,1.04-.82.95-1.38,2.44-1.68,4.47s-.45,4.03-.45,6.01Z"/>
  </g>
</svg>