<?xml version="1.0" encoding="UTF-8"?>
<svg id="Ebene_2" data-name="Ebene 2" xmlns="http://www.w3.org/2000/svg" viewBox="0 0 9.14 23.69">
  <defs>
    <style>
      .cls-1 {
        fill: #1d1d1b;
      }
    </style>
  </defs>
  <g id="Ebene_1-2" data-name="Ebene 1">
    <path class="cls-1" d="M0,2.76L5.65,0h.56v19.6c0,1.3.05,2.11.16,2.43.11.32.33.56.68.74.34.17,1.04.27,2.09.29v.63H.41v-.63c1.1-.02,1.8-.12,2.12-.28.32-.17.54-.39.67-.67s.19-1.12.19-2.51V7.07c0-1.69-.06-2.77-.17-3.25-.08-.37-.23-.63-.44-.8-.21-.17-.46-.26-.76-.26-.42,0-1.01.18-1.76.53l-.26-.53Z"/>
  </g>
</svg>