<?xml version="1.0" encoding="UTF-8"?>
<svg id="Ebene_2" data-name="Ebene 2" xmlns="http://www.w3.org/2000/svg" viewBox="0 0 15.32 23.69">
  <defs>
    <style>
      .cls-1 {
        fill: #1d1d1b;
      }
    </style>
  </defs>
  <g id="Ebene_1-2" data-name="Ebene 1">
    <path class="cls-1" d="M15.32,19.22l-1.63,4.47H0v-.63c4.03-3.67,6.86-6.67,8.51-9,1.64-2.33,2.46-4.46,2.46-6.38,0-1.47-.45-2.68-1.35-3.63-.9-.95-1.98-1.42-3.24-1.42-1.14,0-2.17.33-3.07,1-.91.67-1.58,1.65-2.01,2.94h-.63c.29-2.11,1.02-3.73,2.2-4.86S5.52,0,7.29,0c1.88,0,3.45.61,4.72,1.81,1.26,1.21,1.89,2.64,1.89,4.28,0,1.17-.27,2.35-.82,3.53-.84,1.85-2.21,3.81-4.11,5.87-2.84,3.1-4.62,4.98-5.32,5.61h6.06c1.23,0,2.1-.04,2.59-.14.5-.09.94-.28,1.34-.56.4-.28.75-.68,1.04-1.19h.63Z"/>
  </g>
</svg>