<?xml version="1.0" encoding="UTF-8"?>
<svg id="Ebene_2" data-name="Ebene 2" xmlns="http://www.w3.org/2000/svg" viewBox="0 0 13.42 8.83">
  <defs>
    <style>
      .cls-1 {
        fill: #1d1d1b;
      }
    </style>
  </defs>
  <g id="Ebene_1-2" data-name="Ebene 1">
    <path class="cls-1" d="M4.43,0v.7c-1,.53-1.72,1.07-2.16,1.64s-.65,1.19-.65,1.87c0,.4.06.67.17.82.1.16.23.24.38.24s.35-.04.6-.13c.25-.08.48-.13.68-.13.47,0,.88.17,1.22.52.35.35.52.77.52,1.27,0,.55-.21,1.02-.63,1.41-.42.39-.95.59-1.57.59-.76,0-1.46-.33-2.07-.99-.62-.66-.92-1.48-.92-2.45,0-1.14.38-2.21,1.14-3.19.76-.99,1.86-1.71,3.29-2.18ZM12.6.05v.65c-1.15.66-1.91,1.26-2.28,1.78-.37.53-.55,1.14-.55,1.85,0,.32.06.56.19.72.13.16.26.24.39.24.13,0,.31-.04.57-.14.25-.09.5-.14.75-.14.47,0,.88.17,1.22.5.35.34.52.75.52,1.24,0,.56-.22,1.04-.66,1.46-.44.41-.98.62-1.62.62-.75,0-1.43-.33-2.04-.98-.61-.65-.91-1.46-.91-2.43,0-1.2.38-2.29,1.15-3.28.76-.99,1.85-1.69,3.25-2.1Z"/>
  </g>
</svg>