<?xml version="1.0" encoding="UTF-8"?>
<svg id="Ebene_2" data-name="Ebene 2" xmlns="http://www.w3.org/2000/svg" viewBox="0 0 13.42 8.83">
  <defs>
    <style>
      .cls-1 {
        fill: #1d1d1b;
      }
    </style>
  </defs>
  <g id="Ebene_1-2" data-name="Ebene 1">
    <path class="cls-1" d="M.82,8.83v-.72c1.15-.65,1.91-1.24,2.27-1.77.36-.53.54-1.14.54-1.84,0-.32-.06-.56-.17-.72-.13-.16-.26-.24-.41-.24-.11,0-.3.05-.55.14-.25.09-.5.14-.75.14-.48,0-.89-.17-1.23-.51s-.51-.76-.51-1.25c0-.55.22-1.03.66-1.44.44-.41.97-.62,1.6-.62.75,0,1.43.33,2.04.98s.92,1.47.92,2.46c0,1.2-.38,2.29-1.16,3.29-.77.99-1.85,1.69-3.24,2.11ZM8.99,8.83v-.72c.99-.51,1.71-1.06,2.15-1.63s.66-1.2.66-1.88c0-.4-.06-.68-.17-.84-.11-.15-.24-.22-.38-.22-.15,0-.35.05-.6.14-.26.09-.49.14-.68.14-.47,0-.88-.18-1.22-.53-.35-.35-.52-.78-.52-1.27,0-.55.21-1.02.63-1.42s.94-.6,1.56-.6c.78,0,1.47.33,2.09,1,.62.67.92,1.49.92,2.46,0,1.14-.38,2.21-1.14,3.19s-1.86,1.71-3.29,2.18Z"/>
  </g>
</svg>