<?xml version="1.0" encoding="UTF-8"?>
<svg id="Ebene_2" data-name="Ebene 2" xmlns="http://www.w3.org/2000/svg" viewBox="0 0 13.2 24.1">
  <defs>
    <style>
      .cls-1 {
        fill: #1d1d1b;
      }
    </style>
  </defs>
  <g id="Ebene_1-2" data-name="Ebene 1">
    <path class="cls-1" d="M.36,4.9c.66-1.56,1.5-2.77,2.51-3.62,1.01-.85,2.27-1.28,3.77-1.28,1.86,0,3.29.61,4.28,1.81.75.9,1.13,1.87,1.13,2.89,0,1.69-1.06,3.43-3.18,5.24,1.43.56,2.5,1.36,3.24,2.4.73,1.04,1.09,2.26,1.09,3.66,0,2.01-.64,3.75-1.92,5.22-1.67,1.92-4.08,2.88-7.24,2.88-1.56,0-2.63-.19-3.19-.58-.56-.39-.85-.8-.85-1.25,0-.33.13-.62.4-.87.27-.25.59-.38.97-.38.29,0,.58.05.87.14.19.06.63.27,1.32.62.69.36,1.16.57,1.42.64.42.13.87.19,1.35.19,1.16,0,2.18-.45,3.04-1.35s1.29-1.97,1.29-3.2c0-.9-.2-1.78-.6-2.64-.3-.64-.62-1.12-.98-1.46-.49-.46-1.16-.87-2.02-1.24-.86-.37-1.73-.56-2.62-.56h-.55v-.51c.9-.11,1.81-.44,2.71-.98.91-.54,1.57-1.18,1.98-1.93.41-.75.62-1.58.62-2.48,0-1.17-.37-2.12-1.1-2.85s-1.65-1.09-2.75-1.09c-1.77,0-3.25.95-4.43,2.84l-.56-.27Z"/>
  </g>
</svg>