<?xml version="1.0" encoding="UTF-8"?>
<svg id="Ebene_2" data-name="Ebene 2" xmlns="http://www.w3.org/2000/svg" viewBox="0 0 9.55 31.91">
  <defs>
    <style>
      .cls-1 {
        fill: #1d1d1b;
      }
    </style>
  </defs>
  <g id="Ebene_1-2" data-name="Ebene 1">
    <path class="cls-1" d="M9.55,31.31v.6c-1.91-.26-3.46-1.04-4.65-2.32-1.19-1.28-1.79-2.71-1.79-4.27,0-.82.13-1.78.39-2.87s.39-1.94.39-2.54c0-.82-.34-1.59-1.04-2.3s-1.65-1.15-2.87-1.31v-.7c1.22-.16,2.18-.59,2.87-1.3.69-.71,1.04-1.48,1.04-2.31,0-.6-.13-1.45-.39-2.53s-.39-2.04-.39-2.88c0-1.55.6-2.97,1.79-4.26C6.1,1.02,7.65.25,9.55,0v.6c-1.34.32-2.31.84-2.94,1.57-.62.72-.93,1.52-.93,2.39,0,.67.13,1.56.39,2.66s.38,2.04.38,2.82c0,1.15-.42,2.27-1.27,3.35-.84,1.08-2.11,1.92-3.78,2.52,1.64.6,2.9,1.46,3.76,2.57.86,1.11,1.29,2.24,1.29,3.39,0,.78-.13,1.71-.38,2.82-.26,1.1-.39,1.99-.39,2.66,0,.87.31,1.66.93,2.39.62.72,1.6,1.25,2.94,1.58Z"/>
  </g>
</svg>