<?xml version="1.0" encoding="UTF-8"?>
<svg id="Ebene_2" data-name="Ebene 2" xmlns="http://www.w3.org/2000/svg" viewBox="0 0 9.55 31.91">
  <defs>
    <style>
      .cls-1 {
        fill: #1d1d1b;
      }
    </style>
  </defs>
  <g id="Ebene_1-2" data-name="Ebene 1">
    <path class="cls-1" d="M0,.6v-.6c1.91.25,3.46,1.02,4.65,2.3,1.19,1.28,1.79,2.71,1.79,4.29,0,.82-.13,1.77-.39,2.86-.26,1.08-.39,1.93-.39,2.53,0,.82.35,1.59,1.04,2.3s1.65,1.15,2.87,1.31v.7c-1.22.16-2.18.6-2.87,1.31s-1.04,1.48-1.04,2.3c0,.61.13,1.45.39,2.54.26,1.09.39,2.05.39,2.87,0,1.55-.6,2.97-1.79,4.26-1.19,1.29-2.74,2.07-4.65,2.33v-.6c1.33-.33,2.31-.86,2.94-1.58s.93-1.52.93-2.4c0-.67-.13-1.56-.39-2.66-.26-1.1-.39-2.03-.39-2.8,0-1.16.42-2.29,1.28-3.37.85-1.08,2.11-1.92,3.79-2.52-1.64-.61-2.9-1.46-3.77-2.57-.87-1.11-1.3-2.24-1.3-3.39,0-.78.13-1.71.39-2.82s.39-1.99.39-2.66c0-.87-.31-1.66-.93-2.39S1.33.92,0,.6Z"/>
  </g>
</svg>