<?xml version="1.0" encoding="UTF-8"?>
<svg id="Ebene_2" data-name="Ebene 2" xmlns="http://www.w3.org/2000/svg" viewBox="0 0 9.45 31.84">
  <defs>
    <style>
      .cls-1 {
        fill: #1d1d1b;
      }
    </style>
  </defs>
  <g id="Ebene_1-2" data-name="Ebene 1">
    <path class="cls-1" d="M0,.72v-.72c1.73.86,3.18,1.87,4.33,3.03,1.63,1.67,2.89,3.62,3.78,5.86.89,2.24,1.33,4.58,1.33,7.01,0,3.54-.87,6.76-2.61,9.68-1.74,2.92-4.02,5-6.84,6.26v-.63c1.4-.79,2.56-1.85,3.47-3.19.91-1.34,1.58-3.05,2.02-5.12.44-2.07.66-4.23.66-6.48,0-2.43-.19-4.65-.57-6.66-.29-1.58-.64-2.84-1.07-3.78s-1-1.86-1.7-2.74c-.71-.88-1.64-1.72-2.81-2.52Z"/>
  </g>
</svg>