<?xml version="1.0" encoding="UTF-8"?>
<svg id="Ebene_2" data-name="Ebene 2" xmlns="http://www.w3.org/2000/svg" viewBox="0 0 9.45 31.84">
  <defs>
    <style>
      .cls-1 {
        fill: #1d1d1b;
      }
    </style>
  </defs>
  <g id="Ebene_1-2" data-name="Ebene 1">
    <path class="cls-1" d="M9.45,31.2v.63c-1.72-.87-3.16-1.88-4.31-3.05-1.64-1.65-2.91-3.61-3.8-5.85-.89-2.25-1.33-4.58-1.33-7,0-3.54.87-6.76,2.62-9.68C4.37,3.34,6.64,1.26,9.45,0v.72c-1.4.78-2.56,1.84-3.46,3.18-.9,1.35-1.58,3.05-2.02,5.12-.45,2.07-.67,4.22-.67,6.47,0,2.44.19,4.66.56,6.66.3,1.58.66,2.84,1.08,3.79.42.95.99,1.87,1.7,2.75.71.88,1.65,1.72,2.8,2.52Z"/>
  </g>
</svg>