<?xml version="1.0" encoding="UTF-8"?>
<svg id="Ebene_2" data-name="Ebene 2" xmlns="http://www.w3.org/2000/svg" viewBox="0 0 13.54 23.62">
  <defs>
    <style>
      .cls-1 {
        fill: #1d1d1b;
      }
    </style>
  </defs>
  <g id="Ebene_1-2" data-name="Ebene 1">
    <path class="cls-1" d="M13.54,0l-1.33,2.91h-6.98l-1.52,3.11c3.02.45,5.42,1.57,7.19,3.37,1.52,1.55,2.28,3.38,2.28,5.48,0,1.22-.25,2.35-.74,3.39-.5,1.04-1.12,1.92-1.87,2.65-.75.73-1.59,1.32-2.52,1.76-1.31.63-2.66.94-4.04.94s-2.41-.24-3.04-.71c-.63-.47-.95-1-.95-1.57,0-.32.13-.6.39-.85.26-.25.59-.37.99-.37.3,0,.56.05.78.14.22.09.6.33,1.14.7.86.59,1.72.89,2.6.89,1.33,0,2.51-.5,3.52-1.51,1.01-1.01,1.51-2.24,1.51-3.69s-.45-2.71-1.35-3.93c-.9-1.21-2.15-2.15-3.73-2.82-1.24-.51-2.94-.81-5.08-.89L5.22,0h8.32Z"/>
  </g>
</svg>