<?xml version="1.0" encoding="UTF-8"?>
<svg id="Ebene_2" data-name="Ebene 2" xmlns="http://www.w3.org/2000/svg" viewBox="0 0 14.67 24.1">
  <defs>
    <style>
      .cls-1 {
        fill: #1d1d1b;
      }
    </style>
  </defs>
  <g id="Ebene_1-2" data-name="Ebene 1">
    <path class="cls-1" d="M14.21,0v.63c-1.51.15-2.74.45-3.69.9s-1.89,1.14-2.82,2.06c-.93.92-1.7,1.95-2.31,3.09-.61,1.13-1.12,2.48-1.53,4.05,1.64-1.13,3.29-1.69,4.95-1.69s2.96.64,4.13,1.92c1.16,1.28,1.75,2.92,1.75,4.93s-.59,3.71-1.76,5.31c-1.42,1.94-3.29,2.91-5.61,2.91-1.59,0-2.93-.53-4.04-1.58-2.17-2.04-3.25-4.69-3.25-7.94,0-2.08.42-4.05,1.25-5.92s2.02-3.53,3.57-4.98c1.55-1.45,3.03-2.42,4.44-2.93,1.41-.5,2.73-.75,3.95-.75h.99ZM3.56,11.98c-.21,1.54-.31,2.78-.31,3.73,0,1.1.2,2.29.61,3.57.4,1.28,1.01,2.3,1.81,3.05.58.54,1.29.8,2.12.8.99,0,1.88-.47,2.66-1.4.78-.94,1.17-2.27,1.17-4.01,0-1.95-.39-3.64-1.16-5.07-.78-1.43-1.88-2.14-3.3-2.14-.43,0-.9.09-1.4.27-.5.18-1.23.58-2.2,1.18Z"/>
  </g>
</svg>