<?xml version="1.0" encoding="UTF-8"?>
<svg id="Ebene_2" data-name="Ebene 2" xmlns="http://www.w3.org/2000/svg" viewBox="0 0 12.58 24.2">
  <defs>
    <style>
      .cls-1 {
        fill: #1d1d1b;
      }
    </style>
  </defs>
  <g id="Ebene_1-2" data-name="Ebene 1">
    <path class="cls-1" d="M6.2,18.26h-.7c.08-1.44.26-2.63.54-3.57.28-.94.86-2.25,1.74-3.93.68-1.29,1.13-2.28,1.33-2.97s.31-1.39.31-2.1c0-1.45-.39-2.6-1.16-3.46-.77-.86-1.71-1.28-2.83-1.28-.99,0-1.77.23-2.35.7-.57.47-.86.98-.86,1.52,0,.42.17.94.51,1.56.34.62.51,1.08.51,1.4,0,.41-.13.76-.39,1.04-.26.28-.58.42-.96.42-.48,0-.92-.24-1.31-.71-.39-.47-.59-1.13-.59-1.98,0-1.29.55-2.43,1.66-3.42C2.77.5,4.27,0,6.16,0c2.35,0,4.08.68,5.19,2.05.82,1,1.23,2.12,1.23,3.34,0,.83-.19,1.69-.56,2.57-.37.88-1.08,1.91-2.11,3.1-1.66,1.87-2.67,3.2-3.04,3.98-.37.78-.6,1.86-.68,3.23ZM5.96,20.39c.54,0,.99.19,1.36.56s.56.83.56,1.36-.19.97-.56,1.34c-.38.37-.83.56-1.35.56s-.97-.19-1.34-.56c-.37-.37-.56-.82-.56-1.34s.18-.99.56-1.36c.37-.37.82-.56,1.34-.56Z"/>
  </g>
</svg>