<?xml version="1.0" encoding="UTF-8"?>
<svg id="Ebene_2" data-name="Ebene 2" xmlns="http://www.w3.org/2000/svg" viewBox="0 0 5.1 22.01">
  <defs>
    <style>
      .cls-1 {
        fill: #1d1d1b;
      }
    </style>
  </defs>
  <g id="Ebene_1-2" data-name="Ebene 1">
    <path class="cls-1" d="M0,22.01v-.75c1.17-.39,2.08-.99,2.73-1.81.64-.82.97-1.68.97-2.59,0-.22-.05-.4-.15-.55-.08-.1-.16-.15-.24-.15-.13,0-.4.11-.82.34-.21.1-.42.15-.65.15-.56,0-1-.17-1.33-.5-.33-.33-.5-.79-.5-1.37s.21-1.04.64-1.44.95-.6,1.57-.6c.75,0,1.42.33,2.01.98.59.66.88,1.53.88,2.61,0,1.18-.41,2.27-1.22,3.28-.82,1.01-2.11,1.81-3.88,2.39ZM2.4,0c.52,0,.97.18,1.34.55.37.37.56.81.56,1.34s-.19.97-.56,1.34c-.37.37-.82.56-1.34.56s-.97-.19-1.34-.56-.56-.82-.56-1.34.19-.97.56-1.34c.37-.36.82-.55,1.34-.55Z"/>
  </g>
</svg>