<?xml version="1.0" encoding="UTF-8"?>
<svg id="Ebene_2" data-name="Ebene 2" xmlns="http://www.w3.org/2000/svg" viewBox="0 0 24.92 24.27">
  <defs>
    <style>
      .cls-1 {
        fill: #1d1d1b;
      }
    </style>
  </defs>
  <g id="Ebene_1-2" data-name="Ebene 1">
    <path class="cls-1" d="M16.6,8.8h7.19v.63c-.99.08-1.73.3-2.2.66s-1.21,1.45-2.22,3.26c-1,1.81-2.13,3.51-3.39,5.08,1.02,1.19,1.92,2.02,2.72,2.49s1.6.71,2.41.71,1.46-.21,2-.64.94-1.06,1.16-1.89l.63.46c-.42,1.61-1.1,2.8-2.04,3.56-.94.76-2.03,1.15-3.27,1.15-.94,0-1.89-.25-2.85-.76-.96-.51-2.02-1.37-3.16-2.58-1.42,1.25-2.69,2.12-3.83,2.61-1.13.49-2.35.73-3.64.73-1.88,0-3.38-.5-4.48-1.51-1.11-1-1.66-2.2-1.66-3.59s.5-2.76,1.49-4.13c.99-1.38,2.86-2.8,5.6-4.27-.54-1.19-.9-2.16-1.1-2.92s-.29-1.49-.29-2.18c0-1.95.72-3.44,2.16-4.47,1.12-.8,2.39-1.2,3.82-1.2s2.46.4,3.32,1.21c.86.8,1.28,1.79,1.28,2.97s-.41,2.27-1.24,3.18c-.83.91-2.29,1.91-4.39,3,1.45,2.58,2.96,4.94,4.54,7.09,2.01-2.4,3.01-4.42,3.01-6.06,0-.52-.17-.99-.51-1.4-.25-.31-.61-.49-1.08-.55v-.63ZM12.72,19.94c-1.51-2.05-2.55-3.55-3.13-4.5s-1.22-2.12-1.92-3.53c-1.37.79-2.4,1.65-3.09,2.6s-1.04,1.97-1.04,3.08c0,1.22.39,2.29,1.18,3.22.79.92,1.85,1.39,3.18,1.39.72,0,1.41-.14,2.08-.43.67-.29,1.58-.9,2.73-1.83ZM10.06,9.24c1.41-.67,2.47-1.44,3.17-2.29.7-.86,1.05-1.81,1.05-2.86,0-.82-.25-1.5-.76-2.04s-1.14-.8-1.89-.8c-.99,0-1.74.35-2.25,1.04-.51.69-.76,1.37-.76,2.03,0,.56.1,1.18.29,1.88.19.69.58,1.71,1.15,3.05Z"/>
  </g>
</svg>