<?xml version="1.0" encoding="UTF-8"?>
<svg id="Ebene_2" data-name="Ebene 2" xmlns="http://www.w3.org/2000/svg" viewBox="0 0 29.77 31.91">
  <defs>
    <style>
      .cls-1 {
        fill: #1d1d1b;
      }
    </style>
  </defs>
  <g id="Ebene_1-2" data-name="Ebene 1">
    <path class="cls-1" d="M22.44,7.94l-2,6.83c-.74,2.56-1.19,4.18-1.35,4.86s-.24,1.23-.24,1.64c0,.37.12.67.37.92.25.25.55.38.92.38.83,0,1.83-.42,3-1.25,1.17-.83,2.17-2.18,3-4.06.83-1.87,1.25-3.82,1.25-5.85s-.47-3.75-1.41-5.41c-.94-1.65-2.27-2.92-3.99-3.81-1.72-.88-3.61-1.33-5.69-1.33-2.64,0-5.08.7-7.34,2.1-2.26,1.4-4.05,3.41-5.37,6.03-1.32,2.62-1.98,5.35-1.98,8.18,0,2.62.58,5.01,1.74,7.15s2.79,3.77,4.89,4.87c2.1,1.1,4.36,1.65,6.78,1.65,3,0,5.71-.8,8.14-2.41,2.42-1.61,4.3-3.96,5.62-7.05h.99c-1.03,3.13-2.89,5.66-5.6,7.6-2.7,1.94-5.79,2.91-9.24,2.91-2.72,0-5.24-.64-7.57-1.93-2.33-1.28-4.14-3.1-5.43-5.46-1.29-2.36-1.93-4.95-1.93-7.78,0-3.01.71-5.82,2.12-8.43,1.41-2.61,3.4-4.64,5.95-6.11C10.62.73,13.33,0,16.19,0c2.36,0,4.49.49,6.39,1.46,1.9.98,3.35,2.4,4.34,4.28.99,1.88,1.49,3.87,1.49,5.98s-.47,4.16-1.4,6.21c-.93,2.05-2.11,3.54-3.55,4.48-1.44.94-2.94,1.4-4.5,1.4-.87,0-1.52-.21-1.96-.62-.44-.41-.66-.99-.66-1.73,0-.64.1-1.48.31-2.52-1.69,2.04-3.04,3.37-4.06,3.97-1.02.61-1.91.91-2.69.91s-1.53-.36-2.16-1.09-.94-1.69-.94-2.9c0-1.65.54-3.51,1.62-5.56,1.08-2.05,2.51-3.73,4.29-5.02,1.31-.95,2.49-1.42,3.53-1.42.76,0,1.4.2,1.91.59s.85.98,1.04,1.77l.57-1.88,2.69-.38ZM16.43,8.64c-.86,0-1.72.45-2.6,1.35-1.29,1.32-2.39,3.11-3.3,5.36-.67,1.64-1.01,2.97-1.01,3.97,0,.72.2,1.3.61,1.75.4.45.86.68,1.36.68.66,0,1.36-.25,2.09-.75s1.5-1.28,2.29-2.32,1.38-2.09,1.75-3.14c.64-1.81.96-3.29.96-4.43,0-.75-.21-1.35-.62-1.8-.42-.45-.92-.67-1.52-.67Z"/>
  </g>
</svg>