<?xml version="1.0" encoding="UTF-8"?>
<svg id="Ebene_2" data-name="Ebene 2" xmlns="http://www.w3.org/2000/svg" viewBox="0 0 13.39 24.1">
  <defs>
    <style>
      .cls-1 {
        fill: #1d1d1b;
      }
    </style>
  </defs>
  <g id="Ebene_1-2" data-name="Ebene 1">
    <path class="cls-1" d="M4.6,12c-1.84-1.51-3.02-2.72-3.55-3.63-.53-.91-.8-1.86-.8-2.84,0-1.51.58-2.8,1.75-3.89S4.71,0,6.64,0s3.38.51,4.52,1.52c1.14,1.02,1.71,2.17,1.71,3.47,0,.87-.31,1.75-.92,2.65s-1.9,1.96-3.85,3.18c2.01,1.55,3.34,2.77,3.99,3.66.87,1.16,1.3,2.39,1.3,3.68,0,1.63-.62,3.03-1.87,4.19-1.24,1.16-2.88,1.74-4.9,1.74-2.2,0-3.92-.69-5.15-2.07-.98-1.11-1.47-2.32-1.47-3.63,0-1.03.35-2.04,1.04-3.06.69-1.01,1.88-2.12,3.57-3.35ZM5.41,12.65c-.95.8-1.65,1.67-2.11,2.61s-.68,1.96-.68,3.05c0,1.47.4,2.65,1.21,3.54.8.88,1.83,1.33,3.07,1.33s2.22-.35,2.96-1.04,1.11-1.54,1.11-2.53c0-.82-.22-1.56-.65-2.21-.81-1.21-2.45-2.79-4.91-4.74ZM7.29,10.17c1.37-1.23,2.24-2.21,2.6-2.92s.55-1.52.55-2.42c0-1.2-.34-2.14-1.01-2.82-.67-.68-1.59-1.02-2.76-1.02s-2.11.34-2.84,1.01c-.73.67-1.1,1.46-1.1,2.36,0,.59.15,1.19.45,1.78.3.59.73,1.16,1.29,1.7l2.81,2.33Z"/>
  </g>
</svg>