<?xml version="1.0" encoding="UTF-8"?>
<svg id="Ebene_2" data-name="Ebene 2" xmlns="http://www.w3.org/2000/svg" viewBox="0 0 12.58 14.21">
  <defs>
    <style>
      .cls-1 {
        fill: #1d1d1b;
      }
    </style>
  </defs>
  <g id="Ebene_1-2" data-name="Ebene 1">
    <path class="cls-1" d="M5.97,6.47c-.05-.79-.21-1.57-.48-2.34-.39-1.12-.58-1.89-.58-2.31,0-.59.14-1.04.42-1.35.28-.31.62-.46,1.04-.46.35,0,.66.15.92.46.26.31.39.75.39,1.32,0,.51-.15,1.23-.45,2.15-.3.92-.49,1.77-.56,2.54.63-.4,1.19-.88,1.69-1.45.78-.9,1.35-1.46,1.73-1.68.38-.22.76-.33,1.15-.33s.69.13.95.38.38.56.38.92c0,.42-.19.8-.56,1.13-.38.33-1.32.66-2.82.99-.88.19-1.61.42-2.19.67.59.31,1.32.54,2.17.7,1.38.25,2.29.56,2.71.94.43.38.64.79.64,1.23,0,.34-.13.64-.39.89s-.56.38-.9.38-.72-.12-1.14-.36c-.42-.24-.98-.78-1.69-1.61-.47-.56-1.05-1.08-1.75-1.58.02.65.15,1.36.39,2.12.41,1.35.62,2.26.62,2.76,0,.46-.14.84-.41,1.16-.27.31-.57.47-.87.47-.42,0-.8-.17-1.15-.5-.24-.24-.36-.62-.36-1.15s.13-1.21.39-1.98c.26-.77.43-1.3.5-1.59s.13-.72.19-1.29c-.67.45-1.26.94-1.76,1.49-.83.94-1.46,1.53-1.88,1.78-.3.18-.6.27-.92.27-.39,0-.72-.13-.99-.39-.27-.26-.41-.55-.41-.87,0-.29.12-.58.35-.9.23-.31.58-.57,1.05-.78.31-.14,1.01-.32,2.11-.55.71-.15,1.4-.37,2.07-.65-.62-.31-1.35-.55-2.21-.72-1.4-.3-2.27-.57-2.6-.8-.51-.38-.77-.83-.77-1.37,0-.31.13-.59.39-.85s.56-.38.9-.38c.38,0,.78.12,1.2.36s.95.72,1.57,1.45c.63.72,1.27,1.29,1.92,1.69Z"/>
  </g>
</svg>