<?xml version="1.0" encoding="UTF-8"?>
<svg id="Ebene_2" data-name="Ebene 2" xmlns="http://www.w3.org/2000/svg" viewBox="0 0 3.83 16.64">
  <defs>
    <style>
      .cls-1 {
        fill: #1d1d1b;
      }
    </style>
  </defs>
  <g id="Ebene_1-2" data-name="Ebene 1">
    <path class="cls-1" d="M1.9,12.82c.54,0,.99.19,1.36.57.37.38.56.83.56,1.35s-.19.97-.56,1.34c-.38.37-.83.56-1.35.56s-.97-.19-1.34-.56-.56-.82-.56-1.34.19-.98.56-1.35c.37-.38.82-.57,1.34-.57ZM1.93,0c.53,0,.97.19,1.34.56s.56.82.56,1.34-.19.97-.56,1.34c-.37.37-.82.56-1.34.56s-.97-.19-1.34-.56S.03,2.42.03,1.9.22.93.59.56c.37-.37.82-.56,1.34-.56Z"/>
  </g>
</svg>