<?xml version="1.0" encoding="UTF-8"?>
<svg id="Ebene_2" data-name="Ebene 2" xmlns="http://www.w3.org/2000/svg" viewBox="0 0 23.16 14.33">
  <defs>
    <style>
      .cls-1 {
        fill: #1d1d1b;
      }
    </style>
  </defs>
  <g id="Ebene_1-2" data-name="Ebene 1">
    <path class="cls-1" d="M10.27,4.74c.78-1.78,1.63-3.01,2.55-3.71.92-.69,2.18-1.04,3.78-1.04,1.84,0,3.39.66,4.66,1.99,1.27,1.32,1.9,3.04,1.9,5.15s-.62,3.81-1.85,5.16c-1.23,1.35-2.61,2.03-4.13,2.03-1.13,0-2.18-.42-3.15-1.25-.64-.55-1.51-1.76-2.62-3.65-.73,1.42-1.53,2.43-2.4,3.05-.87.62-1.92.93-3.15.93-1.64,0-3.03-.59-4.17-1.76-1.14-1.17-1.7-2.69-1.7-4.55S.52,3.7,1.57,2.55,3.85.82,5.25.82c.98,0,1.85.25,2.6.76.75.51,1.56,1.56,2.41,3.16ZM9.77,6.06c-.56-1.25-1.2-2.18-1.92-2.77-.72-.59-1.6-.89-2.65-.89-1.21,0-2.22.42-3.04,1.28-.82.85-1.22,1.99-1.22,3.41,0,1.52.4,2.73,1.21,3.64.8.91,1.71,1.36,2.73,1.36,1.08,0,2.04-.48,2.88-1.45.54-.64,1.21-2.16,2.02-4.57ZM11.91,8.22c.86,1.78,1.7,2.98,2.53,3.59.83.61,1.77.92,2.81.92,1.4,0,2.58-.5,3.52-1.51s1.41-2.37,1.41-4.07-.5-3.06-1.49-4.16c-.99-1.1-2.11-1.64-3.34-1.64-.79,0-1.48.2-2.06.6-.59.4-1.12,1.04-1.6,1.92-.27.51-.87,1.97-1.78,4.36Z"/>
  </g>
</svg>