<?xml version="1.0" encoding="UTF-8"?>
<svg id="Ebene_2" data-name="Ebene 2" xmlns="http://www.w3.org/2000/svg" viewBox="0 0 18.45 13.62">
  <defs>
    <style>
      .cls-1 {
        fill: #1d1d1b;
      }
    </style>
  </defs>
  <g id="Ebene_1-2" data-name="Ebene 1">
    <path class="cls-1" d="M18.45,7.45H0v-1.4h18.45v1.4ZM9.23,0c.41,0,.76.15,1.05.44s.44.64.44,1.05-.15.76-.44,1.05-.65.44-1.07.44-.76-.15-1.05-.44-.44-.64-.44-1.05.15-.76.44-1.05.65-.44,1.07-.44ZM9.23,10.61c.42,0,.78.15,1.07.45s.44.65.44,1.06-.15.76-.45,1.06-.65.45-1.06.45-.76-.15-1.06-.45c-.3-.3-.45-.65-.45-1.06s.15-.76.44-1.06.65-.45,1.07-.45Z"/>
  </g>
</svg>