<?xml version="1.0" encoding="UTF-8"?>
<svg id="Ebene_2" data-name="Ebene 2" xmlns="http://www.w3.org/2000/svg" viewBox="0 0 18.26 4.79">
  <defs>
    <style>
      .cls-1 {
        fill: #1d1d1b;
      }
    </style>
  </defs>
  <g id="Ebene_1-2" data-name="Ebene 1">
    <path class="cls-1" d="M17.49.05h.77c-.05,1.48-.47,2.64-1.27,3.48s-1.77,1.26-2.93,1.26c-.53,0-1.09-.09-1.69-.27-.61-.18-2.17-.78-4.69-1.81-1.76-.73-3.01-1.09-3.75-1.09-.8,0-1.47.25-2.02.74-.55.49-.94,1.29-1.16,2.4h-.75c.07-1.54.49-2.72,1.27-3.53.78-.82,1.69-1.22,2.74-1.22.5,0,1.02.08,1.54.24,1.19.34,2.75.93,4.68,1.75,1.93.83,3.29,1.24,4.08,1.24.86,0,1.58-.27,2.16-.82s.92-1.33,1.03-2.36Z"/>
  </g>
</svg>