<?xml version="1.0" encoding="UTF-8"?>
<svg id="Ebene_2" data-name="Ebene 2" xmlns="http://www.w3.org/2000/svg" viewBox="0 0 14.63 24.17">
  <defs>
    <style>
      .cls-1 {
        fill: #1d1d1b;
      }
    </style>
  </defs>
  <g id="Ebene_1-2" data-name="Ebene 1">
    <path class="cls-1" d="M.46,24.17v-.63c1.48-.02,2.86-.37,4.14-1.04,1.28-.67,2.51-1.83,3.71-3.5,1.19-1.67,2.02-3.5,2.49-5.49-1.79,1.15-3.41,1.73-4.86,1.73-1.63,0-3.03-.63-4.19-1.89-1.16-1.26-1.75-2.94-1.75-5.02s.58-3.84,1.75-5.43C3.15.96,4.98,0,7.24,0c1.91,0,3.54.79,4.9,2.36,1.67,1.95,2.5,4.36,2.5,7.22,0,2.58-.63,4.98-1.9,7.21-1.27,2.23-3.03,4.08-5.29,5.55-1.84,1.21-3.84,1.81-6.01,1.81H.46ZM11.07,12.24c.21-1.48.31-2.67.31-3.56,0-1.11-.19-2.3-.56-3.59-.38-1.28-.91-2.27-1.6-2.95s-1.47-1.03-2.35-1.03c-1.02,0-1.91.46-2.67,1.37s-1.15,2.27-1.15,4.07c0,2.41.51,4.29,1.52,5.65.74.98,1.65,1.47,2.74,1.47.52,0,1.15-.12,1.87-.38.72-.25,1.35-.6,1.9-1.06Z"/>
  </g>
</svg>