<?xml version="1.0" encoding="UTF-8"?>
<svg id="Ebene_2" data-name="Ebene 2" xmlns="http://www.w3.org/2000/svg" viewBox="0 0 12.77 31.91">
  <defs>
    <style>
      .cls-1 {
        fill: #1d1d1b;
      }
    </style>
  </defs>
  <g id="Ebene_1-2" data-name="Ebene 1">
    <path class="cls-1" d="M6.69,7.63c.09.75.24,1.31.44,1.68.21.37.59.78,1.16,1.23-.57.83-.98,1.65-1.23,2.46s-.38,1.83-.38,3.05c0,1.14.12,2.1.36,2.88.24.78.66,1.61,1.25,2.49-.55.47-.93.89-1.14,1.26-.21.37-.37.92-.47,1.65.44-.07.77-.13.97-.19.2-.06.61-.21,1.22-.46.97-.4,1.73-.6,2.29-.6.47,0,.85.14,1.15.43s.45.64.45,1.08c0,.46-.15.83-.45,1.13-.3.3-.67.44-1.13.44s-1.19-.21-2.17-.63c-.52-.22-.95-.37-1.27-.45-.24-.06-.59-.1-1.06-.12.09.7.17,1.16.22,1.38.06.22.18.54.36.95.57,1.25.86,2.19.86,2.81,0,.51-.17.94-.5,1.28-.33.34-.74.51-1.23.51s-.88-.18-1.22-.53c-.33-.35-.5-.79-.5-1.32,0-.26.04-.54.11-.85.07-.3.3-.96.68-1.96.27-.74.45-1.5.53-2.28-.51.02-.92.07-1.21.14s-.72.23-1.28.48c-.87.39-1.51.58-1.93.58-.47,0-.84-.14-1.13-.42-.29-.28-.43-.64-.43-1.09,0-.47.15-.85.45-1.14.3-.29.7-.44,1.19-.44.46,0,1.1.18,1.93.55.56.24.99.39,1.3.46.24.06.6.1,1.09.12-.1-.7-.26-1.22-.47-1.58s-.6-.76-1.17-1.21c.52-.7.9-1.38,1.13-2.05.35-1.04.53-2.21.53-3.53s-.18-2.52-.55-3.51c-.22-.62-.59-1.21-1.11-1.8.55-.41.93-.8,1.14-1.17.21-.37.38-.95.5-1.74-.47.03-.8.08-1,.13-.2.05-.69.23-1.48.55-.79.31-1.46.47-2.02.47-.43,0-.79-.14-1.08-.43-.29-.29-.43-.64-.43-1.08s.14-.77.42-1.05.64-.42,1.07-.42c.53,0,1.27.19,2.24.58.58.24,1.02.39,1.3.46.21.06.53.1.98.14-.02-.49-.07-.85-.14-1.08-.13-.46-.38-1.19-.77-2.21-.24-.6-.37-.95-.39-1.03-.04-.21-.07-.46-.07-.77,0-.57.17-1.03.5-1.38.33-.35.74-.52,1.23-.52s.89.17,1.2.5c.31.33.46.82.46,1.47,0,.35-.03.64-.09.87-.06.23-.27.74-.62,1.55-.35.8-.56,1.67-.62,2.59.5-.03.86-.08,1.08-.13.22-.05.65-.21,1.3-.49.87-.38,1.59-.56,2.16-.56.46,0,.83.14,1.11.42.29.28.43.64.43,1.07s-.15.81-.45,1.09c-.3.29-.68.43-1.16.43-.54,0-1.25-.19-2.16-.57-.58-.26-.99-.42-1.22-.48-.23-.06-.59-.1-1.09-.14Z"/>
  </g>
</svg>