<?xml version="1.0" encoding="UTF-8"?>
<svg id="Ebene_2" data-name="Ebene 2" xmlns="http://www.w3.org/2000/svg" viewBox="0 0 9.71 10">
  <defs>
    <style>
      .cls-1 {
        fill: #1d1d1b;
      }
    </style>
  </defs>
  <g id="Ebene_1-2" data-name="Ebene 1">
    <path class="cls-1" d="M1.32,10L.38,4.93c-.25-1.39-.38-2.34-.38-2.84C0,1.36.15.83.45.5c.3-.33.71-.5,1.22-.5s.92.17,1.25.5c.33.34.5.78.5,1.34,0,.45-.15,1.48-.45,3.1l-.92,5.05h-.74ZM7.58,10l-.92-5-.38-2.07c-.02-.29-.03-.57-.03-.86,0-.72.16-1.24.48-1.57s.74-.5,1.27-.5c.49,0,.9.17,1.22.5s.49.78.49,1.33c0,.97-.11,2.02-.33,3.15l-.98,5.02h-.82Z"/>
  </g>
</svg>