<?xml version="1.0" encoding="UTF-8"?>
<svg id="Ebene_2" data-name="Ebene 2" xmlns="http://www.w3.org/2000/svg" viewBox="0 0 12.19 30.54">
  <defs>
    <style>
      .cls-1 {
        fill: #1d1d1b;
      }
    </style>
  </defs>
  <g id="Ebene_1-2" data-name="Ebene 1">
    <path class="cls-1" d="M3.78,9.26c-.76-.84-1.31-1.61-1.63-2.31-.33-.7-.49-1.4-.49-2.12,0-1.33.47-2.47,1.4-3.42.94-.94,2.09-1.41,3.46-1.41,1.25,0,2.29.38,3.11,1.15.82.76,1.22,1.64,1.22,2.62,0,.45-.15.84-.45,1.18-.22.24-.52.36-.91.36s-.71-.13-.96-.39c-.25-.26-.38-.57-.38-.92,0-.17.04-.47.14-.91.06-.26.09-.51.09-.74,0-.47-.17-.86-.5-1.16-.33-.31-.79-.46-1.37-.46-.83,0-1.54.29-2.11.87-.58.58-.87,1.29-.87,2.12,0,.73.15,1.33.46,1.81.51.8,1.38,1.64,2.58,2.52,2.29,1.65,3.86,3.14,4.71,4.45.59.94.89,1.92.89,2.94s-.3,2.08-.91,3.12c-.61,1.04-1.56,1.95-2.88,2.74.8.88,1.35,1.64,1.65,2.28.3.64.45,1.33.45,2.07,0,1.39-.47,2.56-1.4,3.49-.94.94-2.09,1.4-3.46,1.4-1.23,0-2.26-.39-3.07-1.17-.82-.78-1.22-1.67-1.22-2.68,0-.42.13-.78.4-1.07.27-.29.58-.44.93-.44s.66.13.91.4c.25.27.38.63.38,1.09,0,.31-.05.65-.14,1.02-.09.37-.14.65-.14.85,0,.33.14.6.43.82.45.34.99.51,1.63.51.76,0,1.46-.3,2.08-.89.62-.59.93-1.24.93-1.93s-.18-1.34-.53-1.9c-.55-.86-1.54-1.83-2.98-2.91-2.15-1.6-3.61-3.01-4.38-4.23-.58-.92-.87-1.91-.87-2.94s.31-2.08.92-3.11,1.57-1.92,2.86-2.7ZM4.33,9.79c-1.72,1.04-2.58,2.3-2.58,3.8,0,.8.21,1.54.63,2.21.59.92,1.72,2.01,3.37,3.27.8.6,1.5,1.18,2.09,1.73,1.75-1.06,2.62-2.32,2.62-3.77,0-.74-.25-1.51-.75-2.32s-1.53-1.82-3.1-3.04c-.94-.72-1.69-1.35-2.28-1.88Z"/>
  </g>
</svg>