<?xml version="1.0" encoding="UTF-8"?>
<svg id="Ebene_2" data-name="Ebene 2" xmlns="http://www.w3.org/2000/svg" viewBox="0 0 14.07 31.22">
  <defs>
    <style>
      .cls-1 {
        fill: #1d1d1b;
      }
    </style>
  </defs>
  <g id="Ebene_1-2" data-name="Ebene 1">
    <path class="cls-1" d="M7.24,31.22h-.63c-.05-4.98-.23-8.98-.55-12.02-.24-2.27-.63-4.43-1.18-6.47.58-.5,1-1.03,1.25-1.59.25-.56.41-1.38.48-2.46-.74.08-1.5.28-2.26.6-1.2.5-2.07.75-2.62.75-.51,0-.93-.15-1.25-.46-.32-.31-.48-.7-.48-1.16s.17-.88.5-1.21c.34-.33.76-.49,1.26-.49.29,0,.55.03.79.1.12.03.72.29,1.8.75.68.3,1.44.47,2.26.51-.01-.47-.05-.82-.12-1.06-.08-.35-.25-.84-.51-1.47-.62-1.46-.92-2.57-.92-3.32,0-.66.19-1.2.56-1.61.38-.41.83-.62,1.35-.62.48,0,.91.21,1.29.64.38.43.57.96.57,1.58,0,.34-.04.68-.14,1.03-.11.45-.37,1.16-.78,2.15-.41.99-.63,1.88-.68,2.68.81-.07,1.56-.24,2.26-.51,1.13-.45,1.79-.69,1.97-.74.25-.07.51-.1.77-.1.55,0,.99.16,1.33.48.34.32.5.72.5,1.2s-.17.84-.5,1.16c-.34.32-.76.48-1.26.48-.63,0-1.57-.27-2.82-.8-.55-.23-.94-.37-1.18-.43-.24-.06-.59-.1-1.06-.14.06,1.07.21,1.9.47,2.48s.67,1.11,1.24,1.57c-.55,2.09-.93,4.16-1.15,6.22s-.41,6.15-.57,12.26Z"/>
  </g>
</svg>