<?xml version="1.0" encoding="UTF-8"?>
<svg id="Ebene_2" data-name="Ebene 2" xmlns="http://www.w3.org/2000/svg" viewBox="0 0 14.24 16.47">
  <defs>
    <style>
      .cls-1 {
        fill: #1d1d1b;
      }
    </style>
  </defs>
  <g id="Ebene_1-2" data-name="Ebene 1">
    <path class="cls-1" d="M8.73,13.88c-1.61,1.24-2.62,1.96-3.03,2.16-.62.29-1.27.43-1.97.43-1.08,0-1.98-.37-2.68-1.11-.7-.74-1.05-1.72-1.05-2.93,0-.76.17-1.43.51-1.99.47-.78,1.28-1.51,2.44-2.19s3.08-1.52,5.78-2.5v-.62c0-1.56-.25-2.64-.74-3.22s-1.22-.87-2.17-.87c-.72,0-1.29.19-1.71.58-.43.39-.65.83-.65,1.33l.03.99c0,.53-.13.93-.4,1.22-.27.29-.62.43-1.05.43s-.77-.15-1.04-.45c-.27-.3-.4-.7-.4-1.21,0-.98.5-1.88,1.51-2.7C3.11.41,4.52,0,6.33,0c1.39,0,2.53.23,3.42.7.67.35,1.17.91,1.49,1.66.21.49.31,1.5.31,3.01v5.32c0,1.5.03,2.41.09,2.75.06.34.15.56.28.68.13.11.28.17.45.17.18,0,.34-.04.48-.12.24-.15.7-.56,1.39-1.25v.96c-1.28,1.71-2.5,2.57-3.66,2.57-.56,0-1-.19-1.33-.58-.33-.39-.5-1.05-.51-1.99ZM8.73,12.77v-5.97c-1.72.68-2.83,1.17-3.34,1.46-.9.5-1.55,1.03-1.93,1.57-.39.55-.58,1.15-.58,1.8,0,.82.25,1.5.74,2.04.49.54,1.05.81,1.69.81.87,0,2.01-.57,3.42-1.71Z"/>
  </g>
</svg>