<?xml version="1.0" encoding="UTF-8"?>
<svg id="Ebene_2" data-name="Ebene 2" xmlns="http://www.w3.org/2000/svg" viewBox="0 0 24.65 23.74">
  <defs>
    <style>
      .cls-1 {
        fill: #1d1d1b;
      }
    </style>
  </defs>
  <g id="Ebene_1-2" data-name="Ebene 1">
    <path class="cls-1" d="M15.76,15.97H6.78l-1.57,3.66c-.39.9-.58,1.58-.58,2.02,0,.35.17.66.5.93.34.27,1.06.44,2.18.52v.63H0v-.63c.97-.17,1.6-.39,1.88-.67.58-.55,1.23-1.66,1.93-3.34L11.98,0h.6l8.08,19.31c.65,1.55,1.24,2.56,1.77,3.02s1.27.72,2.22.78v.63h-9.16v-.63c.92-.04,1.55-.2,1.87-.46.33-.26.49-.58.49-.96,0-.5-.23-1.29-.69-2.38l-1.4-3.34ZM15.29,14.7l-3.94-9.38-4.04,9.38h7.98Z"/>
  </g>
</svg>