<?xml version="1.0" encoding="UTF-8"?>
<svg id="Ebene_2" data-name="Ebene 2" xmlns="http://www.w3.org/2000/svg" viewBox="0 0 16.4 24.82">
  <defs>
    <style>
      .cls-1 {
        fill: #1d1d1b;
      }
    </style>
  </defs>
  <g id="Ebene_1-2" data-name="Ebene 1">
    <path class="cls-1" d="M5.48,11.37c1.52-2.11,3.16-3.17,4.91-3.17,1.61,0,3.01.69,4.21,2.06s1.8,3.25,1.8,5.64c0,2.78-.92,5.03-2.77,6.73-1.59,1.46-3.35,2.19-5.31,2.19-.91,0-1.84-.17-2.78-.5-.94-.33-1.9-.83-2.88-1.49V6.59c0-1.78-.04-2.88-.13-3.29-.09-.41-.22-.69-.4-.84s-.41-.22-.68-.22c-.32,0-.72.09-1.2.27l-.24-.6L4.71,0h.77v11.37ZM5.48,12.46v9.38c.58.57,1.18,1,1.81,1.29s1.26.44,1.91.44c1.04,0,2-.57,2.9-1.71.9-1.14,1.34-2.8,1.34-4.98,0-2.01-.45-3.55-1.34-4.63-.9-1.08-1.91-1.62-3.05-1.62-.61,0-1.21.15-1.81.46-.46.23-1.04.68-1.75,1.37Z"/>
  </g>
</svg>