<?xml version="1.0" encoding="UTF-8"?>
<svg id="Ebene_2" data-name="Ebene 2" xmlns="http://www.w3.org/2000/svg" viewBox="0 0 20.88 23.21">
  <defs>
    <style>
      .cls-1 {
        fill: #1d1d1b;
      }
    </style>
  </defs>
  <g id="Ebene_1-2" data-name="Ebene 1">
    <path class="cls-1" d="M15.61,11.37c1.61.34,2.81.89,3.61,1.64,1.11,1.05,1.66,2.33,1.66,3.85,0,1.15-.37,2.26-1.09,3.31-.73,1.06-1.73,1.83-3,2.31-1.27.49-3.22.73-5.83.73H0v-.63h.87c.97,0,1.67-.31,2.09-.92.26-.4.39-1.25.39-2.55V4.11c0-1.44-.17-2.34-.5-2.72-.45-.5-1.11-.75-1.99-.75h-.87v-.63h10.03c1.87,0,3.37.14,4.5.41,1.71.41,3.02,1.14,3.92,2.18s1.35,2.25,1.35,3.6c0,1.16-.35,2.21-1.06,3.12-.71.92-1.75,1.6-3.13,2.04ZM6.64,10.44c.42.08.9.14,1.45.18.54.04,1.14.06,1.79.06,1.67,0,2.92-.18,3.76-.54.84-.36,1.48-.91,1.92-1.65.45-.74.67-1.55.67-2.43,0-1.36-.55-2.52-1.66-3.48-1.11-.96-2.72-1.44-4.84-1.44-1.14,0-2.17.13-3.08.38v8.92ZM6.64,21.53c1.32.31,2.63.46,3.92.46,2.07,0,3.64-.46,4.72-1.4,1.08-.93,1.63-2.08,1.63-3.45,0-.9-.25-1.77-.74-2.6-.49-.83-1.29-1.49-2.4-1.97-1.11-.48-2.48-.72-4.11-.72-.71,0-1.31.01-1.81.03-.5.02-.91.06-1.21.12v9.52Z"/>
  </g>
</svg>