<?xml version="1.0" encoding="UTF-8"?>
<svg id="Ebene_2" data-name="Ebene 2" xmlns="http://www.w3.org/2000/svg" viewBox="0 0 13.21 16.62">
  <defs>
    <style>
      .cls-1 {
        fill: #1d1d1b;
      }
    </style>
  </defs>
  <g id="Ebene_1-2" data-name="Ebene 1">
    <path class="cls-1" d="M13.21,10.18c-.42,2.07-1.25,3.66-2.48,4.77s-2.6,1.67-4.09,1.67c-1.78,0-3.33-.75-4.66-2.24-1.32-1.5-1.99-3.51-1.99-6.06S.73,3.85,2.2,2.31C3.67.77,5.43,0,7.48,0c1.54,0,2.81.41,3.8,1.22.99.82,1.49,1.66,1.49,2.54,0,.43-.14.78-.42,1.05-.28.27-.67.4-1.17.4-.67,0-1.18-.22-1.52-.65-.19-.24-.32-.7-.38-1.37-.06-.67-.29-1.19-.69-1.54-.4-.34-.95-.51-1.66-.51-1.14,0-2.06.42-2.76,1.27-.92,1.12-1.39,2.6-1.39,4.43s.46,3.52,1.38,4.96c.92,1.43,2.16,2.15,3.72,2.15,1.12,0,2.12-.38,3.01-1.15.63-.52,1.24-1.48,1.83-2.86l.5.24Z"/>
  </g>
</svg>