<?xml version="1.0" encoding="UTF-8"?>
<svg id="Ebene_2" data-name="Ebene 2" xmlns="http://www.w3.org/2000/svg" viewBox="0 0 20.9 24.27">
  <defs>
    <style>
      .cls-1 {
        fill: #1d1d1b;
      }
    </style>
  </defs>
  <g id="Ebene_1-2" data-name="Ebene 1">
    <path class="cls-1" d="M19.84,0l.53,7.89h-.53c-.71-2.36-1.72-4.06-3.03-5.1-1.31-1.04-2.89-1.56-4.72-1.56-1.54,0-2.93.39-4.18,1.17-1.24.78-2.22,2.03-2.94,3.74-.71,1.71-1.07,3.84-1.07,6.38,0,2.1.34,3.92,1.01,5.46.67,1.54,1.69,2.72,3.04,3.54,1.35.82,2.89,1.23,4.63,1.23,1.51,0,2.83-.32,3.99-.97,1.15-.64,2.42-1.93,3.8-3.84l.53.34c-1.16,2.07-2.52,3.58-4.07,4.54-1.55.96-3.39,1.44-5.53,1.44-3.85,0-6.82-1.43-8.93-4.28-1.58-2.12-2.36-4.62-2.36-7.5,0-2.32.52-4.45,1.56-6.38,1.04-1.94,2.47-3.44,4.29-4.51,1.82-1.07,3.81-1.6,5.96-1.6,1.68,0,3.33.41,4.96,1.23.48.25.82.38,1.03.38.31,0,.58-.11.8-.33.3-.31.51-.74.63-1.28h.6Z"/>
  </g>
</svg>