<?xml version="1.0" encoding="UTF-8"?>
<svg id="Ebene_2" data-name="Ebene 2" xmlns="http://www.w3.org/2000/svg" viewBox="0 0 16.45 24.82">
  <defs>
    <style>
      .cls-1 {
        fill: #1d1d1b;
      }
    </style>
  </defs>
  <g id="Ebene_1-2" data-name="Ebene 1">
    <path class="cls-1" d="M11.01,22.58c-.76.8-1.51,1.37-2.24,1.72s-1.52.52-2.36.52c-1.71,0-3.21-.72-4.48-2.15-1.28-1.43-1.92-3.27-1.92-5.52s.71-4.3,2.12-6.17c1.42-1.87,3.24-2.8,5.46-2.8,1.38,0,2.52.44,3.42,1.32v-2.89c0-1.79-.04-2.89-.13-3.3-.09-.41-.22-.69-.4-.84-.18-.15-.41-.22-.68-.22-.3,0-.69.09-1.18.27l-.22-.6,4.67-1.92h.77v18.13c0,1.84.04,2.96.13,3.36.09.41.22.69.41.85.19.16.41.24.66.24.31,0,.72-.1,1.23-.29l.19.6-4.66,1.93h-.79v-2.24ZM11.01,21.38v-8.08c-.07-.78-.27-1.48-.62-2.12-.34-.64-.8-1.12-1.36-1.45-.57-.33-1.12-.49-1.65-.49-1,0-1.9.45-2.69,1.35-1.04,1.19-1.56,2.92-1.56,5.2s.5,4.07,1.51,5.3c1,1.23,2.12,1.84,3.35,1.84,1.04,0,2.04-.52,3.01-1.56Z"/>
  </g>
</svg>