<?xml version="1.0" encoding="UTF-8"?>
<svg id="Ebene_2" data-name="Ebene 2" xmlns="http://www.w3.org/2000/svg" viewBox="0 0 23.38 23.21">
  <defs>
    <style>
      .cls-1 {
        fill: #1d1d1b;
      }
    </style>
  </defs>
  <g id="Ebene_1-2" data-name="Ebene 1">
    <path class="cls-1" d="M0,23.21v-.63h.87c.98,0,1.68-.31,2.09-.94.25-.38.38-1.22.38-2.53V4.11c0-1.45-.16-2.36-.48-2.72-.45-.5-1.11-.75-1.99-.75h-.87v-.63h9.45c3.47,0,6.11.39,7.92,1.18,1.81.79,3.26,2.1,4.36,3.94,1.1,1.84,1.65,3.96,1.65,6.37,0,3.23-.98,5.93-2.94,8.1-2.2,2.42-5.56,3.63-10.06,3.63H0ZM6.62,21.53c1.45.32,2.66.48,3.65.48,2.65,0,4.84-.93,6.59-2.79,1.75-1.86,2.62-4.38,2.62-7.57s-.87-5.73-2.62-7.58-3.99-2.77-6.73-2.77c-1.03,0-2.2.17-3.51.5v19.74Z"/>
  </g>
</svg>