<?xml version="1.0" encoding="UTF-8"?>
<svg id="Ebene_2" data-name="Ebene 2" xmlns="http://www.w3.org/2000/svg" viewBox="0 0 13.27 16.64">
  <defs>
    <style>
      .cls-1 {
        fill: #1d1d1b;
      }
    </style>
  </defs>
  <g id="Ebene_1-2" data-name="Ebene 1">
    <path class="cls-1" d="M2.43,6.38c-.01,2.33.55,4.15,1.69,5.48,1.14,1.32,2.48,1.99,4.02,1.99,1.03,0,1.92-.28,2.68-.85.76-.56,1.4-1.53,1.91-2.9l.53.34c-.24,1.56-.94,2.99-2.09,4.27-1.15,1.28-2.6,1.93-4.33,1.93-1.88,0-3.5-.73-4.83-2.2-1.34-1.47-2.01-3.44-2.01-5.91C0,5.84.69,3.75,2.06,2.25,3.44.75,5.16,0,7.24,0c1.76,0,3.2.58,4.33,1.74,1.13,1.16,1.69,2.71,1.69,4.65H2.43ZM2.43,5.39h7.26c-.06-1-.18-1.71-.36-2.12-.29-.64-.71-1.14-1.28-1.51-.57-.36-1.16-.55-1.77-.55-.95,0-1.79.37-2.54,1.1-.75.74-1.18,1.76-1.31,3.07Z"/>
  </g>
</svg>