<?xml version="1.0" encoding="UTF-8"?>
<svg id="Ebene_2" data-name="Ebene 2" xmlns="http://www.w3.org/2000/svg" viewBox="0 0 19.89 23.21">
  <defs>
    <style>
      .cls-1 {
        fill: #1d1d1b;
      }
    </style>
  </defs>
  <g id="Ebene_1-2" data-name="Ebene 1">
    <path class="cls-1" d="M6.61,1.27v9.17h5.1c1.32,0,2.21-.2,2.65-.6.59-.52.92-1.45.99-2.77h.63v8.08h-.63c-.16-1.13-.32-1.85-.48-2.17-.21-.4-.54-.71-1.01-.94-.47-.23-1.19-.34-2.16-.34h-5.1v7.65c0,1.03.04,1.65.14,1.87.09.22.25.4.48.53.23.13.66.2,1.3.2h3.94c1.31,0,2.26-.09,2.86-.27s1.16-.54,1.71-1.08c.71-.71,1.43-1.77,2.17-3.2h.68l-2,5.82H0v-.63h.82c.55,0,1.07-.13,1.56-.39.37-.18.61-.46.75-.82.13-.37.2-1.11.2-2.24V4.04c0-1.47-.15-2.38-.44-2.72-.41-.46-1.1-.68-2.05-.68h-.82v-.63h17.89l.26,5.08h-.67c-.24-1.22-.5-2.06-.8-2.52s-.72-.8-1.29-1.04c-.46-.17-1.26-.26-2.41-.26h-6.37Z"/>
  </g>
</svg>