<?xml version="1.0" encoding="UTF-8"?>
<svg id="Ebene_2" data-name="Ebene 2" xmlns="http://www.w3.org/2000/svg" viewBox="0 0 13.88 24.31">
  <defs>
    <style>
      .cls-1 {
        fill: #1d1d1b;
      }
    </style>
  </defs>
  <g id="Ebene_1-2" data-name="Ebene 1">
    <path class="cls-1" d="M5.87,9.86v10.3c0,1.46.16,2.39.48,2.77.42.5.99.75,1.7.75h1.42v.62H.1v-.62h.7c.46,0,.87-.11,1.25-.34.38-.23.64-.54.78-.92s.21-1.14.21-2.26v-10.3H0v-1.23h3.05v-1.03c0-1.56.25-2.89.75-3.97.5-1.08,1.27-1.96,2.3-2.63,1.03-.67,2.19-1,3.48-1,1.2,0,2.3.39,3.3,1.16.66.51.99,1.09.99,1.73,0,.34-.15.67-.44.97-.3.3-.62.45-.96.45-.26,0-.54-.09-.83-.28s-.65-.59-1.07-1.22c-.42-.62-.81-1.04-1.16-1.26-.35-.22-.75-.33-1.18-.33-.52,0-.97.14-1.33.42-.37.28-.63.71-.79,1.3-.16.59-.24,2.1-.24,4.54v1.13h4.04v1.23h-4.04Z"/>
  </g>
</svg>