<?xml version="1.0" encoding="UTF-8"?>
<svg id="Ebene_2" data-name="Ebene 2" xmlns="http://www.w3.org/2000/svg" viewBox="0 0 17.49 23.21">
  <defs>
    <style>
      .cls-1 {
        fill: #1d1d1b;
      }
    </style>
  </defs>
  <g id="Ebene_1-2" data-name="Ebene 1">
    <path class="cls-1" d="M6.61,1.27v9.12h4.23c.97,0,1.68-.21,2.13-.64.45-.43.75-1.28.9-2.54h.63v7.86h-.63c-.01-.9-.13-1.56-.35-1.99s-.53-.74-.92-.95-.98-.32-1.75-.32h-4.23v7.29c0,1.18.07,1.95.22,2.33.11.29.35.53.72.74.5.27,1.03.41,1.58.41h.84v.63H0v-.63h.82c.96,0,1.65-.28,2.09-.84.27-.37.41-1.24.41-2.64V4.11c0-1.17-.07-1.95-.22-2.33-.11-.29-.35-.53-.7-.74-.49-.27-1.02-.41-1.57-.41h-.82v-.63h17.27l.22,5.1h-.6c-.3-1.08-.64-1.88-1.04-2.39-.39-.51-.88-.88-1.46-1.1-.58-.23-1.47-.34-2.68-.34h-5.12Z"/>
  </g>
</svg>