<?xml version="1.0" encoding="UTF-8"?>
<svg id="Ebene_2" data-name="Ebene 2" xmlns="http://www.w3.org/2000/svg" viewBox="0 0 15.85 23.71">
  <defs>
    <style>
      .cls-1 {
        fill: #1d1d1b;
      }
    </style>
  </defs>
  <g id="Ebene_1-2" data-name="Ebene 1">
    <path class="cls-1" d="M4.25,10.42c-.96-.47-1.69-1.12-2.21-1.96s-.77-1.77-.77-2.78c0-1.55.58-2.89,1.75-4.01,1.17-1.12,2.67-1.68,4.49-1.68,1.49,0,2.79.37,3.88,1.09h3.32c.49,0,.78.01.86.04.08.03.14.08.17.15.07.1.1.29.1.55,0,.3-.03.5-.09.62-.03.06-.09.1-.18.14s-.37.05-.86.05h-2.04c.64.82.96,1.87.96,3.15,0,1.46-.56,2.71-1.68,3.75-1.12,1.04-2.62,1.56-4.5,1.56-.78,0-1.57-.11-2.38-.34-.5.43-.84.81-1.02,1.14s-.27.6-.27.83c0,.19.09.38.28.56.19.18.56.31,1.1.39.32.05,1.12.09,2.4.12,2.35.06,3.87.14,4.57.24,1.06.15,1.91.54,2.54,1.18.63.64.95,1.43.95,2.36,0,1.29-.6,2.5-1.81,3.63-1.78,1.67-4.1,2.5-6.97,2.5-2.2,0-4.06-.5-5.58-1.49-.86-.57-1.28-1.16-1.28-1.78,0-.27.06-.55.19-.82.19-.42.59-1.01,1.2-1.76.08-.1.66-.72,1.75-1.85-.59-.35-1.01-.67-1.26-.95-.25-.28-.37-.6-.37-.95,0-.4.16-.87.49-1.4s1.08-1.29,2.25-2.28ZM4.07,16.14c-.54.58-.94,1.12-1.22,1.63-.27.5-.41.96-.41,1.39,0,.55.33,1.03.99,1.44,1.14.71,2.79,1.06,4.95,1.06s3.57-.36,4.54-1.09,1.46-1.5,1.46-2.32c0-.59-.29-1.02-.87-1.27-.59-.25-1.77-.4-3.53-.45-2.57-.07-4.54-.2-5.92-.39ZM7.22.82c-.84,0-1.55.34-2.12,1.01-.57.67-.86,1.71-.86,3.1,0,1.8.39,3.2,1.16,4.19.59.75,1.35,1.13,2.26,1.13s1.58-.33,2.14-.98c.56-.65.84-1.67.84-3.06,0-1.81-.39-3.24-1.18-4.26-.58-.75-1.33-1.13-2.24-1.13Z"/>
  </g>
</svg>