<?xml version="1.0" encoding="UTF-8"?>
<svg id="Ebene_2" data-name="Ebene 2" xmlns="http://www.w3.org/2000/svg" viewBox="0 0 23.59 24.27">
  <defs>
    <style>
      .cls-1 {
        fill: #1d1d1b;
      }
    </style>
  </defs>
  <g id="Ebene_1-2" data-name="Ebene 1">
    <path class="cls-1" d="M20.28,0l.6,7.33h-.6c-.61-1.83-1.39-3.2-2.34-4.12-1.38-1.33-3.16-2-5.32-2-2.96,0-5.2,1.17-6.74,3.51-1.29,1.97-1.93,4.32-1.93,7.05,0,2.21.43,4.23,1.28,6.06.86,1.83,1.98,3.16,3.36,4.01,1.39.85,2.81,1.27,4.27,1.27.86,0,1.68-.11,2.48-.33.8-.22,1.57-.54,2.31-.96v-6.71c0-1.16-.09-1.93-.27-2.29s-.45-.63-.82-.82c-.37-.19-1.02-.28-1.96-.28v-.65h8.99v.65h-.43c-.89,0-1.5.3-1.83.89-.23.42-.34,1.26-.34,2.5v7.1c-1.31.71-2.61,1.23-3.89,1.56-1.28.33-2.7.5-4.26.5-4.49,0-7.89-1.44-10.22-4.31-1.75-2.16-2.62-4.64-2.62-7.46,0-2.04.49-4,1.47-5.87,1.16-2.23,2.76-3.94,4.79-5.14,1.7-.99,3.71-1.49,6.03-1.49.84,0,1.61.07,2.3.21s1.67.44,2.94.91c.64.24,1.07.36,1.28.36s.4-.1.56-.3c.15-.2.25-.59.28-1.17h.63Z"/>
  </g>
</svg>