<?xml version="1.0" encoding="UTF-8"?>
<svg id="Ebene_2" data-name="Ebene 2" xmlns="http://www.w3.org/2000/svg" viewBox="0 0 17.08 24.34">
  <defs>
    <style>
      .cls-1 {
        fill: #1d1d1b;
      }
    </style>
  </defs>
  <g id="Ebene_1-2" data-name="Ebene 1">
    <path class="cls-1" d="M5.48,0v11.47c1.27-1.39,2.27-2.29,3.01-2.68.74-.39,1.48-.59,2.23-.59.89,0,1.65.25,2.29.74.64.49,1.11,1.26,1.42,2.31.22.73.33,2.07.33,4v5.55c0,.99.08,1.67.24,2.04.11.27.31.49.58.65.27.16.78.24,1.51.24v.62h-7.7v-.62h.36c.73,0,1.24-.11,1.52-.33s.48-.55.6-.98c.03-.18.05-.72.05-1.61v-5.55c0-1.71-.09-2.84-.27-3.37s-.46-.94-.85-1.21c-.39-.27-.86-.4-1.4-.4s-1.14.15-1.75.45c-.61.3-1.33.9-2.17,1.8v8.28c0,1.07.06,1.74.18,2,.12.26.34.48.67.66.33.18.89.27,1.69.27v.62H.24v-.62c.7,0,1.24-.11,1.64-.33.23-.11.41-.33.55-.65s.21-.97.21-1.95V6.61c0-1.79-.04-2.89-.13-3.3-.09-.41-.22-.69-.39-.84-.18-.15-.41-.22-.71-.22-.24,0-.63.09-1.16.27l-.24-.6L4.69,0h.79Z"/>
  </g>
</svg>