<?xml version="1.0" encoding="UTF-8"?>
<svg id="Ebene_2" data-name="Ebene 2" xmlns="http://www.w3.org/2000/svg" viewBox="0 0 24 23.21">
  <defs>
    <style>
      .cls-1 {
        fill: #1d1d1b;
      }
    </style>
  </defs>
  <g id="Ebene_1-2" data-name="Ebene 1">
    <path class="cls-1" d="M6.61,10.77h10.78v-6.64c0-1.19-.07-1.97-.22-2.34-.11-.29-.35-.53-.72-.74-.49-.27-1.01-.41-1.56-.41h-.82v-.63h9.93v.63h-.82c-.55,0-1.07.13-1.56.39-.37.18-.61.46-.75.83-.13.37-.2,1.13-.2,2.27v14.98c0,1.18.07,1.95.22,2.33.11.29.35.53.7.74.5.27,1.03.41,1.58.41h.82v.63h-9.93v-.63h.82c.95,0,1.64-.28,2.07-.84.29-.37.43-1.24.43-2.64v-7.07H6.61v7.07c0,1.18.07,1.95.22,2.33.11.29.35.53.72.74.49.27,1.01.41,1.56.41h.84v.63H0v-.63h.82c.96,0,1.65-.28,2.09-.84.27-.37.41-1.24.41-2.64V4.12c0-1.19-.07-1.97-.22-2.34-.11-.29-.35-.53-.7-.74-.5-.27-1.03-.41-1.57-.41h-.82v-.63h9.95v.63h-.84c-.55,0-1.07.13-1.56.39-.35.18-.6.46-.74.83-.14.37-.21,1.13-.21,2.27v6.64Z"/>
  </g>
</svg>