<?xml version="1.0" encoding="UTF-8"?>
<svg id="Ebene_2" data-name="Ebene 2" xmlns="http://www.w3.org/2000/svg" viewBox="0 0 7.86 24.34">
  <defs>
    <style>
      .cls-1 {
        fill: #1d1d1b;
      }
    </style>
  </defs>
  <g id="Ebene_1-2" data-name="Ebene 1">
    <path class="cls-1" d="M5.48,8.2v12.6c0,.98.07,1.63.21,1.96.14.33.35.57.63.73.28.16.79.24,1.53.24v.62H.24v-.62c.76,0,1.28-.07,1.54-.22.26-.15.47-.39.62-.74.15-.34.23-1,.23-1.97v-6.04c0-1.7-.05-2.8-.15-3.3-.08-.37-.21-.62-.38-.76-.17-.14-.41-.21-.7-.21-.32,0-.71.08-1.16.26l-.24-.62,4.72-1.92h.75ZM4.06,0c.48,0,.89.17,1.22.5.34.34.5.75.5,1.22s-.17.89-.5,1.23c-.34.34-.75.51-1.22.51s-.89-.17-1.23-.51c-.34-.34-.51-.75-.51-1.23s.17-.89.5-1.22.75-.5,1.24-.5Z"/>
  </g>
</svg>