<?xml version="1.0" encoding="UTF-8"?>
<svg id="Ebene_2" data-name="Ebene 2" xmlns="http://www.w3.org/2000/svg" viewBox="0 0 9.94 23.21">
  <defs>
    <style>
      .cls-1 {
        fill: #1d1d1b;
      }
    </style>
  </defs>
  <g id="Ebene_1-2" data-name="Ebene 1">
    <path class="cls-1" d="M9.94,22.58v.63H0v-.63h.82c.96,0,1.65-.28,2.09-.84.27-.37.41-1.24.41-2.64V4.11c0-1.17-.07-1.95-.22-2.33-.11-.29-.35-.53-.7-.74-.5-.27-1.03-.41-1.58-.41h-.82v-.63h9.94v.63h-.84c-.95,0-1.64.28-2.07.84-.29.37-.43,1.24-.43,2.64v14.99c0,1.18.07,1.95.22,2.33.11.29.35.53.72.74.49.27,1.01.41,1.56.41h.84Z"/>
  </g>
</svg>