<?xml version="1.0" encoding="UTF-8"?>
<svg id="Ebene_2" data-name="Ebene 2" xmlns="http://www.w3.org/2000/svg" viewBox="0 0 9.52 31.92">
  <defs>
    <style>
      .cls-1 {
        fill: #1d1d1b;
      }
    </style>
  </defs>
  <g id="Ebene_1-2" data-name="Ebene 1">
    <path class="cls-1" d="M9.23,8.22v15.78c0,2.68-.57,4.67-1.71,5.97-1.14,1.3-2.62,1.95-4.45,1.95-1.04,0-1.81-.19-2.31-.56-.5-.38-.75-.76-.75-1.16s.14-.74.42-1.03c.28-.29.61-.43.98-.43.3,0,.6.07.91.22.19.08.57.37,1.12.86.55.5,1.02.74,1.4.74.27,0,.54-.11.8-.32.26-.21.46-.56.58-1.06.12-.5.19-1.57.19-3.23v-11.16c0-1.72-.05-2.83-.15-3.32-.08-.38-.21-.64-.38-.78s-.41-.21-.7-.21c-.32,0-.71.08-1.16.26l-.24-.62,4.72-1.92h.74ZM7.75,0c.49,0,.91.17,1.25.51.34.34.51.76.51,1.25s-.17.89-.51,1.23c-.34.34-.76.51-1.25.51s-.89-.17-1.23-.51c-.34-.34-.51-.75-.51-1.23s.17-.91.51-1.25c.34-.34.75-.51,1.23-.51Z"/>
  </g>
</svg>