<?xml version="1.0" encoding="UTF-8"?>
<svg id="Ebene_2" data-name="Ebene 2" xmlns="http://www.w3.org/2000/svg" viewBox="0 0 12.72 23.74">
  <defs>
    <style>
      .cls-1 {
        fill: #1d1d1b;
      }
    </style>
  </defs>
  <g id="Ebene_1-2" data-name="Ebene 1">
    <path class="cls-1" d="M2.77.63v-.63h9.94v.63h-.84c-.95,0-1.64.28-2.07.84-.27.37-.41,1.24-.41,2.64v11.35c0,1.75-.19,3.16-.57,4.25-.38,1.08-1.04,2.03-1.98,2.83-.94.8-2.07,1.21-3.39,1.21-1.07,0-1.92-.26-2.53-.8-.62-.53-.92-1.14-.92-1.82,0-.56.14-.98.43-1.27.38-.35.82-.53,1.32-.53.37,0,.69.12.98.36.29.24.66.88,1.1,1.92.26.62.6.92,1.01.92.31,0,.6-.19.87-.56.27-.38.4-1.04.4-2V4.11c0-1.17-.07-1.95-.22-2.33-.11-.29-.35-.53-.72-.74-.49-.27-1.01-.41-1.56-.41h-.84Z"/>
  </g>
</svg>