<?xml version="1.0" encoding="UTF-8"?>
<svg id="Ebene_2" data-name="Ebene 2" xmlns="http://www.w3.org/2000/svg" viewBox="0 0 17.44 24.34">
  <defs>
    <style>
      .cls-1 {
        fill: #1d1d1b;
      }
    </style>
  </defs>
  <g id="Ebene_1-2" data-name="Ebene 1">
    <path class="cls-1" d="M5.44,0v15.61l3.99-3.65c.84-.78,1.33-1.27,1.47-1.47.09-.14.14-.27.14-.41,0-.23-.09-.42-.28-.59-.19-.17-.5-.26-.93-.28v-.55h6.81v.55c-.94.02-1.71.17-2.34.43s-1.3.73-2.04,1.4l-4.02,3.71,4.02,5.08c1.12,1.4,1.87,2.29,2.26,2.67.55.54,1.03.88,1.44,1.04.29.11.78.17,1.49.17v.62h-7.62v-.62c.43-.01.73-.08.88-.2.15-.12.23-.29.23-.5,0-.26-.23-.68-.68-1.27l-4.81-6.14v5.2c0,1.02.07,1.68.21,2s.34.55.61.68.83.21,1.71.22v.62H0v-.62c.8,0,1.4-.1,1.8-.29.24-.12.42-.32.55-.58.17-.38.26-1.03.26-1.95V6.62c0-1.81-.04-2.92-.12-3.33-.08-.41-.21-.68-.39-.84s-.42-.23-.72-.23c-.24,0-.6.1-1.08.29l-.29-.6L4.66,0h.79Z"/>
  </g>
</svg>