<?xml version="1.0" encoding="UTF-8"?>
<svg id="Ebene_2" data-name="Ebene 2" xmlns="http://www.w3.org/2000/svg" viewBox="0 0 25.02 23.21">
  <defs>
    <style>
      .cls-1 {
        fill: #1d1d1b;
      }
    </style>
  </defs>
  <g id="Ebene_1-2" data-name="Ebene 1">
    <path class="cls-1" d="M9.89,10.34l8.56,8.51c1.4,1.4,2.6,2.36,3.59,2.87.99.51,1.99.8,2.98.86v.63h-11.04v-.63c.66,0,1.14-.11,1.43-.33s.44-.47.44-.75-.05-.52-.16-.74-.46-.62-1.07-1.22l-8.01-7.92v7.48c0,1.18.07,1.95.22,2.33.11.29.35.53.72.74.49.27,1.01.41,1.56.41h.79v.63H0v-.63h.82c.96,0,1.65-.28,2.09-.84.27-.37.41-1.24.41-2.64V4.11c0-1.17-.07-1.96-.22-2.34-.11-.27-.35-.51-.7-.72-.5-.27-1.03-.41-1.58-.41h-.82v-.63h9.89v.63h-.79c-.54,0-1.06.13-1.56.39-.35.18-.6.46-.74.82s-.21,1.12-.21,2.26v7.1c.23-.22,1.01-.94,2.34-2.17,3.39-3.1,5.44-5.17,6.14-6.21.31-.46.46-.86.46-1.2,0-.26-.12-.49-.36-.69-.24-.2-.64-.3-1.21-.3h-.53v-.63h8.52v.63c-.5.01-.96.08-1.37.21-.41.12-.91.37-1.51.73-.59.36-1.32.94-2.19,1.74-.25.23-1.41,1.4-3.47,3.51l-3.54,3.53Z"/>
  </g>
</svg>