<?xml version="1.0" encoding="UTF-8"?>
<svg id="Ebene_2" data-name="Ebene 2" xmlns="http://www.w3.org/2000/svg" viewBox="0 0 7.98 24.34">
  <defs>
    <style>
      .cls-1 {
        fill: #1d1d1b;
      }
    </style>
  </defs>
  <g id="Ebene_1-2" data-name="Ebene 1">
    <path class="cls-1" d="M5.44,0v20.8c0,.98.07,1.63.21,1.95s.36.56.66.73c.3.17.85.25,1.66.25v.62H.29v-.62c.72,0,1.21-.07,1.47-.22.26-.15.47-.39.62-.74.15-.34.22-1,.22-1.97V6.56c0-1.77-.04-2.86-.12-3.26-.08-.41-.21-.68-.39-.83s-.4-.22-.68-.22c-.3,0-.67.09-1.13.27l-.29-.6L4.67,0h.77Z"/>
  </g>
</svg>