<?xml version="1.0" encoding="UTF-8"?>
<svg id="Ebene_2" data-name="Ebene 2" xmlns="http://www.w3.org/2000/svg" viewBox="0 0 19.96 23.21">
  <defs>
    <style>
      .cls-1 {
        fill: #1d1d1b;
      }
    </style>
  </defs>
  <g id="Ebene_1-2" data-name="Ebene 1">
    <path class="cls-1" d="M19.39,16.79l.57.12-1.99,6.3H0v-.63h.87c.98,0,1.68-.32,2.1-.96.24-.37.36-1.21.36-2.53V4.11c0-1.45-.16-2.36-.48-2.72-.45-.5-1.11-.75-1.99-.75h-.87v-.63h10.51v.63c-1.23-.01-2.1.1-2.59.34s-.84.54-1.02.91-.27,1.24-.27,2.62v14.58c0,.95.09,1.6.27,1.95.14.24.35.42.63.53.29.11,1.17.17,2.67.17h1.69c1.78,0,3.03-.13,3.75-.39.72-.26,1.38-.73,1.97-1.4.59-.67,1.19-1.72,1.78-3.16Z"/>
  </g>
</svg>