<?xml version="1.0" encoding="UTF-8"?>
<svg id="Ebene_2" data-name="Ebene 2" xmlns="http://www.w3.org/2000/svg" viewBox="0 0 26.82 16.14">
  <defs>
    <style>
      .cls-1 {
        fill: #1d1d1b;
      }
    </style>
  </defs>
  <g id="Ebene_1-2" data-name="Ebene 1">
    <path class="cls-1" d="M5.46,3.34c1.14-1.14,1.81-1.8,2.02-1.97.51-.43,1.07-.77,1.66-1.01.59-.24,1.18-.36,1.76-.36.98,0,1.83.29,2.53.86.71.57,1.18,1.4,1.42,2.48,1.17-1.37,2.17-2.27,2.98-2.7.81-.43,1.64-.64,2.5-.64s1.57.21,2.22.64,1.16,1.13,1.53,2.1c.25.66.38,1.7.38,3.12v6.74c0,.98.07,1.65.22,2.02.11.25.33.46.63.64.31.18.81.27,1.51.27v.62h-7.74v-.62h.33c.67,0,1.2-.13,1.58-.39.26-.18.45-.47.56-.87.05-.19.07-.75.07-1.66v-6.74c0-1.28-.15-2.18-.46-2.7-.45-.73-1.16-1.1-2.14-1.1-.61,0-1.21.15-1.82.45-.61.3-1.35.87-2.22,1.69l-.03.19.03.74v7.48c0,1.07.06,1.74.18,2,.12.26.35.48.68.66.33.18.9.27,1.69.27v.62h-7.92v-.62c.87,0,1.46-.1,1.79-.31.33-.21.55-.51.68-.92.06-.19.08-.76.08-1.69v-6.74c0-1.28-.19-2.2-.56-2.76-.5-.73-1.2-1.1-2.11-1.1-.62,0-1.23.17-1.83.5-.95.5-1.68,1.07-2.19,1.69v8.4c0,1.03.07,1.69.21,2,.14.31.35.54.63.69.28.15.85.23,1.7.23v.62H.26v-.62c.72,0,1.22-.08,1.51-.23.29-.15.5-.4.65-.74s.22-.99.22-1.96v-5.99c0-1.72-.05-2.83-.15-3.34-.08-.38-.21-.64-.38-.78s-.41-.21-.7-.21c-.32,0-.7.08-1.15.26l-.26-.62L4.72,0h.74v3.34Z"/>
  </g>
</svg>