<?xml version="1.0" encoding="UTF-8"?>
<svg id="Ebene_2" data-name="Ebene 2" xmlns="http://www.w3.org/2000/svg" viewBox="0 0 29.85 23.21">
  <defs>
    <style>
      .cls-1 {
        fill: #1d1d1b;
      }
    </style>
  </defs>
  <g id="Ebene_1-2" data-name="Ebene 1">
    <path class="cls-1" d="M13.76,23.21L4.79,3.68v15.51c0,1.43.15,2.32.46,2.67.42.48,1.09.72,2,.72h.82v.63H0v-.63h.82c.98,0,1.68-.3,2.09-.89.25-.37.38-1.2.38-2.5V4.02c0-1.03-.11-1.77-.34-2.23-.16-.33-.45-.61-.88-.83S.95.63,0,.63v-.63h6.57l8.42,18.16L23.28,0h6.57v.63h-.8c-.99,0-1.69.3-2.11.89-.25.37-.38,1.2-.38,2.5v15.17c0,1.43.16,2.32.48,2.67.42.48,1.09.72,2,.72h.8v.63h-9.86v-.63h.82c.99,0,1.69-.3,2.09-.89.25-.37.38-1.2.38-2.5V3.68l-8.95,19.53h-.56Z"/>
  </g>
</svg>