<?xml version="1.0" encoding="UTF-8"?>
<svg id="Ebene_2" data-name="Ebene 2" xmlns="http://www.w3.org/2000/svg" viewBox="0 0 17.17 16.14">
  <defs>
    <style>
      .cls-1 {
        fill: #1d1d1b;
      }
    </style>
  </defs>
  <g id="Ebene_1-2" data-name="Ebene 1">
    <path class="cls-1" d="M5.46,3.32c1.84-2.21,3.59-3.32,5.25-3.32.86,0,1.59.21,2.21.64.62.43,1.11,1.13,1.47,2.11.25.68.38,1.73.38,3.15v6.69c0,.99.08,1.67.24,2.02.12.29.33.51.61.67.28.16.8.24,1.55.24v.62h-7.75v-.62h.33c.73,0,1.24-.11,1.53-.33s.49-.55.61-.98c.05-.17.07-.71.07-1.61v-6.42c0-1.43-.19-2.46-.56-3.11-.37-.64-1-.97-1.87-.97-1.36,0-2.71.74-4.06,2.22v8.27c0,1.06.06,1.72.19,1.97.16.33.38.57.66.73.28.15.85.23,1.7.23v.62H.26v-.62h.34c.8,0,1.34-.2,1.62-.61s.42-1.18.42-2.32v-5.82c0-1.88-.04-3.03-.13-3.44-.09-.41-.22-.69-.39-.84s-.41-.22-.71-.22c-.32,0-.7.08-1.15.26l-.26-.62L4.72,0h.74v3.32Z"/>
  </g>
</svg>