<?xml version="1.0" encoding="UTF-8"?>
<svg id="Ebene_2" data-name="Ebene 2" xmlns="http://www.w3.org/2000/svg" viewBox="0 0 25.28 23.59">
  <defs>
    <style>
      .cls-1 {
        fill: #1d1d1b;
      }
    </style>
  </defs>
  <g id="Ebene_1-2" data-name="Ebene 1">
    <path class="cls-1" d="M0,0h6.3l14.19,17.41V4.02c0-1.43-.16-2.32-.48-2.67-.42-.48-1.09-.72-2-.72h-.8v-.63h8.08v.63h-.82c-.98,0-1.68.3-2.09.89-.25.37-.38,1.2-.38,2.5v19.56h-.62L6.08,4.9v14.29c0,1.43.15,2.32.46,2.67.43.48,1.1.72,2,.72h.82v.63H1.28v-.63h.8c.99,0,1.69-.3,2.11-.89.25-.37.38-1.2.38-2.5V3.05c-.67-.79-1.18-1.31-1.53-1.56-.35-.25-.86-.49-1.53-.7-.33-.1-.83-.15-1.51-.15v-.63Z"/>
  </g>
</svg>