<?xml version="1.0" encoding="UTF-8"?>
<svg id="Ebene_2" data-name="Ebene 2" xmlns="http://www.w3.org/2000/svg" viewBox="0 0 15.13 16.62">
  <defs>
    <style>
      .cls-1 {
        fill: #1d1d1b;
      }
    </style>
  </defs>
  <g id="Ebene_1-2" data-name="Ebene 1">
    <path class="cls-1" d="M7.58,0c2.37,0,4.28.9,5.72,2.7,1.22,1.54,1.83,3.31,1.83,5.31,0,1.4-.34,2.83-1.01,4.26-.67,1.44-1.6,2.52-2.78,3.25-1.18.73-2.5,1.1-3.95,1.1-2.36,0-4.24-.94-5.63-2.82-1.18-1.59-1.76-3.37-1.76-5.34,0-1.44.36-2.87,1.07-4.29.71-1.42,1.65-2.47,2.82-3.15,1.16-.68,2.4-1.02,3.7-1.02ZM7.05,1.11c-.61,0-1.21.18-1.82.54s-1.1.99-1.48,1.89c-.38.9-.57,2.06-.57,3.47,0,2.28.45,4.25,1.36,5.91s2.1,2.48,3.59,2.48c1.11,0,2.02-.46,2.74-1.37s1.08-2.48,1.08-4.71c0-2.78-.6-4.97-1.8-6.57-.81-1.1-1.84-1.64-3.1-1.64Z"/>
  </g>
</svg>