<?xml version="1.0" encoding="UTF-8"?>
<svg id="Ebene_2" data-name="Ebene 2" xmlns="http://www.w3.org/2000/svg" viewBox="0 0 22.73 24.27">
  <defs>
    <style>
      .cls-1 {
        fill: #1d1d1b;
      }
    </style>
  </defs>
  <g id="Ebene_1-2" data-name="Ebene 1">
    <path class="cls-1" d="M11.59,0c3.01,0,5.62,1.14,7.83,3.43s3.31,5.14,3.31,8.57-1.11,6.45-3.34,8.78c-2.23,2.33-4.92,3.49-8.08,3.49s-5.88-1.13-8.05-3.41C1.09,18.59,0,15.66,0,12.05S1.25,5.36,3.77,3.03C5.95,1.01,8.55,0,11.59,0ZM11.26,1.25c-2.08,0-3.74.77-5,2.31-1.56,1.92-2.34,4.72-2.34,8.42s.81,6.7,2.43,8.75c1.24,1.55,2.89,2.33,4.93,2.33,2.18,0,3.98-.85,5.4-2.55,1.42-1.7,2.13-4.38,2.13-8.04,0-3.97-.78-6.93-2.35-8.88-1.25-1.55-2.99-2.33-5.2-2.33Z"/>
  </g>
</svg>