<?xml version="1.0" encoding="UTF-8"?>
<svg id="Ebene_2" data-name="Ebene 2" xmlns="http://www.w3.org/2000/svg" viewBox="0 0 16.45 23.64">
  <defs>
    <style>
      .cls-1 {
        fill: #1d1d1b;
      }
    </style>
  </defs>
  <g id="Ebene_1-2" data-name="Ebene 1">
    <path class="cls-1" d="M.09,2.02L4.91.07h.65v3.66c.81-1.38,1.62-2.35,2.44-2.9.82-.55,1.67-.83,2.58-.83,1.58,0,2.89.62,3.94,1.85,1.29,1.51,1.93,3.47,1.93,5.89,0,2.7-.78,4.94-2.33,6.71-1.28,1.45-2.89,2.17-4.83,2.17-.84,0-1.58-.12-2.19-.36-.46-.17-.97-.51-1.54-1.03v4.78c0,1.07.07,1.75.2,2.05s.36.52.68.69c.33.17.92.26,1.77.26v.63H0v-.63h.43c.63.01,1.16-.11,1.61-.36.22-.12.38-.33.5-.61s.18-.99.18-2.13V5.08c0-1.02-.05-1.66-.14-1.93-.09-.27-.24-.48-.44-.62-.2-.14-.47-.21-.81-.21-.27,0-.62.08-1.04.24l-.21-.55ZM5.56,4.74v5.85c0,1.27.05,2.1.15,2.5.16.66.55,1.24,1.17,1.75s1.41.75,2.35.75c1.14,0,2.07-.45,2.77-1.33.92-1.16,1.39-2.8,1.39-4.91,0-2.4-.52-4.24-1.57-5.53-.73-.89-1.6-1.33-2.6-1.33-.55,0-1.09.14-1.63.41-.41.21-1.09.82-2.04,1.85Z"/>
  </g>
</svg>