<?xml version="1.0" encoding="UTF-8"?>
<svg id="Ebene_2" data-name="Ebene 2" xmlns="http://www.w3.org/2000/svg" viewBox="0 0 17.68 23.21">
  <defs>
    <style>
      .cls-1 {
        fill: #1d1d1b;
      }
    </style>
  </defs>
  <g id="Ebene_1-2" data-name="Ebene 1">
    <path class="cls-1" d="M6.61,12.34v6.76c0,1.46.16,2.37.48,2.72.43.5,1.09.75,1.97.75h.89v.63H0v-.63h.87c.98,0,1.68-.32,2.11-.96.23-.35.34-1.19.34-2.52V4.11c0-1.46-.15-2.37-.46-2.72-.45-.5-1.11-.75-1.99-.75h-.87v-.63h8.51c2.08,0,3.71.21,4.91.64s2.21,1.15,3.03,2.17c.82,1.02,1.23,2.22,1.23,3.61,0,1.89-.62,3.43-1.88,4.62-1.25,1.19-3.01,1.78-5.3,1.78-.56,0-1.16-.04-1.81-.12-.65-.08-1.35-.2-2.09-.36ZM6.61,11.37c.6.11,1.14.2,1.61.26.47.06.87.09,1.2.09,1.19,0,2.21-.46,3.07-1.38.86-.92,1.29-2.11,1.29-3.57,0-1-.21-1.94-.62-2.8-.41-.86-.99-1.51-1.75-1.93-.75-.43-1.61-.64-2.57-.64-.58,0-1.33.11-2.24.33v9.65Z"/>
  </g>
</svg>