<?xml version="1.0" encoding="UTF-8"?>
<svg id="Ebene_2" data-name="Ebene 2" xmlns="http://www.w3.org/2000/svg" viewBox="0 0 16.36 23.64">
  <defs>
    <style>
      .cls-1 {
        fill: #1d1d1b;
      }
    </style>
  </defs>
  <g id="Ebene_1-2" data-name="Ebene 1">
    <path class="cls-1" d="M13.81,0v20.16c0,1,.07,1.65.21,1.93.14.28.35.51.64.67s.86.24,1.7.24v.63h-7.91v-.63h.33c.64,0,1.12-.09,1.46-.27.23-.13.41-.35.55-.68s.21-.96.21-1.89v-6.74c-1.04,1.23-1.95,2.07-2.72,2.52-.78.45-1.58.68-2.41.68-1.52,0-2.87-.69-4.07-2.07s-1.79-3.23-1.79-5.55c0-2.66.79-4.82,2.36-6.5C3.94.84,5.84,0,8.06,0c.65,0,1.25.09,1.8.27s1.04.46,1.47.82c.66-.32,1.29-.68,1.9-1.09h.58ZM10.99,12.34v-7.36c0-.86-.11-1.53-.33-2.02s-.62-.91-1.19-1.25c-.57-.34-1.22-.51-1.93-.51-1.28,0-2.37.54-3.29,1.63-.91,1.08-1.37,2.73-1.37,4.93s.46,3.71,1.4,4.81c.93,1.1,2.05,1.64,3.36,1.64.67,0,1.27-.15,1.8-.44.53-.29,1.04-.77,1.56-1.43Z"/>
  </g>
</svg>