<?xml version="1.0" encoding="UTF-8"?>
<svg id="Ebene_2" data-name="Ebene 2" xmlns="http://www.w3.org/2000/svg" viewBox="0 0 22.75 30.6">
  <defs>
    <style>
      .cls-1 {
        fill: #1d1d1b;
      }
    </style>
  </defs>
  <g id="Ebene_1-2" data-name="Ebene 1">
    <path class="cls-1" d="M14.21,24c1.16,2.01,2.42,3.49,3.77,4.43,1.35.95,2.89,1.49,4.61,1.63v.55c-1.57-.06-3.26-.37-5.05-.95-1.79-.58-3.49-1.38-5.09-2.4-1.6-1.02-2.99-2.11-4.15-3.26-1.64-.66-2.94-1.36-3.9-2.11-1.39-1.11-2.47-2.47-3.24-4.08-.77-1.62-1.16-3.52-1.16-5.73,0-3.47,1.12-6.35,3.37-8.64C5.62,1.15,8.34,0,11.54,0s5.66,1.15,7.88,3.45c2.22,2.3,3.33,5.2,3.33,8.7,0,2.84-.79,5.33-2.37,7.48-1.58,2.15-3.64,3.6-6.17,4.37ZM11.33,1.32c-2.08,0-3.75.74-5.01,2.23-1.6,1.86-2.4,4.71-2.4,8.54s.81,6.65,2.43,8.68c1.25,1.56,2.92,2.34,4.98,2.34s3.87-.78,5.19-2.34c1.54-1.85,2.31-4.58,2.31-8.18,0-2.77-.42-5.11-1.27-7-.65-1.46-1.51-2.54-2.59-3.23-1.08-.69-2.29-1.04-3.64-1.04Z"/>
  </g>
</svg>