<?xml version="1.0" encoding="UTF-8"?>
<svg id="Ebene_2" data-name="Ebene 2" xmlns="http://www.w3.org/2000/svg" viewBox="0 0 11.67 16.14">
  <defs>
    <style>
      .cls-1 {
        fill: #1d1d1b;
      }
    </style>
  </defs>
  <g id="Ebene_1-2" data-name="Ebene 1">
    <path class="cls-1" d="M5.46,0v3.53c1.31-2.35,2.66-3.53,4.04-3.53.63,0,1.15.19,1.56.57.41.38.62.82.62,1.33,0,.45-.15.82-.45,1.13-.3.31-.65.46-1.06.46s-.85-.2-1.34-.59c-.5-.39-.86-.59-1.1-.59-.21,0-.43.11-.67.34-.51.47-1.04,1.24-1.59,2.31v7.51c0,.87.11,1.52.33,1.97.15.31.41.56.79.77.38.21.92.31,1.63.31v.62H.17v-.62c.8,0,1.39-.12,1.78-.38.29-.18.48-.47.6-.87.06-.19.09-.75.09-1.66v-6.08c0-1.83-.04-2.91-.11-3.26-.07-.35-.21-.6-.41-.76-.2-.16-.45-.24-.74-.24-.35,0-.75.08-1.2.26l-.17-.62L4.74,0h.72Z"/>
  </g>
</svg>