<?xml version="1.0" encoding="UTF-8"?>
<svg id="Ebene_2" data-name="Ebene 2" xmlns="http://www.w3.org/2000/svg" viewBox="0 0 23.09 23.21">
  <defs>
    <style>
      .cls-1 {
        fill: #1d1d1b;
      }
    </style>
  </defs>
  <g id="Ebene_1-2" data-name="Ebene 1">
    <path class="cls-1" d="M23.09,23.21h-6.2l-7.86-10.85c-.58.02-1.06.03-1.42.03-.15,0-.31,0-.48,0-.17,0-.35-.01-.53-.03v6.74c0,1.46.16,2.37.48,2.72.43.5,1.08.75,1.95.75h.91v.63H0v-.63h.87c.98,0,1.68-.32,2.11-.96.24-.35.36-1.19.36-2.52V4.11c0-1.46-.16-2.37-.48-2.72-.45-.5-1.11-.75-1.99-.75h-.87v-.63h8.46c2.46,0,4.28.18,5.45.54,1.17.36,2.16,1.02,2.98,1.99.82.96,1.22,2.11,1.22,3.45,0,1.43-.46,2.66-1.39,3.71-.93,1.05-2.37,1.79-4.32,2.23l4.79,6.66c1.1,1.53,2.04,2.54,2.82,3.05s1.81.82,3.08.96v.63ZM6.61,11.28c.22,0,.41,0,.56,0,.16,0,.29,0,.39,0,2.21,0,3.88-.48,5.01-1.44,1.12-.96,1.69-2.18,1.69-3.66s-.45-2.63-1.36-3.54-2.11-1.36-3.6-1.36c-.66,0-1.56.11-2.69.33v9.65Z"/>
  </g>
</svg>