<?xml version="1.0" encoding="UTF-8"?>
<svg id="Ebene_2" data-name="Ebene 2" xmlns="http://www.w3.org/2000/svg" viewBox="0 0 10.7 16.62">
  <defs>
    <style>
      .cls-1 {
        fill: #1d1d1b;
      }
    </style>
  </defs>
  <g id="Ebene_1-2" data-name="Ebene 1">
    <path class="cls-1" d="M9.52,0v5.34h-.56c-.43-1.68-.99-2.82-1.67-3.42-.68-.6-1.54-.91-2.59-.91-.8,0-1.44.21-1.93.63-.49.42-.74.89-.74,1.4,0,.64.18,1.19.55,1.64.35.47,1.07.96,2.16,1.49l2.5,1.22c2.32,1.13,3.47,2.62,3.47,4.47,0,1.43-.54,2.58-1.62,3.45s-2.29,1.31-3.62,1.31c-.96,0-2.05-.17-3.29-.51-.38-.11-.68-.17-.92-.17-.26,0-.47.15-.62.44H.07v-5.6h.56c.32,1.6.93,2.8,1.83,3.61.9.81,1.91,1.22,3.03,1.22.79,0,1.43-.23,1.93-.69s.74-1.02.74-1.67c0-.79-.28-1.45-.83-1.99s-1.66-1.22-3.31-2.04c-1.66-.82-2.74-1.56-3.25-2.23-.51-.65-.77-1.47-.77-2.46,0-1.29.44-2.37,1.33-3.23S3.35,0,4.76,0c.62,0,1.36.13,2.24.39.58.17.97.26,1.16.26.18,0,.33-.04.43-.12.1-.08.22-.26.36-.53h.56Z"/>
  </g>
</svg>