<?xml version="1.0" encoding="UTF-8"?>
<svg id="Ebene_2" data-name="Ebene 2" xmlns="http://www.w3.org/2000/svg" viewBox="0 0 15.42 24.27">
  <defs>
    <style>
      .cls-1 {
        fill: #1d1d1b;
      }
    </style>
  </defs>
  <g id="Ebene_1-2" data-name="Ebene 1">
    <path class="cls-1" d="M13.88,0v8.03h-.63c-.21-1.54-.57-2.77-1.1-3.68-.53-.91-1.29-1.64-2.27-2.17-.98-.54-2-.8-3.05-.8-1.19,0-2.17.36-2.94,1.09s-1.16,1.55-1.16,2.47c0,.71.25,1.35.74,1.93.71.86,2.39,2,5.05,3.42,2.17,1.16,3.65,2.06,4.44,2.68s1.4,1.35,1.83,2.2c.43.84.64,1.73.64,2.65,0,1.76-.68,3.27-2.05,4.54s-3.12,1.91-5.26,1.91c-.67,0-1.31-.05-1.9-.15-.35-.06-1.09-.27-2.2-.62-1.11-.36-1.82-.54-2.11-.54s-.51.08-.68.26c-.17.17-.29.52-.37,1.06H.22v-7.96h.63c.3,1.67.7,2.91,1.2,3.74.5.83,1.27,1.51,2.3,2.06,1.03.55,2.17.82,3.4.82,1.43,0,2.55-.38,3.38-1.13.83-.75,1.24-1.64,1.24-2.67,0-.57-.16-1.15-.47-1.73-.31-.58-.8-1.12-1.46-1.63-.44-.34-1.66-1.07-3.65-2.18s-3.4-2-4.24-2.66c-.84-.66-1.48-1.39-1.91-2.19-.43-.8-.65-1.68-.65-2.64,0-1.67.64-3.1,1.92-4.3C3.19.6,4.82,0,6.79,0c1.23,0,2.54.3,3.92.91.64.29,1.09.43,1.35.43.3,0,.54-.09.73-.27s.34-.53.45-1.07h.63Z"/>
  </g>
</svg>