<?xml version="1.0" encoding="UTF-8"?>
<svg id="Ebene_2" data-name="Ebene 2" xmlns="http://www.w3.org/2000/svg" viewBox="0 0 9.45 21.09">
  <defs>
    <style>
      .cls-1 {
        fill: #1d1d1b;
      }
    </style>
  </defs>
  <g id="Ebene_1-2" data-name="Ebene 1">
    <path class="cls-1" d="M5.31,0v5.15h3.66v1.2h-3.66v10.17c0,1.02.15,1.7.44,2.05.29.35.67.53,1.12.53.38,0,.74-.12,1.1-.35.35-.23.63-.58.82-1.04h.67c-.4,1.12-.96,1.96-1.7,2.52-.73.57-1.48.85-2.26.85-.53,0-1.04-.15-1.54-.44s-.87-.71-1.11-1.25c-.24-.54-.36-1.38-.36-2.51V6.35H0v-.57c.63-.25,1.27-.68,1.92-1.27.66-.6,1.24-1.31,1.75-2.13.26-.43.63-1.23,1.1-2.38h.53Z"/>
  </g>
</svg>