<?xml version="1.0" encoding="UTF-8"?>
<svg id="Ebene_2" data-name="Ebene 2" xmlns="http://www.w3.org/2000/svg" viewBox="0 0 19.48 23.21">
  <defs>
    <style>
      .cls-1 {
        fill: #1d1d1b;
      }
    </style>
  </defs>
  <g id="Ebene_1-2" data-name="Ebene 1">
    <path class="cls-1" d="M19.22,0l.26,5.44h-.65c-.13-.96-.3-1.64-.51-2.05-.35-.66-.82-1.15-1.41-1.46-.59-.31-1.36-.47-2.32-.47h-3.27v17.73c0,1.43.15,2.32.46,2.67.43.48,1.1.72,2,.72h.8v.63H4.74v-.63h.82c.98,0,1.68-.3,2.09-.89.25-.37.38-1.2.38-2.5V1.46h-2.79c-1.08,0-1.85.08-2.31.24-.59.22-1.1.63-1.52,1.25s-.67,1.45-.75,2.5h-.65L.27,0h18.95Z"/>
  </g>
</svg>