<?xml version="1.0" encoding="UTF-8"?>
<svg id="Ebene_2" data-name="Ebene 2" xmlns="http://www.w3.org/2000/svg" viewBox="0 0 17.44 16.16">
  <defs>
    <style>
      .cls-1 {
        fill: #1d1d1b;
      }
    </style>
  </defs>
  <g id="Ebene_1-2" data-name="Ebene 1">
    <path class="cls-1" d="M14.81,0v9.5c0,1.81.04,2.92.13,3.33.08.41.22.69.41.85.19.16.41.24.66.24.35,0,.75-.1,1.2-.29l.24.6-4.69,1.93h-.77v-3.32c-1.35,1.46-2.37,2.38-3.08,2.76-.71.38-1.46.57-2.24.57-.88,0-1.64-.25-2.29-.76s-1.09-1.16-1.34-1.96-.38-1.93-.38-3.39V3.05c0-.74-.08-1.25-.24-1.54-.16-.29-.4-.5-.71-.66-.31-.15-.88-.23-1.7-.21v-.63h5.49v10.49c0,1.46.25,2.42.76,2.88s1.12.68,1.84.68c.49,0,1.05-.15,1.67-.46.62-.31,1.36-.9,2.22-1.76V2.94c0-.89-.16-1.49-.49-1.81-.33-.31-1-.48-2.03-.5v-.63h5.34Z"/>
  </g>
</svg>