<?xml version="1.0" encoding="UTF-8"?>
<svg id="Ebene_2" data-name="Ebene 2" xmlns="http://www.w3.org/2000/svg" viewBox="0 0 24.75 23.76">
  <defs>
    <style>
      .cls-1 {
        fill: #1d1d1b;
      }
    </style>
  </defs>
  <g id="Ebene_1-2" data-name="Ebene 1">
    <path class="cls-1" d="M16.53.63v-.63h8.22v.63h-.87c-.91,0-1.62.38-2.11,1.15-.24.35-.36,1.17-.36,2.46v9.41c0,2.33-.23,4.13-.69,5.42-.46,1.28-1.37,2.38-2.72,3.3-1.35.92-3.19,1.38-5.52,1.38-2.53,0-4.46-.44-5.77-1.32-1.31-.88-2.24-2.06-2.79-3.54-.37-1.02-.55-2.92-.55-5.72V4.11c0-1.43-.2-2.36-.59-2.81S1.75.63.87.63h-.87v-.63h10.03v.63h-.89c-.96,0-1.64.3-2.05.91-.29.41-.43,1.27-.43,2.57v10.12c0,.9.08,1.93.25,3.1.17,1.16.46,2.07.9,2.72s1.06,1.19,1.88,1.61c.82.42,1.82.63,3,.63,1.52,0,2.88-.33,4.07-.99s2.02-1.51,2.46-2.54c.44-1.03.66-2.78.66-5.25V4.11c0-1.45-.16-2.36-.48-2.72-.44-.5-1.11-.75-1.99-.75h-.87Z"/>
  </g>
</svg>