<?xml version="1.0" encoding="UTF-8"?>
<svg id="Ebene_2" data-name="Ebene 2" xmlns="http://www.w3.org/2000/svg" viewBox="0 0 16.91 16.16">
  <defs>
    <style>
      .cls-1 {
        fill: #1d1d1b;
      }
    </style>
  </defs>
  <g id="Ebene_1-2" data-name="Ebene 1">
    <path class="cls-1" d="M0,0h7.38v.63h-.48c-.45,0-.79.11-1.02.33-.23.22-.35.51-.35.87,0,.4.12.87.36,1.42l3.65,8.66,3.66-8.99c.26-.64.39-1.12.39-1.46,0-.16-.05-.29-.14-.39-.12-.17-.29-.29-.48-.35-.19-.06-.59-.09-1.18-.09v-.63h5.12v.63c-.59.05-1,.17-1.23.36-.4.34-.76.91-1.08,1.71l-5.56,13.45h-.7L2.74,2.93c-.25-.62-.49-1.06-.72-1.33-.23-.27-.52-.49-.87-.68-.19-.1-.58-.2-1.15-.29v-.63Z"/>
  </g>
</svg>