<?xml version="1.0" encoding="UTF-8"?>
<svg id="Ebene_2" data-name="Ebene 2" xmlns="http://www.w3.org/2000/svg" viewBox="0 0 24.58 23.74">
  <defs>
    <style>
      .cls-1 {
        fill: #1d1d1b;
      }
    </style>
  </defs>
  <g id="Ebene_1-2" data-name="Ebene 1">
    <path class="cls-1" d="M24.58,0v.63c-.82.15-1.44.41-1.87.79-.6.56-1.14,1.42-1.61,2.57l-8.1,19.75h-.63L3.68,3.73c-.45-1.03-.76-1.65-.94-1.88-.29-.35-.64-.63-1.05-.83-.42-.2-.98-.33-1.69-.39v-.63h9.48v.63c-1.07.1-1.77.29-2.09.55-.32.26-.48.6-.48,1.01,0,.57.26,1.46.79,2.67l5.91,13.61,5.48-13.44c.54-1.32.8-2.24.8-2.76,0-.33-.17-.65-.5-.95-.33-.3-.89-.52-1.68-.64-.06-.01-.15-.03-.29-.05v-.63h7.16Z"/>
  </g>
</svg>