<?xml version="1.0" encoding="UTF-8"?>
<svg id="Ebene_2" data-name="Ebene 2" xmlns="http://www.w3.org/2000/svg" viewBox="0 0 24.77 16.16">
  <defs>
    <style>
      .cls-1 {
        fill: #1d1d1b;
      }
    </style>
  </defs>
  <g id="Ebene_1-2" data-name="Ebene 1">
    <path class="cls-1" d="M0,0h6.57v.63c-.6.05-1,.15-1.19.33-.19.17-.28.42-.28.74,0,.35.1.78.29,1.28l3.35,9.02,3.37-7.34-.89-2.31c-.27-.68-.63-1.16-1.08-1.42-.25-.16-.72-.26-1.4-.29v-.63h7.46v.63c-.82.03-1.4.18-1.75.45-.23.18-.34.47-.34.87,0,.23.05.46.14.7l3.56,9,3.3-8.68c.23-.62.34-1.11.34-1.47,0-.22-.11-.41-.33-.58-.22-.17-.66-.27-1.31-.29v-.63h4.95v.63c-.99.15-1.72.82-2.19,2.02l-5.24,13.5h-.7l-3.92-10.01-4.57,10.01h-.63L2.48,2.98c-.33-.83-.66-1.4-.98-1.69S.68.78,0,.63v-.63Z"/>
  </g>
</svg>