<?xml version="1.0" encoding="UTF-8"?>
<svg id="Ebene_2" data-name="Ebene 2" xmlns="http://www.w3.org/2000/svg" viewBox="0 0 32.35 23.74">
  <defs>
    <style>
      .cls-1 {
        fill: #1d1d1b;
      }
    </style>
  </defs>
  <g id="Ebene_1-2" data-name="Ebene 1">
    <path class="cls-1" d="M32.35,0v.63c-.6,0-1.1.11-1.47.33-.38.22-.74.62-1.08,1.22-.23.4-.59,1.35-1.08,2.86l-6.47,18.71h-.68l-5.29-14.84-5.25,14.84h-.62L3.51,4.47c-.51-1.44-.84-2.29-.98-2.55-.23-.43-.54-.76-.93-.97s-.93-.32-1.6-.32v-.63h8.59v.63h-.41c-.6,0-1.07.14-1.39.41-.32.27-.48.61-.48.99s.25,1.32.75,2.76l4.57,13.03,3.85-11.07-.69-1.95-.55-1.56c-.24-.57-.51-1.07-.8-1.51-.15-.22-.33-.4-.55-.55-.29-.21-.57-.35-.86-.44-.22-.07-.56-.1-1.03-.1v-.63h9.04v.63h-.62c-.64,0-1.11.14-1.4.41s-.45.64-.45,1.11c0,.58.26,1.6.77,3.05l4.45,12.62,4.42-12.79c.5-1.42.75-2.4.75-2.94,0-.26-.08-.51-.25-.74-.17-.23-.37-.39-.62-.48-.43-.16-1-.24-1.7-.24v-.63h6.93Z"/>
  </g>
</svg>