<?xml version="1.0" encoding="UTF-8"?>
<svg id="Ebene_2" data-name="Ebene 2" xmlns="http://www.w3.org/2000/svg" viewBox="0 0 16.64 15.68">
  <defs>
    <style>
      .cls-1 {
        fill: #1d1d1b;
      }
    </style>
  </defs>
  <g id="Ebene_1-2" data-name="Ebene 1">
    <path class="cls-1" d="M0,0h7.38v.63c-.47,0-.8.08-.98.24s-.28.37-.28.63.2.7.6,1.27c.12.18.31.47.56.86l1.11,1.78,1.28-1.78c.82-1.13,1.23-1.84,1.23-2.14,0-.24-.1-.44-.29-.61-.19-.17-.51-.25-.94-.25v-.63h5.31v.63c-.56.03-1.04.19-1.46.46-.56.39-1.32,1.23-2.29,2.53l-2.14,2.86,3.9,5.61c.96,1.38,1.64,2.21,2.05,2.49.41.28.94.44,1.59.47v.62h-7.39v-.62c.51,0,.91-.11,1.2-.34.22-.16.33-.37.33-.63s-.37-.92-1.1-1.99l-2.29-3.36-2.52,3.36c-.78,1.04-1.16,1.65-1.16,1.85,0,.27.13.52.39.74.26.22.64.35,1.16.37v.62H.12v-.62c.41-.06.77-.2,1.08-.43.43-.33,1.16-1.18,2.19-2.53l3.29-4.37L3.7,3.42c-.84-1.23-1.5-2-1.96-2.32-.46-.31-1.04-.47-1.74-.47v-.63Z"/>
  </g>
</svg>