<?xml version="1.0" encoding="UTF-8"?>
<svg id="Ebene_2" data-name="Ebene 2" xmlns="http://www.w3.org/2000/svg" viewBox="0 0 24.65 23.21">
  <defs>
    <style>
      .cls-1 {
        fill: #1d1d1b;
      }
    </style>
  </defs>
  <g id="Ebene_1-2" data-name="Ebene 1">
    <path class="cls-1" d="M14.05,10.36l4.98,7.43c1.38,2.05,2.41,3.35,3.07,3.89.67.54,1.51.84,2.54.9v.63h-9.96v-.63c.66-.01,1.15-.08,1.47-.21.24-.1.44-.26.59-.47.15-.21.23-.42.23-.64,0-.26-.05-.52-.15-.79-.08-.19-.39-.7-.94-1.51l-3.94-5.96-4.86,6.23c-.51.66-.82,1.1-.92,1.33s-.15.45-.15.69c0,.37.15.67.46.91.31.24.9.38,1.76.41v.63H0v-.63c.58-.06,1.08-.18,1.51-.36.71-.3,1.38-.7,2.02-1.2.64-.5,1.37-1.27,2.19-2.31l5.48-6.92-4.57-6.69c-1.24-1.81-2.3-3-3.17-3.57C2.59.97,1.59.67.46.63v-.63h10.73v.63c-.91.03-1.54.18-1.87.45-.34.26-.5.55-.5.87,0,.42.27,1.04.82,1.85l3.56,5.32,4.12-5.22c.48-.62.77-1.04.88-1.27s.16-.46.16-.7-.07-.45-.21-.63c-.17-.24-.39-.41-.65-.5s-.8-.15-1.63-.16v-.63h8.23v.63c-.65.03-1.18.14-1.59.31-.62.26-1.18.62-1.69,1.06-.51.44-1.24,1.27-2.17,2.46l-4.6,5.89Z"/>
  </g>
</svg>