<?xml version="1.0" encoding="UTF-8"?>
<svg id="Ebene_2" data-name="Ebene 2" xmlns="http://www.w3.org/2000/svg" viewBox="0 0 17.12 23.24">
  <defs>
    <style>
      .cls-1 {
        fill: #1d1d1b;
      }
    </style>
  </defs>
  <g id="Ebene_1-2" data-name="Ebene 1">
    <path class="cls-1" d="M0,0h7.31v.63h-.36c-.51,0-.9.11-1.16.33s-.38.5-.38.83c0,.45.19,1.06.56,1.85l3.82,7.91,3.51-8.66c.19-.47.29-.93.29-1.39,0-.21-.04-.36-.12-.46-.09-.12-.23-.23-.43-.3s-.54-.11-1.03-.11v-.63h5.1v.63c-.42.05-.75.14-.98.27-.23.14-.48.39-.75.77-.1.16-.3.6-.58,1.32l-6.38,15.64c-.62,1.52-1.42,2.66-2.42,3.44-1,.78-1.96,1.16-2.88,1.16-.67,0-1.23-.19-1.66-.58s-.65-.83-.65-1.33.16-.86.47-1.16.75-.44,1.29-.44c.38,0,.89.12,1.54.38.46.17.74.26.86.26.34,0,.72-.18,1.12-.53s.81-1.04,1.22-2.05l1.11-2.72L2.79,3.24c-.17-.35-.44-.79-.82-1.32-.29-.4-.52-.67-.7-.8-.26-.18-.68-.34-1.27-.48v-.63Z"/>
  </g>
</svg>