<?xml version="1.0" encoding="UTF-8"?>
<svg id="Ebene_2" data-name="Ebene 2" xmlns="http://www.w3.org/2000/svg" viewBox="0 0 24.48 23.21">
  <defs>
    <style>
      .cls-1 {
        fill: #1d1d1b;
      }
    </style>
  </defs>
  <g id="Ebene_1-2" data-name="Ebene 1">
    <path class="cls-1" d="M16.38,0h8.1v.63h-.45c-.3,0-.73.13-1.3.39-.57.26-1.09.64-1.56,1.13-.47.49-1.04,1.29-1.73,2.4l-5.6,8.82v5.82c0,1.43.16,2.32.48,2.67.43.48,1.12.72,2.05.72h.75v.63H7.27v-.63h.82c.98,0,1.68-.3,2.09-.89.25-.37.38-1.2.38-2.5v-5.49L4.19,3.97c-.75-1.14-1.26-1.85-1.53-2.14-.27-.29-.83-.63-1.67-1.03-.23-.11-.56-.17-.99-.17v-.63h9.93v.63h-.51c-.54,0-1.03.13-1.48.38-.45.25-.68.63-.68,1.13,0,.41.35,1.15,1.04,2.22l4.84,7.48,4.55-7.16c.68-1.07,1.03-1.87,1.03-2.4,0-.32-.08-.61-.25-.86-.17-.25-.4-.45-.71-.59-.31-.14-.77-.21-1.39-.21v-.63Z"/>
  </g>
</svg>