<?xml version="1.0" encoding="UTF-8"?>
<svg id="Ebene_2" data-name="Ebene 2" xmlns="http://www.w3.org/2000/svg" viewBox="0 0 15.8 24.56">
  <defs>
    <style>
      .cls-1 {
        fill: #1d1d1b;
      }
    </style>
  </defs>
  <g id="Ebene_1-2" data-name="Ebene 1">
    <path class="cls-1" d="M0,24.34v-.62c.69-.06,1.17-.18,1.46-.36s.5-.44.62-.76.18-1.03.18-2.11V7.81c0-2.84.53-4.86,1.59-6.04,1.06-1.17,2.57-1.76,4.52-1.76,1.85,0,3.32.52,4.4,1.57s1.63,2.38,1.63,4c0,1.21-.31,2.24-.92,3.08-.46.62-1.24,1.16-2.35,1.64,1.54.46,2.71,1.25,3.49,2.38.79,1.13,1.18,2.61,1.18,4.45,0,1.99-.52,3.72-1.56,5.21-1.04,1.49-2.43,2.23-4.18,2.23-.99,0-1.79-.27-2.39-.82-.6-.55-.9-1.2-.9-1.95,0-.48.12-.85.37-1.1s.57-.38.98-.38c.45,0,.79.12,1.04.37s.37.57.37.98c0,.18-.02.37-.07.57-.07.27-.1.47-.1.6,0,.21.09.39.26.55s.4.24.7.24c.69,0,1.25-.3,1.7-.91.58-.8.87-2.03.87-3.7,0-2.37-.42-4.26-1.26-5.65-.84-1.39-2.1-2.14-3.79-2.26v-.98c1.21,0,2.12-.36,2.75-1.07.62-.71.93-1.9.93-3.57,0-1.53-.3-2.64-.9-3.32-.6-.68-1.39-1.03-2.39-1.03-.92,0-1.68.37-2.26,1.1-.58.73-.87,2.18-.87,4.36v17.75H0Z"/>
  </g>
</svg>