<?xml version="1.0" encoding="UTF-8"?>
<svg id="Ebene_2" data-name="Ebene 2" xmlns="http://www.w3.org/2000/svg" viewBox="0 0 38.62 27.41">
  <g id="Ebene_1-2" data-name="Ebene 1">
    <path d="M38.62,14.24c-.87,1.34-1.98,2.27-3.38,3.22-3.35-3.87-7.92-5.18-12.9-4.47-1.93.28-3.61.51-5.44,1.18-5.77,2.12-11,5.33-14.83,10.2-.81,1.03-.39,2.62-2.08,3.04.37-1.73,1.34-3.27,1.97-4.81,1.73-4.24,4.43-7.5,7.58-10.7,3.68-3.74,7.65-6.59,12.63-8.44S32.53-.24,38.3.03c-.69,1.24-1.94,2.95-3.3,3.17-3.88.6-7.6,1.05-11.45,2.23-1.83.56-3.66,1.81-5.54,2.55-3.78,1.5-6.76,4-9.38,6.99-.77.88-1.62,1.62-2.1,2.68,7.24-6.61,24.63-13.49,32.09-3.4Z"/>
  </g>
</svg>