<?xml version="1.0" encoding="UTF-8"?>
<svg id="Ebene_2" data-name="Ebene 2" xmlns="http://www.w3.org/2000/svg" viewBox="0 0 31.15 17.4">
  <g id="Ebene_1-2" data-name="Ebene 1">
    <path d="M28.86,11.93c-1.77,1.07-9.73,5.44-11.86,5.47l8.17-4.37c1.42-.76,1.9-2.4,1.53-3.8-.32-1.2-1.67-2.22-3.32-2.39-6.31-.63-19.02,9.55-22.54,6.41-2.33-2.08.63-6.15,3.3-7.98C7.42,3.03,10.93,1.15,14.78,0c-2.85,2.08-6.01,2.69-8.53,4.92-1.04.92-2.85,3.58-1.91,4.99,2.48,3.72,13.72-4.86,22.16-5.78,2.07-.23,3.98,1.08,4.47,2.75.62,2.13-.29,3.94-2.09,5.04Z"/>
  </g>
</svg>