<?xml version="1.0" encoding="UTF-8"?>
<svg id="Ebene_2" data-name="Ebene 2" xmlns="http://www.w3.org/2000/svg" viewBox="0 0 88.36 25.29">
  <g id="Ebene_1-2" data-name="Ebene 1">
    <path d="M62.46,10.21c4.16-.67,8.17-.89,12.25-1.26,2.71-.24,5.2-.83,7.6-2.08.65-.34,1.71-1.37,1.4-2.08-2.43-5.7-15.41-2.03-20.11.16l-18.36,8.55c-2.07.96-5.79,2.42-7.58,1.17-.55-.38-1.03-1.52-.62-2.26,2.75-4.94,15.63-8.2,21-9.64,1.5-.4,3.08-.87,4.62-.3-4.93.69-19.63,4.14-21.4,8.73-.43,1.12,1.38,1.61,2.28,1.47,2.88-.47,5.47-1.65,8.18-2.88,6.08-2.77,11.88-5.7,18.25-7.84,4.48-1.5,16.21-4.25,18.3,1.71.36,1.02-.68,2.08-1.56,2.6-9.45,5.57-25.36,2.61-33.71,7.15-4.12,2.24-7.8,5.09-12.32,6.55-5.48,1.77-10.68.61-15.92-1.28s-10.56-1.76-15.51.32c-3.56,1.5-6.1,4.32-9.27,6.27,3.08-3.67,7.05-6.28,11.13-8.35,3.18-1.61,6.73-2.09,10.25-2.25s6.43,1.1,9.63,2.19c4.25,1.45,9.07,2.15,13.41.57,2.21-.8,7.31-5.52,12-6.27l6.03-.97Z"/>
  </g>
</svg>