<?xml version="1.0" encoding="UTF-8"?>
<svg id="Ebene_2" data-name="Ebene 2" xmlns="http://www.w3.org/2000/svg" viewBox="0 0 26.87 29.46">
  <g id="Ebene_1-2" data-name="Ebene 1">
    <path d="M18.83,24.9c-.91.65-8.33,6.72-8.75,3.74-.36-2.56,2.24-3.41,4.17-4.43,1.16-.62,3.04-1.37,3.81.3,2.33-1.04,6.92-5.61,3.96-8.07-2.08-1.72-7.44,1.74-9.45,3.58-1.33,1.23-3.06,2.28-4.58,3.3-1.61,1.08-3.35,1.4-5.03.55C-1.21,21.77-.16,15.71,1.22,12.85,3.77,7.52,7.86,2.1,13.65,0,9.34,3.46,3.83,9.45,3.79,15.13c-.02,2,.44,3.92,2.03,4.82,1.82,1.03,3.78,1.08,5.48-.16l3.28-2.38c2.25-1.63,7.24-6.18,10.38-4.8.74.33,1.88,1.54,1.91,2.57.14,4.55-4.75,7.36-8.04,9.73Z"/>
  </g>
</svg>