<?xml version="1.0" encoding="UTF-8"?>
<svg id="Ebene_2" data-name="Ebene 2" xmlns="http://www.w3.org/2000/svg" viewBox="0 0 216.23 128.78">
  <g id="Ebene_1-2" data-name="Ebene 1">
    <path d="M171.76,40.89c14.22,1.32,22.7.36,37.25-1.79,7.1-1.09,8.33-3.07,6.41-5-2.9-2.72-8.86,1.28-12.4,1.65-12.68.92-25.04,2.22-37.78-.01-20.3-3.64-41.46-5.6-62.77-5.83-25.86-.3-51.42,7.47-58.8,11.68-9.22,5.09-36.37,22.51-38.63,46.78-2.71,29.13,22.06,37.38,53.28,40.28,24.28,2.26,57.54-24.39,60.02-51.09,2.77-29.83,11.49-70.99-53.36-77.02C.12-5.49,1.76,40.84.18,57.83c-2.29,24.62,17.47,45.35,46.61,48.06,22.54,2.09,50.56-20.84,52.3-39.57,2.51-27.05-5.71-47.76-34.15-50.4-32.95-3.06-43.25,21.17-45.2,34.63-1.95,13.46,6.43,32.43,26.3,33.23s25.16-10.96,26.15-21.71-3.08-19.53-18.66-21.32-21.21,9.92-22.02,18.59,5.53,12.06,13.16,12.77,12.49-2.69,13.01-8.24c.52-5.55-3.51-11.17-8.36-11.62-2.77-.26-5.99.49-6.25,3.27-.32,3.47,1.38,3.98,2.77,4.11,1.73.16,2.56-1.16,2.69-2.55.23-2.43,6.08,2.31,5.76,5.78s-1.97,6.11-8.56,5.5-10.61-6.23-10.26-10.05,4.19-15,21.19-13.42c14.22,1.32,9.74,15.6,9.29,20.45-.61,6.59-9.02,14.2-19.42,13.24s-25.08-8.63-22.8-29.4c2.38-21.82,26.61-30.41,39.45-29.22,5.55.52,34.46,1.8,30.73,42.03-2.84,30.52-35.02,38.02-45.77,37.02-10.75-1-47.22-7.54-43.45-48.11C8.44,10.33,45.07,3.93,65.18,5.8c20.12,1.87,54.39,5.75,49.16,61.94-3.9,41.97-41.81,58.38-56.72,57-17.69-1.64-50.85-6.12-47.76-39.42.35-3.82.82-16.36,22.07-30.48,17.53-11.66,36.28-21.47,69.1-20.86,32.83.6,61.35,6.05,70.72,6.92Z"/>
  </g>
</svg>