<?xml version="1.0" encoding="UTF-8"?>
<svg id="Ebene_2" data-name="Ebene 2" xmlns="http://www.w3.org/2000/svg" viewBox="0 0 32.25 14.66">
  <g id="Ebene_1-2" data-name="Ebene 1">
    <g>
      <path d="M5.48,14.66c.2-2.9,5.29-6.52,2.09-10.42-.99-1.21-2.62-1.34-4.28-1.14-1.17.14-2.22,1.24-3.3,2.51.33-1.55,1.17-3.45,2.38-4.48C3.78-.05,5.58-.02,6.99.01s3.02.79,3.58,2.08c.62,1.45-.23,6.07-5.09,12.57Z"/>
      <path d="M16.23,14.66c.2-2.9,5.29-6.52,2.09-10.42-.99-1.21-2.62-1.34-4.28-1.14-1.17.14-2.22,1.24-3.3,2.51.33-1.55,1.17-3.45,2.38-4.48C14.53-.05,16.33-.02,17.74.01s3.02.79,3.58,2.08c.62,1.45-.23,6.07-5.09,12.57Z"/>
      <path d="M26.98,14.66c.2-2.9,5.29-6.52,2.09-10.42-.99-1.21-2.62-1.34-4.28-1.14-1.17.14-2.22,1.24-3.3,2.51.33-1.55,1.17-3.45,2.38-4.48C25.28-.05,27.08-.02,28.49.01s3.02.79,3.58,2.08c.62,1.45-.23,6.07-5.09,12.57Z"/>
    </g>
  </g>
</svg>