<?xml version="1.0" encoding="UTF-8"?>
<svg id="Ebene_2" data-name="Ebene 2" xmlns="http://www.w3.org/2000/svg" viewBox="0 0 100.87 56.14">
  <g id="Ebene_1-2" data-name="Ebene 1">
    <path d="M51.81,30.77c10.16,8.27,19.76,14.49,33.51,11.02,5.92-1.49,10.02-5.71,15.56-9.39-6.12,8.1-19.69,18.19-30.9,17.63-9.72-.49-17.29-5.85-24.3-11.77-6.08-5.13-14.27-5.72-21.07-1.5C15.81,42.2,8.78,49.58,0,56.14c-.14-2.45,2.07-4.23,3.91-5.81,6.46-5.54,13.23-10.33,19.22-16.43,7.78-7.93,14.39-16.58,23.07-23.29,3.94-3.04,8.1-4.82,12.35-7.03,7.79-4.04,16.82-5.23,24.55-.63,1.98,1.18,4.24,3.08,4.69,4.75,2.12,7.85-7.79,15.55-14.76,19.5.59-1.97,2.13-2.71,3.76-4.25,2.61-2.45,5.13-8.25,2.4-11.76-3.47-4.47-11.34-6.8-17-5.4-15.33,3.79-23.71,12.15-33.98,24.53,5.33-1.46,9.94-3.76,15.61-2.8,2.45.41,6.02,1.65,7.96,3.23Z"/>
  </g>
</svg>