<?xml version="1.0" encoding="UTF-8"?>
<svg id="Ebene_2" data-name="Ebene 2" xmlns="http://www.w3.org/2000/svg" viewBox="0 0 110.58 113.32">
  <g id="Ebene_1-2" data-name="Ebene 1">
    <path d="M72.75,0c11.8,0,37.83,9.38,37.83,38.15s-22.96,40.25-40.9,40.25-31.2-6.14-38.31-25.06c-2.59-6.79,2.91-4.53,3.72-2.26,7.44,20.53,17.46,23.93,36.7,23.93,8.57,0,35.73-6.47,35.73-38.15,0-18.27-17.62-33.46-31.36-32.82s-33.95,9.7-32.82,32.17,15.84,28.29,24.41,28.29c5.98,0,28.29,4.36,28.29-28.13,0-11.15-12.45-20.53-22.31-20.37-7.92.16-16.49,6.3-16.49,14.87,0,8.08,3.88,20.37,13.09,19.56,10.67-.97,12.29-7.76,12.29-12.29s-3.72-6.95-7.11-6.95c-4.85,0-13.74,19.88-20.05,34.6-7.92,18.43-19.56,47.53-42.68,47.53-9.54,0-12.77-9.05-12.77-16.81,0-17.14,16.49-37.83,19.24-39.93,3.07-2.42,5.5.16,3.88,1.29-.81.48-6.79,5.33-11.64,12.45-5.17,7.76-9.21,18.11-9.38,25.7-.16,6.14,2.59,15.68,12.93,14.55,18.43-2.1,37.83-43.16,42.68-55.61,4.53-11.48,11.15-27.64,18.59-27.64,5.5,0,9.21,5.01,9.21,9.7,0,5.5-3.56,15.68-15.52,15.68-10.99,0-15.52-9.7-15.52-20.37,0-7.11,5.98-19.72,17.78-19.88s26.03,8.41,26.03,24.57c0,13.58-4.2,30.39-25.38,30.39s-32.17-16.33-32.17-29.26C40.74,15.2,56.1,0,72.75,0Z"/>
  </g>
</svg>