<?xml version="1.0" encoding="UTF-8"?>
<svg id="Ebene_2" data-name="Ebene 2" xmlns="http://www.w3.org/2000/svg" viewBox="0 0 31.86 45.11">
  <g id="Ebene_1-2" data-name="Ebene 1">
    <path d="M8.24,33.08c-.32-1.64,1.08-2.19,1.73-3.26,2.11-3.48,7.86-9.78,11.44-5.74,2.5,2.82.55,6.78-1.38,9.51-2.03,2.88-4.01,5.57-6.21,8.32-1.94,2.42-5.06,3.77-8.08,2.98-2.67-.7-5.39-3.07-5.7-6.1s.83-5.95,2.73-8.25c4.4-5.33,9.74-9.56,15.81-12.82s11.62-7.17,8.08-15.05l3.98-2.66c2.85,4.32.23,10.08-3.44,12.79-4.95,3.66-10.14,6.79-15.33,10.15-4.34,2.8-9.64,7.73-8.25,13.43.56,2.29,2.84,3.79,4.69,4.3,2.41.66,4.87.02,6.66-1.62,2.78-2.55,6.01-8.5,3-11.36-2.22-2.11-6.17.51-7.81,2.77l-1.92,2.63Z"/>
  </g>
</svg>