<?xml version="1.0" encoding="UTF-8"?>
<svg id="Ebene_2" data-name="Ebene 2" xmlns="http://www.w3.org/2000/svg" viewBox="0 0 212.57 125.72">
  <g id="Ebene_1-2" data-name="Ebene 1">
    <path d="M98.21,125.72c13.59,0,24.1-10.77,24.1-26.41s-11.28-33.08-29.49-41.8-28.21-11.03-45.13-10.77-29.74,12.05-29.49,20.51c.26,11.54,13.08,21.03,28.46,21.03,27.44,0,87.69-45.64,120.26-42.05,23.59,2.56,29.74,10.51,29.49,21.03-.26,8.21-7.95,14.87-22.05,14.87-11.8,0-56.67-30.51-66.41-35.13S59.75,21.61,30.26,21.61C3.59,21.61,3.08,37,3.08,42.38c0,9.74,11.03,25.13,35.9,24.1,24.87-1.03,40.51-10.26,55.39-16.92,14.87-6.67,63.08-22.05,78.21-21.28s33.33,4.36,33.33,17.44c0,6.41-11.03,11.8-22.05,10.77-11.8-1.03-41.03-18.46-65.39-28.98C100.52,19.82,61.29.33,31.03.33,11.03.33-.25,4.95,0,17.51s10.51,19.49,33.08,19.49c34.1,0,114.87-25.64,139.23-29.74,9.23-1.54,18.46-1.54,19.49-2.82s-.26-3.08-2.56-3.85-12.56-1.03-20.26.77c-47.95,11.28-110.52,31.03-134.87,31.03-8.21,0-27.69-3.59-26.92-15.38.77-11.8,15.9-11.8,24.36-11.03s38.21,7.95,44.1,11.03,32.56,13.59,42.57,18.72c10,5.13,47.69,26.92,65.39,26.92,8.72,0,28.98,1.03,28.98-19.49,0-17.18-27.95-21.54-41.54-21.8-13.08-.26-68.98,17.44-81.8,23.33-11.54,5.38-37.44,16.41-50.26,15.9s-27.95-7.18-29.23-17.44c-.77-6.41,9.74-15.9,22.31-16.15,12.56-.26,38.72,8.97,47.95,13.33s37.18,17.95,50.51,26.92c13.33,8.97,33.59,21.28,46.15,21.03,12.56-.26,25.9-6.67,25.9-20.77s-8.21-26.41-30.77-26.41-49.74,8.97-66.41,18.72c-16.67,9.74-46.67,21.8-57.44,21.54s-24.87-5.13-24.36-11.54c.51-6.41,6.41-18.21,27.69-17.95,29.23.26,66.41,23.59,66.41,48.72,0,6.92-7.44,20.77-16.92,20.51-4.62,0-9.23-5.9-10-9.74-.77-4.1.51-6.15,1.54-6.92,2.05-1.54,1.54-1.03,1.54,1.79,0,1.79.77,4.1,3.08,4.1,2.82,0,4.1-1.54,4.1-5.9s-3.59-6.41-7.69-6.41c-6.41,0-7.69,8.46-7.69,12.31,0,5.64,6.15,15.38,12.56,15.38Z"/>
  </g>
</svg>