<?xml version="1.0" encoding="UTF-8"?>
<svg id="Ebene_2" data-name="Ebene 2" xmlns="http://www.w3.org/2000/svg" viewBox="0 0 29.47 30.66">
  <g id="Ebene_1-2" data-name="Ebene 1">
    <path d="M26.37,19.06c.97-1.47,1.61-2.9,3.1-3.78-4.04,6.56-9.38,15.58-17.97,15.37-2.13-.05-4.86-.84-6.47-2.22-6.74-5.76-6.5-15.65-.48-21.76C7.14,4.05,11.9-1.46,16.11.36c1.65.71,2.83,2.88,2.61,4.65s-2.91,5.46-5.55,4.6c-.8-.26-1.53-1.48-1.7-2.64-.14-.95.83-1.78,1.96-2.81-1.81-1.28-3.84-.24-5.48.84C.9,9.62,1.94,18.89,5.94,23.16c1.97,2.1,4.99,3.4,7.83,3.33,5.27-.14,9.74-3.07,12.6-7.42Z"/>
  </g>
</svg>