<?xml version="1.0" encoding="UTF-8"?>
<svg id="Ebene_2" data-name="Ebene 2" xmlns="http://www.w3.org/2000/svg" viewBox="0 0 113.24 138.8">
  <g id="Ebene_1-2" data-name="Ebene 1">
    <path d="M20.36,86.09c-10.4,24.18,1.69,48.12,14.03,48.12,20.07,0,42.08-6.05,56.1-27.08,12.33-17.65,17.65-42.08,15.96-65.05,0-3.39-1.93-8.71,1.69-8.71,10.88,0,3.63,50.54-14.99,75.45-14.51,19.1-33.13,29.98-57.07,29.98-22.49,0-30.23-27.57-19.1-52.72C-16.88,71.09,4.4,0,41.4,0c7.5,0,11.85,7.5,11.85,16.44s-6.05,13.54-10.16,13.54c-8.71,0-16.69-12.33-7.01-12.33,5.32,0,3.63,8.71,7.01,8.71,5.56,0,7.01-7.01,7.01-12.33s-3.14-10.4-8.71-10.4C16.98,3.63,4.4,35.06,4.4,58.04c0,7.25,5.56,20.8,14.27,24.42,3.87-13.54,19.59-42.08,42.08-42.08,6.53,0,10.4,7.98,10.4,14.99,0,20.07-29.74,36.03-50.78,30.71ZM66.06,58.04c0-30.23-33.13-3.39-44.01,24.42,15.72,5.32,44.01-10.16,44.01-24.42Z"/>
  </g>
</svg>