<?xml version="1.0" encoding="UTF-8"?>
<svg id="Ebene_2" data-name="Ebene 2" xmlns="http://www.w3.org/2000/svg" viewBox="0 0 41.78 38.21">
  <g id="Ebene_1-2" data-name="Ebene 1">
    <path d="M26.13,31.21c-7.35-.5-10.67-5.54-17.67-1.6-5.34,3-4.47,4.99-8.46,8.61,2.2-4,5.19-7.11,7.91-10.56l3.9-4.95c2.19-2.79,10.06-11.62,8.4-14.32-1.32-2.14-2.98-4.23-5.49-3.95-3.31.37-5.74,2.95-7.27,5.68,2.06-5.29,2.98-6.13,7.13-9.2,1.99-1.47,4.24-1.02,6.05.33,2.19,1.64,3.11,4.14,2,6.79-1.2,2.86-2.93,5.42-4.85,7.92l-8.04,10.47c4.35-2.65,8.26-2.74,12.58-.81,5.56,2.49,12.43,2.71,16.54-1.95l2.91-3.3c-.61,1.72-1.98,2.93-2.91,4.45-2.76,4.48-7.35,6.76-12.73,6.39Z"/>
  </g>
</svg>