<?xml version="1.0" encoding="UTF-8"?>
<svg id="Ebene_2" data-name="Ebene 2" xmlns="http://www.w3.org/2000/svg" viewBox="0 0 117.39 66.95">
  <g id="Ebene_1-2" data-name="Ebene 1">
    <path d="M20.67,55.76c24.18,0,44.36,10.99,56.75,11.19,17.99.2,39.97-13.39,39.97-32.97,0-6-1.2-33.97-34.37-33.97-9.79,0-23.38,8.59-23.38,22.38s5,29.98,27.78,29.98c14.59,0,21.58-8.79,21.58-17.79,0-12.59-10.19-24.18-23.98-23.78-7.79.2-15.79,6.79-15.79,14.39,0,6,4,12.79,11.99,12.79s9.59-4.2,8.99-6.79-4.2-5.4-3.6-2.8-.4,6.99-4.2,6.79-8.99-2.6-8.99-9.39c0-4.2,5.8-10.79,11.79-10.79,8.19,0,20.18,6,20.18,15.99,0,8.39-4.6,17.39-19.58,17.39-16.79,0-21.18-16.79-21.18-24.18s8.19-18.98,17.59-18.98c17.79,0,30.78,10.19,30.78,27.38s-17.99,29.58-32.57,30.98c-12.79.6-35.57-10.79-60.55-10.79-10.79,0-14.59,1-17.79,2s-2.8,1.8,1.8,1.6c6-.2,10.79-.6,16.79-.6Z"/>
  </g>
</svg>