<?xml version="1.0" encoding="UTF-8"?>
<svg id="Ebene_2" data-name="Ebene 2" xmlns="http://www.w3.org/2000/svg" viewBox="0 0 21.12 69.57">
  <g id="Ebene_1-2" data-name="Ebene 1">
    <path d="M7.86,65.04c-.43,1.1-1.03,3.32-2,4.14-2.13,1.81-6.53-3.05-5.77-7.94.86-5.52,3.67-10.61,6.69-15.39s9.26-11.09,10.77-15.51c1.58-4.62-6.92-8.93-10.8-11.87-3-2.28-3.74-6.18-2.04-9.6S8.85,2.54,11.82,0c-1.4,2.19-3,3.81-4.01,6-1.55,3.34-.55,6.89,2.48,9l4.13,2.88c2.59,1.8,5.4,3.57,6.52,6.75,2.15,6.12-13.89,16.29-18.08,31.7-.97,3.59.81,8.16,5.01,8.72Z"/>
  </g>
</svg>