<?xml version="1.0" encoding="UTF-8"?>
<svg id="Ebene_2" data-name="Ebene 2" xmlns="http://www.w3.org/2000/svg" viewBox="0 0 193.92 144.5">
  <g id="Ebene_1-2" data-name="Ebene 1">
    <path d="M20.21,137.12c52.17,0,154.88-116.09,117.46-116.09-28.41,0-95.06,99.7-58.46,99.7,50.26,0,113.09-110.63,112.81-110.63,2.46,0,1.91,2.19,1.64,3.55-1.09,5.74-62.55,114.45-121.01,114.45-38.52,0,24.31-113.63,69.66-113.63S72.93,144.5,25.68,144.5c-5.19,0-11.2,0-11.2-3.55,0-1.09,1.09-3.82,5.74-3.82ZM5.74,127.02c52.17,0,154.88-116.09,117.46-116.09-28.41,0-95.06,99.7-58.46,99.7C115,110.63,177.83,0,177.55,0c2.46,0,1.91,2.19,1.64,3.55-1.09,5.74-62.55,114.45-121.01,114.45-38.52,0,24.31-113.63,69.66-113.63S58.46,134.39,11.2,134.39c-5.19,0-11.2,0-11.2-3.55,0-1.09,1.09-3.82,5.74-3.82Z"/>
  </g>
</svg>