<?xml version="1.0" encoding="UTF-8"?>
<svg id="Ebene_2" data-name="Ebene 2" xmlns="http://www.w3.org/2000/svg" viewBox="0 0 13.49 68.68">
  <g id="Ebene_1-2" data-name="Ebene 1">
    <path d="M0,68.68c.07-2.71,2.01-4.78,3.14-7.19,5.07-10.82,4.67-22.8-.55-33.44-1.24-2.52-1.34-4.96-1.24-7.66.13-3.57,1.07-6.44,2.94-9.46C6.8,6.9,9.86,3.43,13.36,0c.49,1.11-.48,1.45-1.01,2.08-2.51,2.99-5.24,5.85-6.82,9.6-1.33,3.15-1.94,7.91-.5,11.13,3.58,8.05,5.47,16.29,3.83,25.09-1.91,7.21-4.6,14.19-8.85,20.78Z"/>
  </g>
</svg>