<?xml version="1.0" encoding="UTF-8"?>
<svg id="Ebene_2" data-name="Ebene 2" xmlns="http://www.w3.org/2000/svg" viewBox="0 0 27.06 26.87">
  <g id="Ebene_1-2" data-name="Ebene 1">
    <path d="M14.57,14.5c-.27.24-1.42-.04-1.54-.37-1.52-4.04,3.36-4.08,3-6.53.13.88,2.91-2.07,5.37.69,2.15,2.43,2.26,6.26.12,9.05-3.67,4.79-8.51,11.28-15.19,9.08C.4,24.47-1.86,16.2,1.7,10.81,4.62,6.37,8.73,2.84,13.72.9c7.88-3.05,14.02,2.53,13.28,3.51-.32.43-2.3,2.94-3.19,2.82-2.65-3.46-7.17-5.06-11.39-3.87-1.79.5-4.09,1.1-5.04,2.42-1.13,1.57-2.42,2.84-3.26,4.51-1.56,3.1-.91,7.51,1.37,9.98,3.39,3.67,8.58,3.22,11.91-.03,1.2-1.17,2.41-2.47,2.4-3.95-.01-1.78-.33-3.6-1.91-4.72l-3.31,2.93Z"/>
  </g>
</svg>