<?xml version="1.0" encoding="UTF-8"?>
<svg id="Ebene_2" data-name="Ebene 2" xmlns="http://www.w3.org/2000/svg" viewBox="0 0 46.51 27.38">
  <g id="Ebene_1-2" data-name="Ebene 1">
    <path d="M20.2,13.28c2.88-.13,6.03,1.34,6.77,4.07.49,1.81-1.22,3.54-2.64,4.53-1.17-3.23-3.82-5.14-7.14-4.55-3.52.16-6.55,1.76-9.63,3.27s-5.35,3.65-7.55,6.78C2.17,18.64,10.11,11.32,17.11,6.46,24.33,1.44,35.4-1.84,43.81,1.12c1.22.43,3.07,1.91,2.63,3.18-.41,1.19-1.79,2.1-2.89,2.95-1.92-2.38-4.36-3.05-7.39-3.18-12.22-.49-22.26,5.55-30.33,14.68l5.51-2.89c2.72-1.43,5.47-2.42,8.85-2.57Z"/>
  </g>
</svg>