<?xml version="1.0" encoding="UTF-8"?>
<svg id="Ebene_2" data-name="Ebene 2" xmlns="http://www.w3.org/2000/svg" viewBox="0 0 51.55 20.06">
  <g id="Ebene_1-2" data-name="Ebene 1">
    <path d="M0,17.31c4.64-12.1,18.74-2.31,29.45-1.22,6.36.65,13.08-.53,16.62-6.31,1.08-1.75,2.18-4.02.56-5.76-1.45-1.56-2.71.72-4.48,1.37,1.34-2.02,5.61-6.58,8.08-5.1.64.38,1.16,1.37,1.29,2.34.62,4.67-5.46,8.66-8.7,11.85-3.89,3.83-8.84,5.81-14.26,5.55-1.6-.07-3.18,0-4.76-.45l-5.98-1.71c-4.28-1.22-14.68-5.21-17.81-.57Z"/>
  </g>
</svg>