<?xml version="1.0" encoding="UTF-8"?>
<svg id="Ebene_2" data-name="Ebene 2" xmlns="http://www.w3.org/2000/svg" viewBox="0 0 89.46 52.71">
  <g id="Ebene_1-2" data-name="Ebene 1">
    <path d="M29.65,1.03C12.35,1.03,0,16.16,0,28.82c0,9.37,9.47,17.71,19.66,17.71,10.71,0,29.24-8.96,29.24-21.93,0-8.24-8.03-19.76-19.97-18.94-11.43.72-17.19,7.62-18.22,13.9s5.97,16.68,13.49,16.06,18.22-6.59,27.49-16.68c4.94-5.35,9.68-15.85,16.26-15.85,3.91,0,7.62.51,7.62,5.35,0,5.46-5.56,10.29-7.62,10.29-4.01,0-4.63-2.37-4.01-5.46.93-4.63,5.76-11.22,12.97-11.22,1.03,0,8.44,3.5,10.71,3.5.93,0,1.85-1.24,1.85-2.37,0-.82-.51-1.65-2.16-1.65-3.6,0-7.72-1.54-10.81-1.54-3.91,0-14.62,4.22-14.62,15.54,0,2.57,1.75,5.25,4.43,5.46,4.01.31,11.43-4.12,11.43-9.68s-3.4-10.81-8.44-10.81c-8.96,0-16.26,12.25-18.63,15.34-2.16,2.88-17.19,17.5-25.94,17.5-5.15,0-11.32-4.32-11.32-10.6,0-8.96,8.75-14.93,15.85-14.31,13.28,1.24,16.37,9.68,16.37,17.6s-13.49,18.43-22.54,18.43c-9.68,0-20.69-7.21-20.69-15.65S15.44,2.99,26.56,3.4c13.18.41,28.31,5.25,28.31,20.49,0,9.68-5.35,24.81-14,24.81-1.96,0-3.09,1.44-3.09,2.68,0,.72.51,1.34,1.65,1.34,10.91,0,18.22-18.01,18.22-28.1,0-13.49-13.69-23.57-28-23.57Z"/>
  </g>
</svg>