<?xml version="1.0" encoding="UTF-8"?>
<svg id="Ebene_2" data-name="Ebene 2" xmlns="http://www.w3.org/2000/svg" viewBox="0 0 43.63 33.07">
  <g id="Ebene_1-2" data-name="Ebene 1">
    <path d="M39.02,16.26c-6.71-8.24-18.57-5.33-25.9.06-2.59,5.97-5.8,11.28-10.18,15.95-.5.53-1.64.78-2.22.53-2.74-1.17,3.32-9.44,4.43-11.01,1.01-1.44,2.09-2.55,3.41-3.74l3.42-3.05c1.19-2.89,2.81-11.25-2.2-11.18-2.69.04-4.9,1.18-7.26,2.91,1.03-3.08,3.82-4.05,6.38-5.22,1.77-.81,3.86-2.44,5.97-.81,3.37,2.61,1.35,8.18.32,12.01,5.19-3.43,10.57-5.35,16.77-5.35,3.14,0,6.32,1.58,8.63,3.43,3.68,2.95,3.87,7.21,1.39,10.87-.88,1.3-1.71,2.64-2.77,3.85-3.31,3.79-3.95,6.32-10.28,7.57,2.11-6.7,7.45-2.48,10.38-9.24,1.03-2.38,1.62-5.22-.29-7.57ZM2.77,28.13c2.67,3.84,7.03-8.32,7.61-9.95-2.84,2.19-7.57,6.36-7.61,9.95Z"/>
  </g>
</svg>