<?xml version="1.0" encoding="UTF-8"?>
<svg id="Ebene_2" data-name="Ebene 2" xmlns="http://www.w3.org/2000/svg" viewBox="0 0 22.38 16.57">
  <g id="Ebene_1-2" data-name="Ebene 1">
    <path d="M16.16,16.08c-.82.55-2.91.58-3.95.35-1.18-.26-2.24-1.89-2.16-2.85.25-3.11,1.89-5.21,3.39-8.05C8.98,8.9,5.18,12.53,0,15.26c.78-1.42,1.84-2.82,2.9-4.05,5.71-3.11,10.63-6.78,15.45-11.21-1.67,2.82-3.99,4.89-5.22,7.73-.8,1.84-.17,4.26,1.59,4.61,3.13.63,5.36-.67,7.66-2.72-1.12,3.18-3.58,4.68-6.22,6.46Z"/>
  </g>
</svg>