<?xml version="1.0" encoding="UTF-8"?>
<svg id="Ebene_2" data-name="Ebene 2" xmlns="http://www.w3.org/2000/svg" viewBox="0 0 56.52 25.74">
  <g id="Ebene_1-2" data-name="Ebene 1">
    <path d="M9.56,20.65c-1.66,1.58-7.17,6.76-9.11,4.56-.47-.53-.74-1.96.08-2.72,4-3.72,8.62-7.07,14.01-8.77,8.99-2.84,16.07,2.78,29.31-4.71,1.77-1,7.74-3.93,8.4-5.72.09-.24-.4-.64-.66-.64l-1.41.02c1.18-.82,5.14-3.89,6.2-2.14,1.24,2.06-4.84,5.22-6.37,6.04l-7.41,3.97c-15.48,8.29-18.66,3.77-29.26,5.34-3.48.52-10.05,4.43-9.16,6.16s4.01-1.68,5.39-1.39Z"/>
  </g>
</svg>