<?xml version="1.0" encoding="UTF-8"?>
<svg id="Ebene_2" data-name="Ebene 2" xmlns="http://www.w3.org/2000/svg" viewBox="0 0 66.9 24.1">
  <g id="Ebene_1-2" data-name="Ebene 1">
    <path d="M55.84,24.03c-10.6-1.22-11.61-10.51-14.4-12.78-5.75-4.67-11.43-3.31-18.33-1.27-4.47,1.32-8.03,4.18-11.77,6.72,2.06-3.55,6.73-4.73,6.26-9.05S9.1,1.69,3.35,6.03c-1.12.85-2.13,1.59-3.35,2.42,1.02-2.62,3.17-3.68,5.11-5.3,5.98-4.99,14.79-3.62,15.84,1.12.59,2.66-1.2,3.96-2.62,6.28,4.11-2.69,8.25-4.04,12.88-4.86,6.9-1.21,13.32.13,16.53,6.85,3.55,7.42,12.35,11.02,19.16,6.9-3,3.13-6.95,5.05-11.07,4.58Z"/>
  </g>
</svg>