<?xml version="1.0" encoding="UTF-8"?>
<svg id="Ebene_2" data-name="Ebene 2" xmlns="http://www.w3.org/2000/svg" viewBox="0 0 35.42 42.58">
  <g id="Ebene_1-2" data-name="Ebene 1">
    <path d="M8.62,36.51c-.77,1.37-3.93,6.55-6.2,6.03-2.72-1.6-3.06-5.26-1.44-7.93,2.05-3.36,4.71-6.08,7.64-8.81,1.75-1.64,3.83-2.98,5.89-4.32l9.63-6.29c3.78-2.47,7.81-7.75,7.35-12.51,1.08-.95,2.48-1.94,3.83-2.68.99,5.84-5.4,11.94-9.61,14.85l-10.22,7.07c-3.72,2.58-7.34,4.92-10.41,8.33-1.94,2.16-3.02,5.89-.37,7.81,1.28.92,2.51-1.12,3.91-1.55Z"/>
  </g>
</svg>