<?xml version="1.0" encoding="UTF-8"?>
<svg id="Ebene_2" data-name="Ebene 2" xmlns="http://www.w3.org/2000/svg" viewBox="0 0 39.82 34.68">
  <g id="Ebene_1-2" data-name="Ebene 1">
    <path d="M.52,34.68c-2.36-2.07,4-9.81,5.43-11.7,1.72-2.28,4.19-3.6,6.52-5.12,1.11-.73-.07-2.47-.71-3.06-3.39-3.1-6.83.02-9.92,1.86,2.68-3.43,3.74-5,7.74-6.48,2.44-.91,5.13-.05,6.47,2.33.51.9.17,2.26.13,3.57l4.75-1.37C23.35,8.61,30.69,2.24,37.06.02c.74-.17,1.61,1.19,1.81,1.99s-.03,2.36-.65,3.05c-4.6,5.12-7.85,8.03-14.23,11.04-.85.66-.06,2.11.22,2.91.99,2.91,3.61,4.12,6.65,3.27,3.26-.92,5.77-3.18,8.97-5.11-2.51,3.62-6.27,6.27-10.12,8.32-1.71.91-3.74,1.17-5.49.44-3.18-1.33-4.34-4.78-4.23-8.08l-4.96,1.53c-2.22,3.51-4.49,6.83-7.11,10.14-1.86,2.36-3.95,4.81-7.39,5.16ZM33.89,4.36c-1.5-1.03-2.85-.4-3.95.63-2.57,2.38-4.81,4.91-5.86,8.57,3.8-1.62,12.35-4.07,9.81-9.19ZM3.46,30.58c3.99-.15,8.05-6.43,8.46-9.85l-4.47,2.59c-1.71.99-6.09,6.14-3.99,7.27Z"/>
  </g>
</svg>