<?xml version="1.0" encoding="UTF-8"?>
<svg id="Ebene_2" data-name="Ebene 2" xmlns="http://www.w3.org/2000/svg" viewBox="0 0 153.71 179.59">
  <g id="Ebene_1-2" data-name="Ebene 1">
    <path d="M98.98,142.24c-18.85,15.53-46.03,35.77-65.71,37.15C14.42,181.61,0,164.97,0,146.95c0-14.14,14.42-36.88,25.79-45.19,1.94-11.65,6.1-24.12,10.54-35.21C44.36,46.3,60.44,3.33,42.14,3.33c-22.18,0-26.34,24.4-13.31,24.4,6.93,0,9.15-8.04,5.55-8.04-6.1,0-6.1-3.05-3.6-4.99,1.11-.83,9.43,0,9.43,4.99,0,4.16-4.44,12.2-9.15,12.2-8.87,0-12.2-3.88-12.2-12.75C18.85,6.1,24.4,0,43.53,0s8.32,35.49,2.22,52.96c-3.88,11.65-13.03,29.67-16.36,47.41,12.75-7.76,26.89-19.69,40.76-19.69,9.43,0,12.2,1.11,14.97,2.77,6.38-16.64,11.37-24.68,32.44-24.68,10.81,0,6.93,20.52,4.71,30.22-4.71,16.08-12.75,33.27-22.18,48.52,20.52-8.6,34.1-30.78,40.48-44.92,5.55-12.2,8.32-24.4,8.32-37.15,0-2.5,2.5-4.99,3.6-3.6,5.82,11.37-10.81,49.91-18.58,61.28-10.54,15.25-29.39,24.68-34.94,29.11ZM97.87,134.2c8.32-13.31,34.1-70.98,16.36-70.98-16.36,0-22.18,11.92-26.06,21.63,3.33,1.94,8.87,7.76,8.87,18.85,0,15.25-7.21,21.07-11.92,25.79,2.22,4.44,9.98,9.43,12.75,4.71ZM47.13,144.73c15.53,0,26.62-8.04,34.1-16.08-5.82-12.75-3.33-29.39,2.5-41.87-4.44-1.94-6.93-2.5-14.97-2.5-10.54,0-32.72,16.08-39.09,21.63-2.5,12.75,3.05,38.82,17.47,38.82ZM83.73,126.15c4.16-4.16,8.6-11.65,9.43-21.07.55-6.65-1.11-13.59-6.65-16.64-3.33,8.6-8.32,30.78-2.77,37.71ZM93.16,140.02c-4.44-2.22-8.04-4.44-10.26-8.04-9.7,9.15-15.8,16.64-33.27,16.64-22.74,0-25.23-28.28-24.12-41.03-7.21,2.22-18.85,24.95-21.07,35.49-2.22,7.76-.55,26.62,21.9,32.72,24.68,6.38,64.33-29.94,66.82-35.77Z"/>
  </g>
</svg>