<?xml version="1.0" encoding="UTF-8"?>
<svg id="Ebene_2" data-name="Ebene 2" xmlns="http://www.w3.org/2000/svg" viewBox="0 0 51.54 24.83">
  <g id="Ebene_1-2" data-name="Ebene 1">
    <path d="M38,10.23l7.5-2.5c.88-.29,1.47-1.32,1.45-2.1-.01-.85-.55-1.83-1.41-2.13-2.09-.73-4.07-.31-6.07.43-6.47,2.37-12.01,5.96-17.47,10.04-3.57,2.67-7.17,4.89-10.86,7.35-2.37,1.58-8.19,5.88-10.58,1.82-.7-1.18-.9-3.06.26-4.35,3.8-4.26,10.6-7.25,16.1-9.38,1.51-.58,10.55-4.17,9.56-6.14-1.31-2.62-6.86.37-8.64,1.2-2.22,1.04-3.91,3.06-6.6,3.42,2.12-1.93,19.03-11.83,19.87-6.16.18,1.44-1.75,2.56-2.91,3.17-5.2,2.74-10.52,4.68-15.87,7.01-2.72,1.18-5.16,2.68-7.25,4.7-1.05,1.02-1.23,3.52-.04,4.39,1.82,1.32,4.47.73,6.24-.45,2.53-1.69,5.11-3.1,7.46-5.04,5.72-4.71,11.75-8.6,18.66-11.41,3.55-1.44,10.39-4.92,13.56-1.72.81.82.67,2.1.22,3.14-.36.82-1.29,1.49-2.37,1.84l-12.02,3.87-5.33,1.77c-2.64.88-4.92,2.4-7.81,3.06,1.46-1.53,3.52-1.78,5.32-2.54,2.94-1.24,5.85-2.21,9.03-3.28Z"/>
  </g>
</svg>