<?xml version="1.0" encoding="UTF-8"?>
<svg id="Ebene_2" data-name="Ebene 2" xmlns="http://www.w3.org/2000/svg" viewBox="0 0 69.01 52.11">
  <g id="Ebene_1-2" data-name="Ebene 1">
    <path d="M64.28,6.87c-2.02-2.9-6.02-3.21-8.84-1.76-1.49.77-3.1,1.21-4.38,2.18l-10.65,8.04c-2.38,1.79-4.16,4.09-6.38,6.17C22.93,31.9,12.04,42.14,0,52.11c1.17-2.57,3.81-4.01,5.8-5.83l8.18-7.51,16.37-15.3c2.9-2.71,5.66-5.24,8.4-8.04,2.06-2.11,4.06-4.12,6.35-5.93l7.77-6.13c1.62-1.28,3.84-2.16,5.77-2.91,3.82-1.49,7.85.84,9.29,4.29,1.33,3.19,1.25,5.94.68,9.14-.64,3.6-2.03,6.35-4.4,9.06-2.09,2.39-4.11,4.3-7.33,4.98s-5.82-.03-8.01-2.37c-1.69-1.81-1.96-4.25-.11-6.21,1.17-1.24,2.35-2.53,3.97-3.6-.35,1.12-1.17,1.77-1.82,2.82-.21,2.3,1.44,4.76,4.01,5.51,2.89.85,7.17-.24,9.24-2.81,2.36-2.95,3.04-10.18.11-14.4Z"/>
  </g>
</svg>