<?xml version="1.0" encoding="UTF-8"?>
<svg id="Ebene_2" data-name="Ebene 2" xmlns="http://www.w3.org/2000/svg" viewBox="0 0 38.51 38.65">
  <g id="Ebene_1-2" data-name="Ebene 1">
    <path d="M1.89,38.65c2.51-4.1,18.31-10.64,23.1-13.19l7.11-3.78c1.61-.86,2.84-3.53,1.51-4.8-2.64-.46-5.02,1.21-7.25,2.28l-12.04,5.81-2.3,1.57c-2.29,1.56-4.91,2.3-7.47,3.33-1.9.77-4.34-.3-4.53-2.42-.13-1.44.95-2.83,2.13-3.65,5.66-3.94,11.82-6.47,18.45-8.48,2.01-.61,4.1-1.18,5.02-3.3.3-.7-.84-2.2-1.62-2.32-2.1-.31-3.96.41-5.8,1.24l-10.61,4.8c-1.62.73-4.93,1.75-5.83-.25s1.91-4.45,3.76-5.58l4.43-2.72C14.71,4.28,19.72,1.69,25.15,0,20.4,2.42,8.45,7.32,5.64,11.66c-.23.35.04,1.43.5,1.65,1.38.66,3.07.35,4.48-.25l11.14-4.75c1.94-.83,4.26-1.39,6.23-.99.99.2,1.88,1.51,1.98,2.27.36,2.78-5.47,5.02-7.9,5.9l-9.9,3.59c-2.3.83-8.81,3.66-8,6.51.64,2.26,4.4,1.39,6.17.52l10.23-5.02,9.26-4.44c2.51-1.2,5.25-2.57,8.06-2.18,1.25,1.55.43,4.5-1.32,5.57-8.05,4.91-24.79,11.91-28.96,14.74l-5.74,3.89Z"/>
  </g>
</svg>