<?xml version="1.0" encoding="UTF-8"?>
<svg id="Ebene_2" data-name="Ebene 2" xmlns="http://www.w3.org/2000/svg" viewBox="0 0 84.11 90.96">
  <g id="Ebene_1-2" data-name="Ebene 1">
    <path d="M30.9.25C17.57-2.21.55,14.11.02,30.08c-.7,19.83,16.32,22.46,34.39,14.21,12.28-5.61,27.55-21.76,27.55-28.25,0-3.86-.35-6.67-5.26-6.67-7.72,0-14.91,11.93-17.2,15.79-7.72,13.34-15.79,32.99-14.91,47.55.53,11.93,6.84,18.25,20.88,18.25,4.74,0,15.97-3.51,22.46-10.35,6.49-6.84,12.98-14.91,15.27-28.78,2.28-13.86-.18-21.76-2.28-25.09s-6.49-6.49-5.09-1.58c1.4,4.91,3.51,3.16,5.09,6.14s1.23,9.83,1.23,16.84c0,8.25-5.97,22.64-13.86,29.3-5.61,4.74-14.39,11.23-21.23,11.23-11.05,0-19.83-4.21-19.83-15.97s3.51-25.97,8.25-35.8c2.63-5.26,10.88-20.71,19.3-24.21,3.51-1.58,6.49.7,4.91,4.21-5.26,11.41-21.41,27.02-38.25,28.78-10.35,1.05-17.37,0-18.95-11.05S10.02,10.95,15.81,7.62s12.11-4.74,15.09-4.21,7.55,2.46,7.72,5.44c.53,9.65-10.35,27.72-20.88,27.72-8.6,0-7.02-9.83-6.32-12.11,1.4-4.04,8.07-7.19,10.53-6.84s4.04,3.16,3.68,5.79-.88,4.56-2.63,4.91c-5.26,1.05-5.61-3.16-2.11-3.68,5.44-.7-3.86-5.44-4.74-.35-.35,2.28,0,5.61,2.63,6.14,10.35,2.11,10.35-9.48,8.6-11.76-2.28-3.16-7.72-3.86-9.83-2.81s-9.83,4.74-9.65,11.76c.18,7.02,3.86,11.58,9.12,11.23,10.18-.7,24.21-15.27,24.21-27.72,0-7.72-4.21-9.65-10.35-10.88Z"/>
  </g>
</svg>