<?xml version="1.0" encoding="UTF-8"?>
<svg id="Ebene_2" data-name="Ebene 2" xmlns="http://www.w3.org/2000/svg" viewBox="0 0 386.67 161.64">
  <g id="Ebene_1-2" data-name="Ebene 1">
    <path d="M64.82,0C41.32,0,0,19.85,0,47.4s12.15,34.43,26.74,34.43,22.28-7.29,22.28-11.75-2.84-6.08-6.89-6.08c-9.72,0-19.45,14.58-17.42,34.84,2.03,19.04,20.66,62.79,111.81,62.79s164.88-77.38,166.09-124.77c1.22-45.78-57.53-4.46-56.71,40.11,0,5.27-4.05,50.64,43.75,47.4,42.94-2.84,94.79-53.88,96.82-106.14.41-6.08.81-16.61-5.27-16.61-2.03,0-4.86,2.84-4.05,4.86,16.61,46.18-44.56,113.43-89.53,112.62-18.23-.41-32.81-5.67-33.22-35.65-.81-45.37,42.54-74.13,42.54-50.23,0,56.31-83.05,123.15-165.69,123.15S28.76,113.83,28.76,94.79c0-25.93,17.82-31.6,16.2-25.52-1.22,4.46-5.27,8.1-22.28,6.48-13.77-1.22-17.82-14.58-17.01-27.55C6.89,24.31,43.35,4.86,63.2,4.86c16.2,0,69.68,14.58,69.68,53.47,0,18.63-15.8,53.47-40.92,53.47-21.07,0-26.33-16.61-26.33-25.52,0-14.99,20.66-34.43,31.6-34.03s20.26,8.51,20.26,16.2c0,5.27-2.84,19.04-12.15,19.45s-14.58-4.86-12.96-9.32,7.29-3.65,7.7-5.27-1.62-6.48-4.86-6.08-6.89,4.46-6.89,10.13c0,5.27,2.43,15.39,13.37,15.39,13.37,0,20.66-12.15,20.26-22.69-.41-10.53-8.1-23.5-21.47-23.5-18.23,0-40.51,22.69-40.51,37.27,0,13.77,4.86,33.22,27.95,33.22,33.62,0,52.26-31.6,52.26-59.96C140.17,20.66,94.39,0,64.82,0Z"/>
  </g>
</svg>