<?xml version="1.0" encoding="UTF-8"?>
<svg id="Ebene_2" data-name="Ebene 2" xmlns="http://www.w3.org/2000/svg" viewBox="0 0 54.94 23.95">
  <g id="Ebene_1-2" data-name="Ebene 1">
    <path d="M5.27,17.77c1-1.1,3.14-5.4,4.66-3.33.3.4.53,1.43.26,1.96-1.26,2.42-4.71,8.34-7.73,7.47C.04,23.15-.62,18.08.59,15.05s3.08-6.17,5.8-8.33c2.12-1.68,5.53-2.18,8.02-1.28,3.85,1.4,5.43,5.11,14.22,5.68,6.07.39,12.04-2.38,16.55-6.4,2.08-1.85,4.17-3.16,6.57-4.58.57-.34,1.75-.04,2.24.23.54.29,1.28,1.67.76,2.14-1.14,1.02-2.26,1.88-3.33,2.65-1.56-4.15-7.52,1.8-9.45,3.46-7.33,6.31-16.49,8.47-25.26,3.93-2.18-1.13-3.65-3.03-6.15-3.59-1.88-.43-4.82-.04-6.32,1.3-2.24,1.99-2.27,5.44-1.25,7.98.62,1.55,2.94,2.34,3.93.94.47-.66-.63-1.23-1.67-1.41Z"/>
  </g>
</svg>