<?xml version="1.0" encoding="UTF-8"?>
<svg id="Ebene_2" data-name="Ebene 2" xmlns="http://www.w3.org/2000/svg" viewBox="0 0 136.33 150.39">
  <g id="Ebene_1-2" data-name="Ebene 1">
    <path d="M29.09,144.96c34.02,0,46.1-55.96,46.1-89.99,0-14.79-7.64-44.13-24.16-44.13s-32.79,27.61-33.28,53.5c-.25,12.33,1.73,60.15,19.97,60.15,14.79,0,22.19-20.46,24.16-36.98.74-6.41,1.23-12.08,1.23-17.5,0-27.12-8.88-41.66-15.53-41.66-4.19,0-7.4,5.18-7.64,16.02-.49,28.11,5.92,67.3,28.6,67.3,28.35,0,45.12-40.68,45.12-74.45,0-9.12-1.23-17.01-3.2-21.94-1.48-3.7-3.7-5.18-5.67-5.18-3.45,0-6.41,3.94-5.92,9.61,1.97,20.22,10.85,28.11,18.49,28.11,3.45,0,6.41-1.48,8.88-3.94,4.44-4.68,6.41-12.82,6.41-19.48,0-2.96-.49-5.67-1.23-7.64-1.73-4.44-2.47-7.89-2.47-10.6,0-.99,0-1.97.25-2.96.49-1.73,1.97-3.2,3.2-3.2.99,0,1.97.99,1.97,3.7,0,3.45,1.97,12.33,1.97,21.45,0,6.41-.99,13.07-4.19,18.49-5.18,8.38-10.35,11.83-15.53,11.83-15.53,0-23.17-27.37-23.17-41.17,0-8.88,2.96-12.57,6.9-12.57,13.56,0,16.52,24.9,16.52,36.49,0,36.24-11.59,79.88-47.09,78.64-28.6-.99-34.51-41.66-34.51-68.78,0-20.46,5.18-29.09,11.34-29.09,9.86,0,22.43,20.96,22.43,51.28,0,7.15-.74,14.79-2.22,22.93-1.23,5.92-7.15,38.71-25.39,37.23-23.42-1.97-28.6-35.75-28.6-54.98C12.82,43.39,23.67,2.47,45.86,2.47c17.01,0,33.53,22.68,35.01,43.14,2.71,34.27-10.85,104.78-49.31,104.78-23.42,0-31.56-25.39-31.56-39.2,0-2.96,2.22-17.75,5.67-17.75,1.48,0,2.71,4.19,2.71,7.4,0,.99,0,1.73-.25,2.47-1.48,4.44-2.47,11.59-2.47,15.53,0,13.07,11.83,26.13,23.42,26.13Z"/>
  </g>
</svg>