<?xml version="1.0" encoding="UTF-8"?>
<svg id="Ebene_2" data-name="Ebene 2" xmlns="http://www.w3.org/2000/svg" viewBox="0 0 108.18 101.11">
  <g id="Ebene_1-2" data-name="Ebene 1">
    <path d="M61.15,0c8.7,0,20.22,5.64,20.22,13.17,0,9.64-27.28,8.7-35.04,8.7s-35.98-5.64-35.98,8c0,7.52,5.41,9.41,9.17,9.41,9.17,0,46.32-14.81,63.96-14.81s20.93,7.76,20.93,15.99-10.58,10.58-19.75,10.58-43.74-5.88-53.61-5.88-21.63,9.41-21.63,14.11,4,8.94,11.29,8.94,50.79-15.52,67.49-15.52,19.99,8.23,19.99,13.87-5.64,16.23-30.33,16.23c-19.05,0-16.7-5.64-34.1-5.64s-14.58,8-14.58,10.58,4.23,9.64,11.76,9.64,11.29-2.59,11.29-4.7c0-8.7-5.17-.94-10.58-.94-4,0-6.11,0-6.11-4.23,0-5.17,3.06-7.05,14.34-7.05s11.76,2.82,11.76,8-9.88,12.7-25.4,12.7c-13.64,0-16.46-7.52-16.23-11.52.47-9.17,5.41-15.05,22.57-15.05s28.45,6.11,39.27,6.11,16.23-5.17,16.23-13.17-10.11-11.52-19.99-11.52c-16.23,0-48.68,18.11-65.61,16.93C5.89,72.43.25,68.9.01,62.55c-.47-9.64,15.28-19.05,29.16-19.05s46.56,4.94,54.79,4.94,11.29-3.06,10.58-9.88-10.35-11.99-19.52-11.99-43.5,15.99-65.84,15.99c0,0-8.94-.47-8.94-10.11s17.17-13.64,27.28-13.64,26.57.47,33.86.47,9.88-3.06,9.88-5.64c0-4.7-7.52-11.05-15.99-11.05-16.23,0-16.46,1.65-16.46,0s2.82-2.12,4.7-2.12c5.88-.24,11.76-.47,17.64-.47Z"/>
  </g>
</svg>