<?xml version="1.0" encoding="UTF-8"?>
<svg id="Ebene_2" data-name="Ebene 2" xmlns="http://www.w3.org/2000/svg" viewBox="0 0 19.96 18.81">
  <g id="Ebene_1-2" data-name="Ebene 1">
    <path d="M7.21,17.63c-2.36-1.93-3.71-4.85-2.66-7.78,1.88-5.23,2.5-2.58,2.44-5.39-2.42,1.08-4.47,1.99-6.98,2.76.05-1.54,1.05-1.9,1.69-2.87C5.45,3.34,8.8,1.96,12.25,0l-3.27,3.96c-1.33,1.61-2.23,3.76-1.64,5.9.75,2.71,3.4,5.3,6.33,5.27,2.24-.02,4.18-1.29,6.29-2.09-1.36,3.08-4.13,4.57-7.13,5.36-2.08.55-3.73.78-5.63-.77Z"/>
  </g>
</svg>