<?xml version="1.0" encoding="UTF-8"?>
<svg id="Ebene_2" data-name="Ebene 2" xmlns="http://www.w3.org/2000/svg" viewBox="0 0 114.89 166">
  <g id="Ebene_1-2" data-name="Ebene 1">
    <path d="M93.37,38.01c15.89,0,21.52,8.65,21.52,19.71,0,10.46-3.82,27.15-14.28,46.66-11.87,21.92-54.9,53.49-73.81,61.34-3.62,1.61-9.25-4.02-4.42-5.23,13.88-3.42,61.54-33.79,77.23-63.75,13.47-25.74,18.3-58.92-10.66-54.9-10.66,1.41-40.62,29.16-45.45,37-2.61,4.22-17.09,10.26-9.25.6,11.46-14.08,41.43-41.43,59.13-41.43ZM79.7,18.1c15.89,0,21.52,8.65,21.52,19.71,0,10.46-3.82,27.15-14.28,46.66-11.87,21.92-54.9,53.49-73.81,61.34-3.62,1.61-9.25-4.02-4.42-5.23,13.88-3.42,61.54-33.79,77.23-63.75,13.47-25.74,18.3-58.92-10.66-54.9-10.66,1.41-40.62,29.16-45.45,37-2.61,4.22-17.09,10.26-9.25.6,11.46-14.08,41.43-41.43,59.13-41.43ZM72.86,0c15.89,0,21.52,8.65,21.52,19.71,0,10.46-3.82,27.15-14.28,46.66-11.87,21.92-54.9,53.49-73.81,61.34-3.62,1.61-9.25-4.02-4.42-5.23,13.88-3.42,61.54-33.79,77.23-63.75C92.57,32.98,97.39-.2,68.44,3.82c-10.66,1.41-40.62,29.16-45.45,37-2.61,4.22-17.09,10.26-9.25.6C25.2,27.35,55.16,0,72.86,0Z"/>
  </g>
</svg>