<?xml version="1.0" encoding="UTF-8"?>
<svg id="Ebene_2" data-name="Ebene 2" xmlns="http://www.w3.org/2000/svg" viewBox="0 0 10.28 13.3">
  <defs>
    <style>
      .cls-1 {
        fill: #1d1d1b;
      }
    </style>
  </defs>
  <g id="Ebene_1-2" data-name="Ebene 1">
    <path class="cls-1" d="M1.5,13.3H0V.35h1.5v1.8c.6-.63,1.22-1.15,1.86-1.55.64-.4,1.41-.6,2.31-.6.8,0,1.54.14,2.23.41.68.28,1.26.75,1.72,1.44.32.47.5.95.56,1.44.06.49.09,1,.09,1.54v8.47h-1.5V4.85c0-1.17-.26-2.04-.78-2.62-.52-.58-1.38-.88-2.58-.88-.47,0-.89.07-1.27.21-.38.14-.73.33-1.04.56s-.57.5-.79.8-.38.62-.5.95c-.15.42-.24.82-.28,1.2-.03.38-.05.8-.05,1.25v6.97Z"/>
  </g>
</svg>