<?xml version="1.0" encoding="UTF-8"?>
<svg id="Ebene_2" data-name="Ebene 2" xmlns="http://www.w3.org/2000/svg" viewBox="0 0 5.85 23.21">
  <defs>
    <style>
      .cls-1 {
        fill: #1d1d1b;
      }
    </style>
  </defs>
  <g id="Ebene_1-2" data-name="Ebene 1">
    <path class="cls-1" d="M2.05,4c0-.73.05-1.36.16-1.88.11-.52.3-.94.57-1.26.28-.33.65-.55,1.11-.69C4.37.04,4.96-.01,5.67,0c-1.35.47-2.02,1.47-2.02,3.02v4.8c0,.48-.03.92-.08,1.32-.05.4-.15.76-.3,1.08-.15.32-.36.59-.62.81-.27.23-.62.4-1.05.51v.05c.82.18,1.36.56,1.64,1.12.28.57.41,1.32.41,2.25v5.15c0,.85.17,1.51.5,1.97.33.47.9.82,1.7,1.05v.05c-.73.02-1.35-.04-1.84-.18-.49-.13-.88-.35-1.17-.65-.29-.3-.5-.68-.61-1.14-.12-.46-.17-1-.17-1.64v-5.1c0-.77-.13-1.4-.39-1.9-.26-.5-.81-.83-1.66-1v-.05c.47-.13.83-.29,1.1-.46.27-.17.47-.38.61-.61.14-.23.23-.51.27-.83.04-.32.06-.68.06-1.1v-4.55Z"/>
  </g>
</svg>