<?xml version="1.0" encoding="UTF-8"?>
<svg id="Ebene_2" data-name="Ebene 2" xmlns="http://www.w3.org/2000/svg" viewBox="0 0 15.55 18.95">
  <defs>
    <style>
      .cls-1 {
        fill: #1d1d1b;
      }
    </style>
  </defs>
  <g id="Ebene_1-2" data-name="Ebene 1">
    <path class="cls-1" d="M13.6,5.7c-.35-1.53-1-2.62-1.95-3.27-.95-.65-2.19-.98-3.72-.98-1.08,0-2.02.22-2.8.65-.78.43-1.43,1.02-1.94,1.75-.51.73-.88,1.58-1.12,2.54-.24.96-.36,1.97-.36,3.04,0,1,.1,1.98.31,2.95.21.97.55,1.83,1.04,2.59.48.76,1.13,1.37,1.95,1.84.82.47,1.84.7,3.08.7.77,0,1.47-.12,2.1-.38.63-.25,1.19-.6,1.66-1.04.48-.44.88-.96,1.2-1.56.33-.6.57-1.26.74-1.97h1.78c-.2.87-.49,1.69-.88,2.46-.38.78-.89,1.46-1.51,2.04s-1.38,1.05-2.27,1.39c-.89.34-1.94.51-3.14.51-1.38,0-2.57-.25-3.55-.76-.98-.51-1.79-1.2-2.41-2.06-.62-.87-1.08-1.87-1.36-3.01s-.42-2.35-.42-3.64c0-1.72.21-3.17.64-4.38.42-1.2,1.01-2.18,1.76-2.94.75-.76,1.63-1.31,2.65-1.65,1.02-.34,2.12-.51,3.33-.51.92,0,1.77.12,2.56.36.79.24,1.49.6,2.1,1.09.61.48,1.11,1.08,1.5,1.79s.66,1.53.81,2.46h-1.75Z"/>
  </g>
</svg>