<?xml version="1.0" encoding="UTF-8"?>
<svg id="Ebene_2" data-name="Ebene 2" xmlns="http://www.w3.org/2000/svg" viewBox="0 0 11.82 17.97">
  <defs>
    <style>
      .cls-1 {
        fill: #1d1d1b;
      }
    </style>
  </defs>
  <g id="Ebene_1-2" data-name="Ebene 1">
    <path class="cls-1" d="M9.9,4.33c-.18-.9-.55-1.62-1.1-2.16-.55-.54-1.3-.81-2.25-.81-1.08,0-1.94.26-2.56.78s-1.1,1.17-1.44,1.96c-.33.79-.56,1.65-.67,2.59-.12.93-.21,1.82-.28,2.65.25-.33.51-.67.79-1,.28-.33.59-.63.94-.89.35-.26.76-.47,1.23-.62.47-.16,1.02-.24,1.67-.24,1.78,0,3.16.5,4.14,1.51.97,1.01,1.46,2.4,1.46,4.16s-.49,3.18-1.47,4.2-2.38,1.52-4.17,1.52c-.88,0-1.7-.15-2.45-.44-.75-.29-1.4-.77-1.95-1.44-.55-.67-.98-1.54-1.3-2.61s-.47-2.39-.47-3.94c0-1.05.09-2.14.27-3.26s.51-2.15.99-3.09c.48-.93,1.12-1.7,1.95-2.3.83-.6,1.89-.9,3.19-.9,1.4,0,2.57.37,3.5,1.1.93.73,1.48,1.81,1.65,3.23h-1.65ZM6.17,7.92c-.62,0-1.17.12-1.66.35-.49.23-.91.55-1.25.95-.34.4-.6.86-.79,1.39-.18.53-.28,1.09-.28,1.69,0,.5.07,1,.21,1.51.14.51.38.97.7,1.39s.74.76,1.24,1.02c.5.27,1.12.4,1.85.4s1.38-.13,1.89-.39c.51-.26.92-.6,1.24-1.02.32-.43.55-.9.69-1.43.14-.52.21-1.05.21-1.59,0-1.37-.33-2.42-.99-3.16-.66-.74-1.68-1.11-3.06-1.11Z"/>
  </g>
</svg>