<?xml version="1.0" encoding="UTF-8"?>
<svg id="Ebene_2" data-name="Ebene 2" xmlns="http://www.w3.org/2000/svg" viewBox="0 0 11.65 13.65">
  <defs>
    <style>
      .cls-1 {
        fill: #1d1d1b;
      }
    </style>
  </defs>
  <g id="Ebene_1-2" data-name="Ebene 1">
    <path class="cls-1" d="M1.6,7.17c0,.7.09,1.36.28,1.99s.45,1.17.81,1.62c.36.46.81.83,1.36,1.1.55.27,1.18.41,1.9.41.98,0,1.83-.26,2.52-.78.7-.52,1.17-1.25,1.4-2.2h1.67c-.18.62-.42,1.19-.72,1.71-.3.53-.67.98-1.12,1.38s-.98.7-1.6.91c-.62.22-1.33.32-2.15.32-1.03,0-1.92-.17-2.67-.52-.75-.35-1.37-.83-1.85-1.44s-.84-1.33-1.08-2.15-.35-1.71-.35-2.66.14-1.84.41-2.67c.28-.83.67-1.56,1.18-2.19.51-.62,1.13-1.12,1.86-1.48s1.57-.54,2.5-.54c1.78,0,3.18.61,4.2,1.84,1.02,1.23,1.52,3,1.5,5.34H1.6ZM10.05,5.92c0-.63-.09-1.23-.26-1.79-.17-.56-.43-1.04-.77-1.45-.34-.41-.77-.73-1.29-.98-.52-.24-1.11-.36-1.77-.36s-1.25.12-1.76.38c-.51.25-.94.58-1.3,1-.36.42-.65.9-.86,1.45-.22.55-.36,1.13-.43,1.75h8.45Z"/>
  </g>
</svg>