<?xml version="1.0" encoding="UTF-8"?>
<svg id="Ebene_2" data-name="Ebene 2" xmlns="http://www.w3.org/2000/svg" viewBox="0 0 11.53 13.65">
  <defs>
    <style>
      .cls-1 {
        fill: #1d1d1b;
      }
    </style>
  </defs>
  <g id="Ebene_1-2" data-name="Ebene 1">
    <path class="cls-1" d="M9.8,4.42c-.27-.97-.72-1.72-1.38-2.26-.65-.54-1.47-.81-2.47-.81-.77,0-1.42.16-1.97.48-.55.32-1,.74-1.35,1.26-.35.53-.61,1.12-.77,1.78-.17.66-.25,1.32-.25,1.99s.08,1.35.24,2c.16.65.41,1.23.76,1.75.35.52.8.93,1.35,1.24.55.31,1.22.46,2,.46,1.12,0,2.01-.31,2.69-.92s1.1-1.47,1.29-2.55h1.6c-.13.72-.35,1.37-.64,1.96-.29.59-.67,1.1-1.12,1.53-.46.42-1,.75-1.64.99s-1.36.35-2.17.35c-1.03,0-1.92-.17-2.67-.52-.75-.35-1.37-.83-1.85-1.44s-.84-1.33-1.07-2.16c-.23-.83-.35-1.72-.35-2.67,0-.9.13-1.76.39-2.59.26-.83.64-1.55,1.14-2.19.5-.63,1.12-1.14,1.86-1.51.74-.38,1.6-.56,2.56-.56,1.5,0,2.71.36,3.64,1.08s1.5,1.83,1.74,3.35h-1.53Z"/>
  </g>
</svg>