<?xml version="1.0" encoding="UTF-8"?>
<svg id="Ebene_2" data-name="Ebene 2" xmlns="http://www.w3.org/2000/svg" viewBox="0 0 16.05 18.95">
  <defs>
    <style>
      .cls-1 {
        fill: #1d1d1b;
      }
    </style>
  </defs>
  <g id="Ebene_1-2" data-name="Ebene 1">
    <path class="cls-1" d="M8.35,10.62v-1.45h7.7v9.3h-1.45v-3.08c-.32.53-.68,1.02-1.09,1.46-.41.44-.88.82-1.41,1.12s-1.15.55-1.85.71c-.7.17-1.49.25-2.38.25-1.13,0-2.18-.2-3.15-.6s-1.8-1-2.5-1.79c-.7-.79-1.25-1.79-1.64-2.99-.39-1.2-.59-2.6-.59-4.2,0-1.32.17-2.55.5-3.69.33-1.14.85-2.13,1.54-2.98.69-.84,1.56-1.5,2.6-1.99,1.04-.48,2.27-.72,3.69-.72.95,0,1.84.12,2.66.35s1.57.59,2.22,1.06,1.21,1.07,1.66,1.78c.45.71.77,1.55.97,2.51h-1.75c-.15-.67-.4-1.27-.76-1.8-.36-.53-.79-.98-1.29-1.34s-1.06-.63-1.67-.83c-.62-.19-1.26-.29-1.92-.29-1.18,0-2.2.21-3.05.62-.85.42-1.55,1-2.1,1.76-.55.76-.95,1.67-1.21,2.73-.26,1.06-.39,2.22-.39,3.49,0,1,.15,1.95.44,2.85.29.9.72,1.69,1.27,2.38.56.68,1.24,1.23,2.05,1.62.81.4,1.73.6,2.76.6.48,0,.98-.05,1.5-.16s1.02-.29,1.5-.54.93-.58,1.35-.98c.42-.4.77-.89,1.07-1.47.28-.57.48-1.16.59-1.78.11-.62.17-1.27.19-1.95h-6.08Z"/>
  </g>
</svg>