<?xml version="1.0" encoding="UTF-8"?>
<svg id="Ebene_2" data-name="Ebene 2" xmlns="http://www.w3.org/2000/svg" viewBox="0 0 11.78 17.8">
  <defs>
    <style>
      .cls-1 {
        fill: #1d1d1b;
      }
    </style>
  </defs>
  <g id="Ebene_1-2" data-name="Ebene 1">
    <path class="cls-1" d="M1.6,12.88c.17,1.2.65,2.1,1.44,2.69.79.59,1.76.89,2.91.89.65,0,1.24-.12,1.76-.35.52-.23.97-.55,1.34-.96s.65-.88.84-1.42c.19-.54.29-1.13.29-1.76s-.1-1.25-.31-1.8-.5-1.03-.88-1.42c-.38-.4-.83-.71-1.38-.93-.54-.22-1.15-.32-1.81-.32-.8,0-1.52.15-2.15.44-.63.29-1.19.75-1.68,1.39l-1.32-.17L2.08,0h8.75v1.35H3.42l-1.1,5.92c.35-.22.67-.4.96-.55.29-.15.59-.27.89-.36.3-.09.61-.15.94-.19.33-.03.69-.05,1.09-.05.8,0,1.54.13,2.22.4s1.28.65,1.78,1.15.89,1.11,1.16,1.84c.28.72.41,1.54.41,2.44s-.15,1.76-.46,2.49c-.31.73-.72,1.34-1.24,1.84s-1.11.88-1.79,1.14c-.67.26-1.37.39-2.09.39-.83,0-1.61-.08-2.34-.25-.72-.17-1.36-.45-1.91-.84s-1-.9-1.34-1.53-.55-1.4-.61-2.31h1.6Z"/>
  </g>
</svg>