<?xml version="1.0" encoding="UTF-8"?>
<svg id="Ebene_2" data-name="Ebene 2" xmlns="http://www.w3.org/2000/svg" viewBox="0 0 12.45 18">
  <defs>
    <style>
      .cls-1 {
        fill: #1d1d1b;
      }
    </style>
  </defs>
  <g id="Ebene_1-2" data-name="Ebene 1">
    <path class="cls-1" d="M0,18V0h6.58c1.17,0,2.13.13,2.89.4.76.27,1.36.63,1.8,1.1.44.47.75,1,.92,1.61s.26,1.25.26,1.91c0,1-.21,1.82-.61,2.47s-.94,1.16-1.59,1.54c-.65.38-1.39.64-2.21.79-.83.15-1.65.22-2.49.22H1.7v7.95H0ZM5.6,8.6c.8,0,1.52-.05,2.15-.15.63-.1,1.17-.29,1.61-.56.44-.28.78-.65,1.03-1.12.24-.48.36-1.1.36-1.86,0-1.13-.37-1.99-1.11-2.58-.74-.58-1.92-.88-3.54-.88H1.7v7.15h3.9Z"/>
  </g>
</svg>