<?xml version="1.0" encoding="UTF-8"?>
<svg id="Ebene_2" data-name="Ebene 2" xmlns="http://www.w3.org/2000/svg" viewBox="0 0 5.92 18.35">
  <defs>
    <style>
      .cls-1 {
        fill: #1d1d1b;
      }
    </style>
  </defs>
  <g id="Ebene_1-2" data-name="Ebene 1">
    <path class="cls-1" d="M0,6.65v-1.25h1.92v-2.05c0-1.03.21-1.85.62-2.45.42-.6,1.12-.9,2.12-.9.23,0,.45,0,.65.02s.4.04.6.08v1.38c-.33-.08-.63-.12-.9-.12-.38,0-.68.07-.9.21s-.38.33-.47.56c-.1.23-.16.5-.19.79-.03.29-.04.59-.04.89v1.6h2.5v1.25h-2.5v11.7h-1.5V6.65H0Z"/>
  </g>
</svg>