<?xml version="1.0" encoding="UTF-8"?>
<svg id="Ebene_2" data-name="Ebene 2" xmlns="http://www.w3.org/2000/svg" viewBox="0 0 11.85 17.97">
  <defs>
    <style>
      .cls-1 {
        fill: #1d1d1b;
      }
    </style>
  </defs>
  <g id="Ebene_1-2" data-name="Ebene 1">
    <path class="cls-1" d="M1.92,13.75c.18.95.55,1.67,1.11,2.15s1.33.72,2.31.72c1.05,0,1.89-.26,2.51-.78.62-.52,1.11-1.17,1.45-1.95.34-.78.57-1.63.7-2.54.12-.91.2-1.76.24-2.56l-.05-.05c-.53.9-1.2,1.58-1.99,2.05-.79.47-1.71.7-2.76.7-.83,0-1.58-.13-2.25-.4-.67-.27-1.24-.65-1.71-1.15-.48-.5-.84-1.1-1.1-1.8-.26-.7-.39-1.48-.39-2.33s.12-1.6.35-2.31.58-1.33,1.05-1.85c.47-.52,1.05-.93,1.76-1.22.71-.29,1.55-.44,2.51-.44,1.18,0,2.17.23,2.96.7.79.47,1.43,1.1,1.9,1.9.47.8.81,1.74,1.01,2.83.2,1.08.3,2.24.3,3.48,0,1.5-.16,2.81-.47,3.94-.32,1.12-.76,2.07-1.34,2.84s-1.25,1.34-2.04,1.73c-.78.38-1.64.57-2.58.57-.68,0-1.33-.08-1.92-.25-.6-.17-1.12-.42-1.58-.77-.45-.35-.82-.79-1.1-1.33s-.46-1.16-.52-1.88h1.62ZM5.67,1.35c-1.35.03-2.37.45-3.05,1.25-.68.8-1.03,1.89-1.03,3.28s.35,2.4,1.06,3.15c.71.75,1.71,1.12,3.01,1.12.62,0,1.17-.12,1.66-.35s.91-.55,1.25-.95c.34-.4.6-.86.78-1.39.17-.53.26-1.09.26-1.69,0-1.3-.35-2.35-1.05-3.16-.7-.81-1.67-1.23-2.9-1.26Z"/>
  </g>
</svg>