<?xml version="1.0" encoding="UTF-8"?>
<svg id="Ebene_2" data-name="Ebene 2" xmlns="http://www.w3.org/2000/svg" viewBox="0 0 11.5 23">
  <defs>
    <style>
      .cls-1 {
        fill: #1d1d1b;
      }
    </style>
  </defs>
  <g id="Ebene_1-2" data-name="Ebene 1">
    <path class="cls-1" d="M2.55,13.88c-.8-.5-1.42-1.04-1.88-1.62-.45-.58-.67-1.3-.67-2.15s.26-1.58.77-2.2c.52-.62,1.15-1.08,1.9-1.4-.38-.43-.7-.87-.95-1.3-.25-.43-.38-.96-.38-1.57,0-.48.1-.95.29-1.39.19-.44.48-.83.86-1.16.38-.33.86-.6,1.42-.79s1.22-.29,1.95-.29c1.4,0,2.47.4,3.22,1.2.75.8,1.12,1.89,1.1,3.28h-1.35c-.03-1.05-.29-1.83-.77-2.35-.48-.52-1.26-.78-2.33-.78-.8,0-1.47.2-2,.59-.53.39-.8,1-.8,1.84,0,.57.21,1.08.64,1.53.43.45.95.88,1.59,1.29.63.41,1.32.81,2.05,1.2s1.42.81,2.05,1.26c.63.45,1.16.95,1.59,1.51s.64,1.2.64,1.91c0,.48-.08.91-.23,1.29-.15.38-.35.72-.6,1.03s-.54.59-.88.84c-.33.25-.68.5-1.05.75.08.08.21.2.38.36.17.16.33.35.49.58.16.22.3.49.41.8.12.31.18.65.18,1.01,0,.63-.12,1.19-.35,1.67s-.55.89-.95,1.21c-.4.33-.87.57-1.4.74-.53.17-1.1.25-1.7.25-1.42,0-2.53-.41-3.34-1.23s-1.25-1.92-1.31-3.33h1.5c0,1.03.26,1.83.79,2.38.53.55,1.32.83,2.37.83.35,0,.69-.05,1.03-.15.33-.1.63-.25.89-.45s.47-.45.63-.74c.16-.29.24-.63.24-1.01s-.09-.76-.26-1.09c-.17-.33-.4-.62-.67-.9-.27-.28-.58-.53-.9-.75-.33-.23-.64-.44-.94-.64l-3.28-2.05ZM3.55,7.3c-.67.28-1.2.63-1.6,1.05-.4.42-.6.93-.6,1.55,0,.32.07.61.2.88.13.27.3.51.5.74.2.23.42.43.67.62.25.19.5.37.75.54l4.45,2.88c.27-.15.53-.32.8-.5s.51-.39.73-.62c.22-.23.39-.49.51-.76s.19-.59.19-.94-.07-.64-.21-.91c-.14-.28-.33-.53-.55-.75s-.47-.43-.74-.61c-.27-.18-.52-.35-.77-.5l-4.33-2.65Z"/>
  </g>
</svg>