<?xml version="1.0" encoding="UTF-8"?>
<svg id="Ebene_2" data-name="Ebene 2" xmlns="http://www.w3.org/2000/svg" viewBox="0 0 10.2 13.65">
  <defs>
    <style>
      .cls-1 {
        fill: #1d1d1b;
      }
    </style>
  </defs>
  <g id="Ebene_1-2" data-name="Ebene 1">
    <path class="cls-1" d="M1.52,9.25c.23,1.12.65,1.9,1.26,2.36.61.46,1.48.69,2.61.69.55,0,1.03-.07,1.42-.2.4-.13.73-.31.99-.54.26-.23.45-.48.59-.76s.2-.58.2-.9c0-.63-.2-1.1-.61-1.41-.41-.31-.92-.55-1.54-.72-.62-.18-1.28-.33-2-.45s-1.38-.31-2-.56c-.62-.25-1.13-.61-1.54-1.08s-.61-1.12-.61-1.97c0-1.08.4-1.97,1.19-2.66.79-.69,1.91-1.04,3.36-1.04s2.54.31,3.41.94,1.4,1.67,1.59,3.14h-1.53c-.13-1-.51-1.7-1.14-2.11-.62-.41-1.41-.61-2.36-.61s-1.67.2-2.17.61c-.5.41-.75.95-.75,1.61,0,.58.2,1.03.61,1.34.41.31.92.56,1.54.75.62.19,1.28.36,2,.51.72.15,1.38.36,2,.64.62.27,1.13.65,1.54,1.11s.61,1.12.61,1.95c0,.62-.13,1.16-.4,1.64-.27.47-.63.87-1.1,1.19s-1.02.55-1.66.71-1.35.24-2.11.24-1.45-.11-2.04-.34c-.59-.23-1.1-.54-1.51-.94-.42-.4-.74-.87-.98-1.4-.23-.53-.37-1.11-.4-1.72h1.52Z"/>
  </g>
</svg>