<?xml version="1.0" encoding="UTF-8"?>
<svg id="Ebene_2" data-name="Ebene 2" xmlns="http://www.w3.org/2000/svg" viewBox="0 0 11.6 18.05">
  <defs>
    <style>
      .cls-1 {
        fill: #1d1d1b;
      }
    </style>
  </defs>
  <g id="Ebene_1-2" data-name="Ebene 1">
    <path class="cls-1" d="M1.25,16.45c.2.03.4.07.61.1.21.03.42.05.64.05.42,0,.76-.13,1.02-.4.27-.27.49-.59.66-.96.17-.37.32-.77.44-1.17.12-.41.25-.75.4-1.04L0,0h1.67l4.15,11.12L9.97,0h1.62l-4.83,12.78c-.3.82-.59,1.55-.86,2.2-.27.65-.57,1.2-.88,1.66-.31.46-.65.81-1.02,1.05s-.82.36-1.34.36c-.27,0-.52-.02-.76-.05s-.46-.08-.66-.12v-1.42Z"/>
  </g>
</svg>