<?xml version="1.0" encoding="UTF-8"?>
<svg id="Ebene_2" data-name="Ebene 2" xmlns="http://www.w3.org/2000/svg" viewBox="0 0 11.95 17.97">
  <defs>
    <style>
      .cls-1 {
        fill: #1d1d1b;
      }
    </style>
  </defs>
  <g id="Ebene_1-2" data-name="Ebene 1">
    <path class="cls-1" d="M4.68,7.83c.75,0,1.43-.05,2.05-.14.62-.09,1.15-.27,1.59-.53.44-.26.79-.6,1.04-1.04s.38-.99.38-1.67c0-.55-.1-1.02-.3-1.41-.2-.39-.47-.71-.81-.96-.34-.25-.74-.43-1.2-.55-.46-.12-.94-.18-1.44-.18-.57,0-1.08.09-1.54.28-.46.18-.85.45-1.19.79-.33.34-.59.74-.77,1.2-.18.46-.28.96-.28,1.51H.6c0-.8.14-1.52.41-2.16.28-.64.7-1.24,1.29-1.79.55-.5,1.17-.82,1.86-.96.69-.14,1.4-.21,2.14-.21s1.35.09,1.96.26,1.14.44,1.59.8.81.81,1.08,1.36c.27.55.4,1.19.4,1.92,0,.92-.2,1.71-.61,2.38-.41.67-1.04,1.18-1.89,1.55.63.2,1.15.46,1.56.79s.73.68.96,1.08.39.8.47,1.24.12.85.12,1.25c0,.73-.12,1.42-.38,2.05-.25.63-.62,1.19-1.1,1.67-.48.48-1.08.87-1.79,1.16-.71.29-1.51.45-2.41.46-1.02,0-1.9-.09-2.65-.27-.75-.18-1.38-.49-1.88-.91-.5-.42-.89-.98-1.17-1.67-.28-.69-.47-1.55-.58-2.59h1.6c0,1.35.4,2.37,1.21,3.06s1.86,1.04,3.16,1.04c.63,0,1.22-.11,1.77-.33.55-.22,1.02-.51,1.41-.88.39-.37.69-.79.9-1.27.21-.48.3-.98.29-1.5-.03-.72-.2-1.31-.5-1.79-.3-.47-.7-.85-1.21-1.12-.51-.27-1.1-.46-1.79-.55-.68-.09-1.41-.11-2.17-.06v-1.3Z"/>
  </g>
</svg>