<?xml version="1.0" encoding="UTF-8"?>
<svg id="Ebene_2" data-name="Ebene 2" xmlns="http://www.w3.org/2000/svg" viewBox="0 0 18 18.95">
  <defs>
    <style>
      .cls-1 {
        fill: #1d1d1b;
      }
    </style>
  </defs>
  <g id="Ebene_1-2" data-name="Ebene 1">
    <path class="cls-1" d="M17.58,14.3c-.4.73-.89,1.39-1.48,1.96-.58.58-1.23,1.06-1.94,1.46-.71.4-1.46.7-2.26.91-.8.21-1.61.31-2.43.31-1.33,0-2.58-.25-3.74-.75s-2.16-1.18-3.01-2.05c-.85-.87-1.52-1.88-2-3.04s-.72-2.4-.72-3.71.25-2.52.75-3.66,1.18-2.14,2.04-2.99c.86-.85,1.85-1.52,2.99-2.01,1.13-.49,2.33-.74,3.6-.74,1.2,0,2.33.2,3.38.59s1.96.94,2.74,1.64c.78.7,1.39,1.53,1.84,2.5s.67,2.03.67,3.17c0,.98-.18,1.92-.54,2.8-.36.88-.82,1.66-1.38,2.33-.56.67-1.18,1.2-1.88,1.59-.69.39-1.37.59-2.04.59-.43,0-.86-.1-1.29-.31-.42-.21-.71-.54-.86-.99-.38.38-.84.69-1.38.91-.53.22-1.07.34-1.6.34s-1.02-.1-1.45-.3c-.43-.2-.8-.47-1.1-.81-.3-.34-.53-.74-.69-1.18-.16-.45-.24-.93-.24-1.45,0-.83.15-1.69.45-2.58.3-.89.72-1.71,1.26-2.44.54-.74,1.19-1.35,1.95-1.82.76-.47,1.6-.71,2.54-.71.58,0,1.13.14,1.65.42.52.28.9.69,1.15,1.22l.38-1.15h1.67l-2.53,7.53c-.1.28-.18.54-.24.79s-.08.45-.06.64c.02.18.08.33.19.44.11.11.29.16.54.16.52,0,1.02-.19,1.5-.58.48-.38.91-.87,1.27-1.46s.66-1.25.88-1.96c.22-.72.33-1.41.33-2.08,0-1.02-.19-1.93-.58-2.75-.38-.82-.9-1.51-1.55-2.07s-1.4-1-2.25-1.3c-.85-.3-1.75-.45-2.7-.45-1.15,0-2.21.22-3.19.66-.97.44-1.81,1.04-2.51,1.8-.7.76-1.25,1.64-1.64,2.65-.39,1.01-.59,2.08-.59,3.21s.2,2.19.61,3.18.97,1.84,1.69,2.57c.72.73,1.56,1.31,2.53,1.74.97.42,2.02.64,3.15.64.65,0,1.29-.07,1.91-.22s1.22-.37,1.8-.66c.58-.29,1.11-.65,1.6-1.08.49-.42.93-.9,1.31-1.44h1.48ZM7.42,13.57c.57,0,1.1-.23,1.6-.7s.94-1.03,1.31-1.69.67-1.36.89-2.1c.22-.74.33-1.4.33-1.96,0-.48-.16-.91-.47-1.28-.32-.37-.73-.55-1.25-.55-.67,0-1.27.2-1.8.61-.53.41-.99.92-1.36,1.53s-.67,1.26-.88,1.95c-.21.69-.31,1.32-.31,1.89,0,.6.17,1.13.5,1.6.33.47.82.7,1.45.7Z"/>
  </g>
</svg>