<?xml version="1.0" encoding="UTF-8"?>
<svg id="Ebene_2" data-name="Ebene 2" xmlns="http://www.w3.org/2000/svg" viewBox="0 0 17.6 13.3">
  <defs>
    <style>
      .cls-1 {
        fill: #1d1d1b;
      }
    </style>
  </defs>
  <g id="Ebene_1-2" data-name="Ebene 1">
    <path class="cls-1" d="M1.5,13.3H0V.35h1.5v1.95h.05c.38-.75.93-1.32,1.65-1.71.72-.39,1.5-.59,2.35-.59.6,0,1.11.07,1.52.2.42.13.77.31,1.06.54s.53.49.73.79c.19.3.35.62.49.98.43-.85,1.01-1.48,1.74-1.89s1.55-.61,2.49-.61c.88,0,1.59.15,2.11.44.53.29.93.67,1.21,1.15.28.48.47,1.02.56,1.64.09.62.14,1.25.14,1.9v8.17h-1.5V4.35c0-.93-.2-1.67-.59-2.2-.39-.53-1.12-.8-2.19-.8-.55,0-1.08.12-1.59.36-.51.24-.96.61-1.34,1.11-.17.22-.3.47-.41.76-.11.29-.2.6-.26.91-.07.32-.11.63-.14.95s-.04.61-.04.88v6.97h-1.5V4.35c0-.93-.2-1.67-.59-2.2-.39-.53-1.12-.8-2.19-.8-.55,0-1.08.12-1.59.36-.51.24-.95.61-1.34,1.11-.17.22-.3.47-.41.76-.11.29-.2.6-.26.91-.07.32-.11.63-.14.95-.03.32-.04.61-.04.88v6.97Z"/>
  </g>
</svg>