<?xml version="1.0" encoding="UTF-8"?>
<svg id="Ebene_2" data-name="Ebene 2" xmlns="http://www.w3.org/2000/svg" viewBox="0 0 13.22 18">
  <defs>
    <style>
      .cls-1 {
        fill: #1d1d1b;
      }
    </style>
  </defs>
  <g id="Ebene_1-2" data-name="Ebene 1">
    <path class="cls-1" d="M0,18V0h6.5c1.05,0,1.95.11,2.7.33s1.36.52,1.84.92.82.88,1.04,1.44.33,1.17.33,1.84-.08,1.18-.25,1.64c-.17.46-.38.84-.65,1.15-.27.31-.57.55-.91.72-.34.18-.7.3-1.06.36v.05c1.25.18,2.18.67,2.79,1.47.61.8.91,1.8.91,3,0,.93-.15,1.73-.44,2.38-.29.65-.7,1.17-1.21,1.58s-1.14.69-1.86.86c-.72.17-1.51.26-2.36.26H0ZM1.7,7.95h4.3c.88,0,1.62-.08,2.22-.23.6-.15,1.08-.37,1.45-.66.37-.29.63-.65.79-1.08s.24-.91.24-1.46-.09-1.05-.27-1.44c-.18-.39-.48-.71-.88-.95-.4-.24-.92-.42-1.56-.53s-1.43-.16-2.36-.16H1.7v6.5ZM1.7,16.55h4.33c.93,0,1.75-.04,2.44-.12.69-.08,1.26-.25,1.71-.51.45-.26.79-.62,1.01-1.1.22-.47.34-1.1.34-1.89s-.12-1.35-.38-1.81c-.25-.46-.61-.81-1.08-1.06s-1.02-.42-1.67-.51c-.65-.09-1.38-.14-2.17-.14H1.7v7.15Z"/>
  </g>
</svg>