<?xml version="1.0" encoding="UTF-8"?>
<svg id="Ebene_2" data-name="Ebene 2" xmlns="http://www.w3.org/2000/svg" viewBox="0 0 11.9 18.4">
  <defs>
    <style>
      .cls-1 {
        fill: #1d1d1b;
      }
    </style>
  </defs>
  <g id="Ebene_1-2" data-name="Ebene 1">
    <path class="cls-1" d="M1.5,18.4H0V.35h1.5v2.28h.05c.22-.42.5-.79.84-1.12s.72-.61,1.12-.83.83-.38,1.26-.5c.43-.12.86-.17,1.28-.17,1.05,0,1.94.17,2.67.52.73.35,1.34.83,1.81,1.44.47.61.82,1.33,1.04,2.16s.33,1.72.33,2.67c0,.9-.12,1.77-.35,2.6-.23.83-.59,1.56-1.06,2.19-.48.62-1.08,1.12-1.8,1.5-.72.38-1.58.56-2.56.56-.92,0-1.8-.2-2.64-.61-.84-.41-1.5-1.01-1.99-1.81v7.17ZM1.5,6.88c0,.73.1,1.43.3,2.09.2.66.49,1.23.86,1.73s.83.88,1.38,1.17c.54.29,1.15.44,1.84.44.77,0,1.44-.15,2.01-.46.58-.31,1.05-.73,1.41-1.26.37-.53.63-1.15.8-1.86.17-.71.23-1.47.2-2.29,0-.82-.11-1.54-.34-2.16s-.54-1.15-.94-1.59-.87-.76-1.4-.99c-.53-.23-1.12-.34-1.75-.34-.7,0-1.32.14-1.88.42-.55.28-1.01.67-1.38,1.16-.37.49-.65,1.08-.84,1.75-.19.67-.29,1.4-.29,2.19Z"/>
  </g>
</svg>