<?xml version="1.0" encoding="UTF-8"?>
<svg id="Ebene_2" data-name="Ebene 2" xmlns="http://www.w3.org/2000/svg" viewBox="0 0 5.85 16.9">
  <defs>
    <style>
      .cls-1 {
        fill: #1d1d1b;
      }
    </style>
  </defs>
  <g id="Ebene_1-2" data-name="Ebene 1">
    <path class="cls-1" d="M5.85,16.6c-.18.03-.42.09-.72.17-.3.08-.63.12-1,.12-.75,0-1.32-.19-1.71-.56s-.59-1.04-.59-2.01V4.85H0v-1.25h1.83V0h1.5v3.6h2.42v1.25h-2.42v8.88c0,.32,0,.59.02.83s.07.42.15.58c.08.15.21.26.39.33s.42.1.74.1c.2,0,.4-.02.61-.05s.41-.08.61-.12v1.22Z"/>
  </g>
</svg>