<?xml version="1.0" encoding="UTF-8"?>
<svg id="Ebene_2" data-name="Ebene 2" xmlns="http://www.w3.org/2000/svg" viewBox="0 0 3.65 23.1">
  <defs>
    <style>
      .cls-1 {
        fill: #1d1d1b;
      }
    </style>
  </defs>
  <g id="Ebene_1-2" data-name="Ebene 1">
    <path class="cls-1" d="M3.58,5.05v14.67c0,.55-.03,1.03-.08,1.45s-.16.77-.34,1.06c-.17.29-.43.51-.77.65-.34.14-.81.21-1.41.21-.37,0-.69-.03-.97-.1v-1.33c.43.05.78.05,1.05.01.27-.04.48-.14.62-.29s.25-.35.31-.6.09-.54.09-.88V5.05h1.5ZM3.65,2.22h-1.65V0h1.65v2.22Z"/>
  </g>
</svg>