<?xml version="1.0" encoding="UTF-8"?>
<svg id="Ebene_2" data-name="Ebene 2" xmlns="http://www.w3.org/2000/svg" viewBox="0 0 5.52 23.25">
  <defs>
    <style>
      .cls-1 {
        fill: #1d1d1b;
      }
    </style>
  </defs>
  <g id="Ebene_1-2" data-name="Ebene 1">
    <path class="cls-1" d="M0,23.25c1.2-1.73,2.14-3.59,2.81-5.56.67-1.98,1.01-4.02,1.01-6.14s-.35-4.1-1.05-6.05C2.07,3.55,1.15,1.72,0,0h1.27c.68.95,1.29,1.87,1.82,2.76.53.89.98,1.8,1.33,2.73.35.92.62,1.89.81,2.9.19,1.01.28,2.1.28,3.29s-.09,2.23-.28,3.24c-.19,1.01-.46,1.98-.83,2.91-.36.93-.81,1.85-1.34,2.74-.53.89-1.13,1.79-1.8,2.69H0Z"/>
  </g>
</svg>