<?xml version="1.0" encoding="UTF-8"?>
<svg id="Ebene_2" data-name="Ebene 2" xmlns="http://www.w3.org/2000/svg" viewBox="0 0 10.87 18.47">
  <defs>
    <style>
      .cls-1 {
        fill: #1d1d1b;
      }
    </style>
  </defs>
  <g id="Ebene_1-2" data-name="Ebene 1">
    <path class="cls-1" d="M4.47,13.92c-.02-.92.04-1.75.19-2.5.14-.75.54-1.47,1.19-2.15.37-.38.75-.76,1.15-1.12.4-.37.77-.74,1.1-1.11.33-.38.61-.76.84-1.16.23-.4.34-.83.34-1.3s-.09-.87-.26-1.26-.43-.73-.76-1.03c-.33-.29-.74-.52-1.23-.69-.49-.17-1.04-.25-1.66-.25s-1.17.11-1.66.33-.89.52-1.22.9c-.33.38-.57.83-.74,1.34-.17.51-.24,1.06-.23,1.66H.02c-.07-.83.02-1.59.27-2.27s.62-1.27,1.11-1.76,1.08-.87,1.76-1.14,1.43-.4,2.25-.4,1.61.11,2.29.34c.67.23,1.25.54,1.71.95s.83.9,1.08,1.49c.25.58.38,1.23.38,1.92,0,.73-.16,1.36-.49,1.89-.33.53-.72,1.01-1.19,1.46s-.95.9-1.45,1.36c-.5.46-.93.97-1.3,1.54-.28.43-.44.91-.47,1.44-.03.53-.05,1.04-.05,1.54h-1.45ZM4.32,18.47v-2.2h1.83v2.2h-1.83Z"/>
  </g>
</svg>