<?xml version="1.0" encoding="UTF-8"?>
<svg id="Ebene_2" data-name="Ebene 2" xmlns="http://www.w3.org/2000/svg" viewBox="0 0 9.83 18.47">
  <defs>
    <style>
      .cls-1 {
        fill: #1d1d1b;
      }
    </style>
  </defs>
  <g id="Ebene_1-2" data-name="Ebene 1">
    <path class="cls-1" d="M1.7,12.3c0,.57.02,1.12.06,1.67.04.55.17,1.05.38,1.49.21.44.53.8.97,1.06s1.05.4,1.84.4c1.17,0,1.99-.33,2.46-1,.47-.67.71-1.63.71-2.9V0h1.7v13.08c0,1.75-.41,3.09-1.22,4.01-.82.92-2.1,1.39-3.85,1.39-1.02,0-1.83-.17-2.45-.51-.62-.34-1.1-.8-1.44-1.38-.34-.58-.57-1.23-.69-1.98-.12-.74-.17-1.51-.17-2.31h1.7Z"/>
  </g>
</svg>