<?xml version="1.0" encoding="UTF-8"?>
<svg id="Ebene_2" data-name="Ebene 2" xmlns="http://www.w3.org/2000/svg" viewBox="0 0 16.77 19.77">
  <defs>
    <style>
      .cls-1 {
        fill: #1d1d1b;
      }
    </style>
  </defs>
  <g id="Ebene_1-2" data-name="Ebene 1">
    <path class="cls-1" d="M16.47,18.62l-.95,1.15-2.65-2.05c-.62.38-1.3.68-2.04.9-.74.22-1.56.32-2.46.32-1.38,0-2.6-.25-3.65-.75s-1.92-1.18-2.62-2.04-1.22-1.86-1.58-3c-.35-1.14-.52-2.36-.52-3.66s.17-2.45.51-3.59c.34-1.14.85-2.15,1.54-3.03s1.55-1.57,2.59-2.1c1.04-.53,2.26-.79,3.66-.79,1.27,0,2.42.21,3.46.62,1.04.42,1.93,1.02,2.67,1.82.74.8,1.32,1.79,1.72,2.98s.61,2.54.61,4.08-.22,2.82-.67,4.07-1.12,2.32-2.02,3.2l2.4,1.85ZM12.83,15.8c.77-.73,1.33-1.65,1.7-2.76.37-1.11.55-2.29.55-3.54,0-1.35-.17-2.53-.51-3.53-.34-1-.81-1.84-1.41-2.51-.6-.67-1.31-1.18-2.12-1.51-.82-.33-1.71-.5-2.67-.5-1.15,0-2.15.23-2.99.68-.84.45-1.53,1.05-2.08,1.8s-.94,1.61-1.2,2.58c-.26.97-.39,1.97-.39,3s.13,2.08.39,3.05c.26.97.66,1.82,1.2,2.55s1.23,1.32,2.08,1.75,1.85.65,3.04.65c.63,0,1.21-.07,1.73-.21s.99-.34,1.42-.59l-2.05-1.57.9-1.18,2.43,1.85Z"/>
  </g>
</svg>