<?xml version="1.0" encoding="UTF-8"?>
<svg id="Ebene_2" data-name="Ebene 2" xmlns="http://www.w3.org/2000/svg" viewBox="0 0 10.28 13.3">
  <defs>
    <style>
      .cls-1 {
        fill: #1d1d1b;
      }
    </style>
  </defs>
  <g id="Ebene_1-2" data-name="Ebene 1">
    <path class="cls-1" d="M8.78,0h1.5v12.95h-1.5v-1.8c-.2.23-.42.47-.67.72s-.54.48-.86.69c-.32.21-.7.38-1.14.53-.43.14-.93.21-1.5.21-.87,0-1.59-.12-2.18-.36-.58-.24-1.05-.58-1.41-1.01-.36-.43-.62-.94-.78-1.51-.16-.58-.24-1.2-.24-1.89V0h1.5v8.5c0,1.12.26,1.97.78,2.56.52.59,1.37.89,2.55.89.62,0,1.17-.12,1.66-.36.49-.24.9-.58,1.24-1.01.33-.43.59-.95.77-1.55.18-.6.28-1.26.28-1.98V0Z"/>
  </g>
</svg>