<?xml version="1.0" encoding="UTF-8"?>
<svg id="Ebene_2" data-name="Ebene 2" xmlns="http://www.w3.org/2000/svg" viewBox="0 0 13.1 18.95">
  <defs>
    <style>
      .cls-1 {
        fill: #1d1d1b;
      }
    </style>
  </defs>
  <g id="Ebene_1-2" data-name="Ebene 1">
    <path class="cls-1" d="M1.65,13.1c.07.8.25,1.48.54,2.04.29.56.67,1.01,1.12,1.36.46.35.99.6,1.59.76.6.16,1.24.24,1.93.24.8,0,1.49-.1,2.07-.3.58-.2,1.06-.47,1.43-.81.37-.34.64-.74.81-1.19.17-.45.26-.92.26-1.42,0-.7-.16-1.27-.47-1.7-.32-.43-.73-.79-1.24-1.06-.51-.27-1.09-.5-1.75-.66-.66-.17-1.33-.33-2.03-.49s-1.37-.35-2.02-.56c-.66-.22-1.24-.51-1.75-.88-.51-.37-.92-.84-1.24-1.41-.32-.57-.47-1.3-.47-2.19,0-.62.13-1.22.39-1.8.26-.58.64-1.1,1.15-1.55.51-.45,1.15-.81,1.91-1.08s1.65-.4,2.65-.4,1.9.14,2.66.42c.76.28,1.39.67,1.89,1.16.5.49.88,1.06,1.12,1.71.25.65.38,1.34.38,2.08h-1.62c0-.68-.12-1.28-.36-1.78-.24-.5-.57-.91-.99-1.22s-.89-.55-1.42-.7c-.53-.15-1.08-.23-1.65-.23-.87,0-1.6.12-2.19.36-.59.24-1.06.55-1.41.94-.35.38-.59.81-.72,1.27-.13.47-.16.93-.08,1.4.1.58.33,1.05.7,1.4.37.35.82.64,1.35.86.53.22,1.12.41,1.76.55s1.3.29,1.96.45c.67.16,1.31.35,1.94.56s1.18.51,1.66.88c.48.37.87.84,1.16,1.41s.44,1.3.44,2.16c0,1.67-.58,2.96-1.72,3.88-1.15.92-2.77,1.38-4.85,1.38-.93,0-1.8-.12-2.6-.36s-1.49-.61-2.08-1.1-1.04-1.1-1.36-1.83-.49-1.58-.49-2.56h1.65Z"/>
  </g>
</svg>