<?xml version="1.0" encoding="UTF-8"?>
<svg id="Ebene_2" data-name="Ebene 2" xmlns="http://www.w3.org/2000/svg" viewBox="0 0 15.1 18.47">
  <defs>
    <style>
      .cls-1 {
        fill: #1d1d1b;
      }
    </style>
  </defs>
  <g id="Ebene_1-2" data-name="Ebene 1">
    <path class="cls-1" d="M11.17,13.35c.32-.53.52-1.1.61-1.69.09-.59.14-1.2.14-1.81h1.5c-.03.82-.14,1.63-.31,2.44-.18.81-.49,1.56-.94,2.26l2.93,3.45h-2.03l-1.75-2.12c-.79.93-1.63,1.6-2.53,2-.9.4-1.95.6-3.16.6-.79,0-1.52-.13-2.2-.39-.68-.26-1.28-.62-1.79-1.09-.51-.47-.91-1.03-1.2-1.69-.29-.66-.44-1.39-.44-2.19,0-.67.12-1.28.35-1.85s.55-1.08.94-1.55c.39-.47.85-.88,1.36-1.24s1.07-.67,1.65-.94c-.48-.57-.92-1.18-1.33-1.84s-.6-1.39-.6-2.19c0-.57.11-1.07.32-1.51s.51-.81.88-1.11c.37-.3.8-.53,1.29-.68.49-.15,1.01-.22,1.56-.22s1.06.09,1.52.28.87.43,1.2.75.59.69.78,1.11c.18.42.27.87.27,1.34,0,.6-.1,1.12-.29,1.56-.19.44-.45.83-.78,1.18-.32.34-.7.65-1.14.94-.43.28-.88.57-1.35.85l4.53,5.35ZM5.2,8.62c-.5.23-.96.51-1.39.84-.43.32-.79.69-1.1,1.09-.31.4-.55.83-.74,1.29-.18.46-.28.93-.28,1.41,0,.6.1,1.14.31,1.61.21.48.49.88.85,1.21s.78.59,1.27.77c.49.18,1.03.28,1.61.28.97,0,1.82-.22,2.56-.66.74-.44,1.41-1.02,2.01-1.74l-5.12-6.1ZM8.4,4.5c.15-.33.21-.69.19-1.06-.02-.38-.13-.72-.33-1.03-.19-.31-.45-.56-.79-.76-.33-.2-.73-.3-1.2-.3-.32,0-.62.05-.9.15-.28.1-.54.24-.76.42-.23.18-.4.41-.54.67-.13.27-.2.57-.2.9,0,.27.07.56.2.88.13.32.3.62.49.92.19.3.4.59.61.86.22.28.41.51.58.71.5-.3,1-.63,1.51-.99.51-.36.89-.82,1.14-1.39Z"/>
  </g>
</svg>