<?xml version="1.0" encoding="UTF-8"?>
<svg id="Ebene_2" data-name="Ebene 2" xmlns="http://www.w3.org/2000/svg" viewBox="0 0 11.67 17.62">
  <defs>
    <style>
      .cls-1 {
        fill: #1d1d1b;
      }
    </style>
  </defs>
  <g id="Ebene_1-2" data-name="Ebene 1">
    <path class="cls-1" d="M.52,5.78c0-.87.13-1.65.4-2.36.27-.71.65-1.32,1.15-1.82.5-.51,1.1-.9,1.81-1.18.71-.27,1.5-.41,2.36-.41s1.66.13,2.34.39c.68.26,1.24.6,1.7,1.04.46.43.8.95,1.04,1.55.23.6.35,1.23.35,1.9,0,.78-.13,1.47-.39,2.08-.26.6-.6,1.13-1.02,1.6-.43.47-.91.88-1.45,1.25-.54.37-1.1.71-1.66,1.04-.57.32-1.12.64-1.67.94-.55.3-1.04.62-1.47.95-.28.22-.56.45-.83.69-.27.24-.51.5-.72.79-.22.28-.39.6-.53.94-.13.34-.21.72-.22,1.14h9.82v1.35H0c.02-.85.11-1.62.27-2.3.17-.68.53-1.35,1.1-2,.62-.7,1.25-1.3,1.91-1.8s1.3-.95,1.94-1.34,1.23-.75,1.8-1.08,1.07-.68,1.5-1.06c.43-.38.78-.82,1.03-1.3s.38-1.08.38-1.78c0-.57-.1-1.07-.3-1.52s-.48-.83-.83-1.15c-.35-.32-.76-.55-1.22-.71-.47-.16-.98-.24-1.53-.24-.58,0-1.11.12-1.59.36-.47.24-.88.56-1.22.96-.34.4-.6.87-.79,1.4-.18.53-.26,1.1-.23,1.7H.52Z"/>
  </g>
</svg>