<?xml version="1.0" encoding="UTF-8"?>
<svg id="Ebene_2" data-name="Ebene 2" xmlns="http://www.w3.org/2000/svg" viewBox="0 0 13.95 18.47">
  <defs>
    <style>
      .cls-1 {
        fill: #1d1d1b;
      }
    </style>
  </defs>
  <g id="Ebene_1-2" data-name="Ebene 1">
    <path class="cls-1" d="M0,0h1.7v10.72c0,2.23.42,3.84,1.25,4.83.83.98,2.17,1.48,4.03,1.48.97,0,1.79-.13,2.46-.39s1.22-.65,1.64-1.17c.42-.53.72-1.18.9-1.96.18-.78.27-1.71.27-2.78V0h1.7v11.22c0,2.35-.58,4.15-1.74,5.39-1.16,1.24-2.9,1.86-5.24,1.86s-4.1-.63-5.25-1.9c-1.15-1.27-1.73-3.05-1.73-5.35V0Z"/>
  </g>
</svg>