<?xml version="1.0" encoding="UTF-8"?>
<svg id="Ebene_2" data-name="Ebene 2" xmlns="http://www.w3.org/2000/svg" viewBox="0 0 13.3 18">
  <defs>
    <style>
      .cls-1 {
        fill: #1d1d1b;
      }
    </style>
  </defs>
  <g id="Ebene_1-2" data-name="Ebene 1">
    <path class="cls-1" d="M1.7,9.83v8.17l-1.7-.03V0h7.05c1.98,0,3.5.37,4.55,1.11,1.05.74,1.58,1.95,1.58,3.61,0,1.13-.23,2.03-.69,2.7-.46.67-1.2,1.23-2.24,1.7.53.18.95.45,1.25.8.3.35.53.75.67,1.2.15.45.25.92.29,1.42.04.5.07.98.09,1.45.02.68.05,1.25.09,1.7.04.45.09.82.15,1.1.06.28.13.5.21.66.08.16.18.28.3.36v.15l-1.88.03c-.18-.3-.31-.72-.39-1.25-.07-.53-.13-1.09-.17-1.67s-.08-1.15-.1-1.7c-.03-.55-.07-1-.14-1.35-.1-.48-.26-.87-.49-1.16-.23-.29-.5-.51-.81-.66-.32-.15-.67-.25-1.06-.3-.39-.05-.8-.08-1.21-.08H1.7ZM7,8.38c.63,0,1.22-.07,1.76-.2.54-.13,1.01-.35,1.41-.64.4-.29.72-.66.95-1.11s.35-.99.35-1.62c0-.67-.12-1.22-.36-1.65s-.57-.78-.97-1.03c-.41-.25-.88-.42-1.4-.53-.52-.1-1.07-.15-1.64-.15H1.7v6.92h5.3Z"/>
  </g>
</svg>