<?xml version="1.0" encoding="UTF-8"?>
<svg id="Ebene_2" data-name="Ebene 2" xmlns="http://www.w3.org/2000/svg" viewBox="0 0 11.7 17.98">
  <defs>
    <style>
      .cls-1 {
        fill: #1d1d1b;
      }
    </style>
  </defs>
  <g id="Ebene_1-2" data-name="Ebene 1">
    <path class="cls-1" d="M3.08,8.15c-.43-.27-.8-.52-1.11-.76s-.56-.5-.76-.79c-.2-.28-.35-.6-.44-.96s-.14-.8-.14-1.34c0-.6.13-1.17.4-1.7.27-.53.62-1,1.08-1.39s.98-.7,1.59-.91C4.3.09,4.95-.01,5.65,0,6.32,0,6.97.09,7.61.25c.64.17,1.21.42,1.71.78.5.35.9.8,1.2,1.34.3.54.45,1.19.45,1.94,0,.92-.19,1.7-.56,2.35-.38.65-.99,1.18-1.84,1.6.97.35,1.73.91,2.29,1.67.56.77.84,1.67.84,2.7,0,.87-.15,1.63-.44,2.3-.29.67-.71,1.23-1.25,1.67-.54.45-1.2.79-1.96,1.03-.77.23-1.62.35-2.55.35-.63,0-1.28-.11-1.94-.32-.66-.22-1.25-.54-1.77-.98-.53-.43-.95-.97-1.29-1.62-.33-.65-.5-1.41-.5-2.27,0-1.05.26-1.99.79-2.81.52-.83,1.29-1.43,2.29-1.81ZM5.88,9c-.62,0-1.18.08-1.7.22-.52.15-.97.38-1.35.69-.38.31-.68.7-.9,1.18-.22.47-.33,1.04-.33,1.69,0,.55.1,1.06.31,1.52.21.47.5.87.88,1.21s.83.61,1.38.81c.54.2,1.15.3,1.81.3.58,0,1.12-.1,1.62-.29s.94-.46,1.31-.81c.38-.35.67-.77.88-1.25.21-.48.31-1.02.31-1.6,0-.62-.11-1.15-.33-1.61-.22-.46-.52-.84-.9-1.15-.38-.31-.83-.54-1.35-.69-.52-.15-1.07-.22-1.65-.22ZM5.8,1.35c-.5,0-.97.07-1.4.2-.43.13-.81.33-1.14.6s-.58.6-.76,1c-.18.4-.27.86-.27,1.38,0,.55.1,1.02.31,1.41.21.39.49.71.84.96.35.25.75.44,1.2.56s.92.19,1.4.19.93-.06,1.35-.19.78-.33,1.08-.61c.3-.28.54-.64.71-1.07.17-.43.26-.97.26-1.6,0-.9-.29-1.6-.88-2.09-.58-.49-1.48-.74-2.7-.74Z"/>
  </g>
</svg>