<?xml version="1.0" encoding="UTF-8"?>
<svg id="Ebene_2" data-name="Ebene 2" xmlns="http://www.w3.org/2000/svg" viewBox="0 0 11.9 18.4">
  <defs>
    <style>
      .cls-1 {
        fill: #1d1d1b;
      }
    </style>
  </defs>
  <g id="Ebene_1-2" data-name="Ebene 1">
    <path class="cls-1" d="M10.4.35h1.5v18.05h-1.5v-7.17c-.48.8-1.15,1.4-1.99,1.81s-1.72.61-2.64.61c-.98,0-1.84-.19-2.56-.56-.72-.38-1.33-.88-1.8-1.5s-.83-1.35-1.06-2.19c-.23-.83-.35-1.7-.35-2.6,0-.95.11-1.84.32-2.67s.56-1.55,1.04-2.16c.47-.61,1.08-1.09,1.81-1.44.73-.35,1.62-.52,2.67-.52.42,0,.84.06,1.28.17.43.12.85.28,1.26.5s.78.49,1.12.83.62.71.84,1.12h.05V.35ZM10.4,6.77c0-.73-.1-1.43-.3-2.09s-.49-1.23-.86-1.73c-.38-.49-.83-.88-1.38-1.17-.54-.29-1.15-.44-1.84-.44-.78,0-1.46.15-2.02.46-.57.31-1.03.73-1.4,1.26-.37.53-.63,1.15-.8,1.86-.17.71-.23,1.47-.2,2.29,0,.82.11,1.54.34,2.16.22.62.54,1.15.94,1.59.4.43.87.76,1.4.99.53.23,1.12.34,1.75.34.7,0,1.33-.14,1.88-.42s1.01-.67,1.38-1.16c.37-.49.65-1.07.84-1.75.19-.67.29-1.4.29-2.19Z"/>
  </g>
</svg>