<?xml version="1.0" encoding="UTF-8"?>
<svg id="Ebene_2" data-name="Ebene 2" xmlns="http://www.w3.org/2000/svg" viewBox="0 0 12.2 13.65">
  <defs>
    <style>
      .cls-1 {
        fill: #1d1d1b;
      }
    </style>
  </defs>
  <g id="Ebene_1-2" data-name="Ebene 1">
    <path class="cls-1" d="M6.6,5.75c.28-.03.62-.08,1.01-.15.39-.07.71-.16.96-.27.25-.12.4-.31.46-.59s.09-.53.09-.76c0-.77-.25-1.4-.74-1.89s-1.32-.74-2.49-.74c-.52,0-.99.05-1.42.14s-.81.25-1.14.47c-.33.23-.59.53-.8.9-.21.38-.35.85-.41,1.41H.6c.05-.77.22-1.42.53-1.96.3-.54.69-.98,1.16-1.33S3.31.4,3.94.24s1.29-.24,1.99-.24c.65,0,1.26.07,1.84.21.58.14,1.08.37,1.5.68.43.31.76.72,1,1.24.24.52.36,1.15.36,1.9v7.05c0,.58.1.95.31,1.11.21.16.63.12,1.26-.11v1.17c-.12.03-.29.08-.51.15-.23.07-.45.1-.66.1-.23,0-.46-.03-.67-.08-.25-.03-.45-.11-.6-.24-.15-.12-.27-.28-.36-.45s-.15-.37-.19-.58c-.03-.21-.05-.43-.05-.66-.63.7-1.36,1.23-2.17,1.6s-1.7.55-2.65.55c-.57,0-1.11-.07-1.64-.22-.53-.15-.99-.38-1.39-.7-.4-.32-.72-.7-.95-1.16s-.35-1-.35-1.64c0-2.2,1.51-3.5,4.52-3.9l2.08-.27ZM9.12,6.5c-.63.27-1.28.44-1.93.52-.65.08-1.3.15-1.95.2-1.15.08-2.05.34-2.69.78-.64.43-.96,1.09-.96,1.97,0,.4.08.75.24,1.04.16.29.37.53.62.72s.56.33.9.42c.34.09.69.14,1.04.14.6,0,1.18-.08,1.75-.22.57-.15,1.07-.38,1.51-.69s.8-.7,1.06-1.18c.27-.47.4-1.04.4-1.69v-2.02Z"/>
  </g>
</svg>