<?xml version="1.0" encoding="UTF-8"?>
<svg id="Ebene_2" data-name="Ebene 2" xmlns="http://www.w3.org/2000/svg" viewBox="0 0 11.93 17.97">
  <defs>
    <style>
      .cls-1 {
        fill: #1d1d1b;
      }
    </style>
  </defs>
  <g id="Ebene_1-2" data-name="Ebene 1">
    <path class="cls-1" d="M5.98,0c.87,0,1.62.13,2.25.39.63.26,1.17.61,1.61,1.06s.8.97,1.08,1.58c.27.6.49,1.24.64,1.91.15.67.25,1.37.3,2.09s.08,1.42.08,2.1c0,1.17-.08,2.28-.25,3.35-.17,1.07-.47,2.01-.91,2.83-.44.82-1.05,1.47-1.81,1.95s-1.76.72-2.97.72-2.21-.24-2.99-.72c-.78-.48-1.38-1.14-1.83-1.96-.44-.82-.75-1.78-.91-2.88-.17-1.09-.25-2.25-.25-3.46,0-1.12.08-2.21.23-3.28.15-1.07.44-2.02.86-2.86s1.03-1.52,1.81-2.04,1.81-.78,3.08-.78ZM10.33,8.95c0-.95-.05-1.88-.16-2.79-.11-.91-.32-1.72-.64-2.44-.32-.72-.76-1.29-1.34-1.72-.57-.43-1.33-.65-2.26-.65-.88,0-1.6.22-2.16.66s-1,1.03-1.31,1.76-.54,1.57-.66,2.5-.19,1.88-.19,2.85c0,1.13.07,2.16.21,3.09.14.92.38,1.71.71,2.36.33.65.78,1.15,1.34,1.51.56.36,1.26.54,2.11.54.95,0,1.71-.23,2.29-.7.58-.47,1.01-1.07,1.31-1.8s.5-1.56.6-2.47c.1-.92.15-1.82.15-2.7Z"/>
  </g>
</svg>