<?xml version="1.0" encoding="UTF-8"?>
<svg id="Ebene_2" data-name="Ebene 2" xmlns="http://www.w3.org/2000/svg" viewBox="0 0 5.85 23.21">
  <defs>
    <style>
      .cls-1 {
        fill: #1d1d1b;
      }
    </style>
  </defs>
  <g id="Ebene_1-2" data-name="Ebene 1">
    <path class="cls-1" d="M3.8,8.7c0,.77.13,1.4.39,1.9.26.5.81.83,1.66,1v.05c-.47.13-.83.29-1.1.46-.27.18-.47.38-.61.61s-.23.51-.27.82c-.04.32-.06.68-.06,1.1v4.55c0,.73-.05,1.36-.16,1.88s-.3.94-.57,1.26c-.28.33-.65.56-1.11.7-.47.14-1.06.2-1.77.16,1.35-.47,2.02-1.47,2.02-3.03v-4.8c0-.48.03-.92.08-1.33.05-.4.15-.76.3-1.07.15-.32.36-.59.62-.81.27-.23.62-.4,1.05-.51v-.05c-.42-.1-.76-.24-1.03-.43-.27-.18-.47-.42-.62-.7s-.25-.61-.31-.99-.09-.79-.09-1.26V3.08c0-.85-.17-1.51-.5-1.97C1.37.64.8.29,0,.05V0C.73-.01,1.35.04,1.84.18c.49.13.88.35,1.17.65.29.3.5.68.61,1.14.12.46.17,1,.17,1.64v5.1Z"/>
  </g>
</svg>