<?xml version="1.0" encoding="UTF-8"?>
<svg id="Ebene_2" data-name="Ebene 2" xmlns="http://www.w3.org/2000/svg" viewBox="0 0 10.17 18.7">
  <defs>
    <style>
      .cls-1 {
        fill: #1d1d1b;
      }
    </style>
  </defs>
  <g id="Ebene_1-2" data-name="Ebene 1">
    <path class="cls-1" d="M3.98,7.72c.55-.02,1.07-.08,1.55-.19s.9-.28,1.25-.53c.35-.24.62-.55.83-.94.2-.38.3-.87.3-1.45,0-.93-.25-1.71-.74-2.34-.49-.62-1.3-.94-2.41-.94-.73,0-1.31.09-1.74.26s-.75.42-.97.75c-.23.33-.37.71-.44,1.16-.07.45-.1.95-.1,1.5v13.33H0V4.75c0-1.55.38-2.73,1.15-3.54.77-.81,1.94-1.21,3.52-1.21.72,0,1.37.11,1.96.32.59.22,1.1.53,1.53.93.42.4.75.89.99,1.46s.35,1.22.35,1.94c0,.8-.19,1.49-.58,2.06-.38.58-.89,1.1-1.52,1.56.47.17.88.4,1.22.71.35.31.64.66.86,1.06.23.4.4.83.51,1.3s.17.93.17,1.4c0,1.95-.46,3.43-1.39,4.44-.93,1.01-2.22,1.51-3.89,1.51-.37,0-.67-.04-.92-.12v-1.32c.62.12,1.2.12,1.75,0,.55-.12,1.04-.34,1.46-.66s.76-.75,1.01-1.29.38-1.17.38-1.92c0-1.58-.37-2.71-1.1-3.39-.73-.67-1.9-1.01-3.5-1.01v-1.25Z"/>
  </g>
</svg>