<?xml version="1.0" encoding="UTF-8"?>
<svg id="Ebene_2" data-name="Ebene 2" xmlns="http://www.w3.org/2000/svg" viewBox="0 0 5.6 5.62">
  <defs>
    <style>
      .cls-1 {
        fill: #1d1d1b;
      }
    </style>
  </defs>
  <g id="Ebene_1-2" data-name="Ebene 1">
    <path class="cls-1" d="M0,2.67c0-.73.17-1.32.51-1.76.34-.44.78-.75,1.31-.91v.92c-.2.13-.39.32-.57.55-.18.23-.28.6-.28,1.1v.85h.85v2.2H0v-2.95ZM3.77,2.67c0-.73.17-1.32.51-1.76.34-.44.78-.75,1.31-.91v.92c-.2.13-.39.32-.58.55-.18.23-.27.6-.27,1.1v.85h.85v2.2h-1.83v-2.95Z"/>
  </g>
</svg>