<?xml version="1.0" encoding="UTF-8"?>
<svg id="Ebene_2" data-name="Ebene 2" xmlns="http://www.w3.org/2000/svg" viewBox="0 0 11.9 18.6">
  <defs>
    <style>
      .cls-1 {
        fill: #1d1d1b;
      }
    </style>
  </defs>
  <g id="Ebene_1-2" data-name="Ebene 1">
    <path class="cls-1" d="M10.4.35h1.5v11.7c0,.87-.09,1.7-.26,2.49-.17.79-.49,1.49-.94,2.09-.45.6-1.07,1.08-1.85,1.44s-1.79.54-3.03.54c-.95,0-1.77-.12-2.45-.36-.68-.24-1.24-.55-1.68-.91-.43-.37-.76-.77-.99-1.21-.22-.44-.35-.85-.36-1.24h1.6c.12.48.3.88.55,1.19.25.31.54.55.89.72s.72.3,1.14.36.85.1,1.3.1c1.02,0,1.83-.17,2.45-.53.62-.35,1.08-.81,1.4-1.38.32-.57.52-1.21.61-1.92s.13-1.45.11-2.2c-.48.8-1.15,1.4-1.99,1.81s-1.72.61-2.64.61c-.98,0-1.84-.19-2.56-.56-.72-.38-1.33-.88-1.8-1.5s-.83-1.35-1.06-2.19c-.23-.83-.35-1.7-.35-2.6,0-.95.11-1.84.32-2.67s.56-1.55,1.04-2.16c.47-.61,1.08-1.09,1.81-1.44.73-.35,1.62-.52,2.67-.52.42,0,.84.06,1.28.17.43.12.85.28,1.26.5s.78.49,1.12.83.62.71.84,1.12h.05V.35ZM10.4,6.88c0-.78-.1-1.51-.29-2.19-.19-.67-.47-1.26-.84-1.75s-.83-.88-1.38-1.16c-.55-.28-1.17-.42-1.88-.42-.63,0-1.22.11-1.75.34-.53.22-1,.55-1.4.99-.4.43-.71.96-.94,1.59-.23.62-.34,1.35-.34,2.16-.03.82.03,1.58.2,2.29.17.71.43,1.33.8,1.86.37.53.83.95,1.4,1.26.57.31,1.24.46,2.02.46.68,0,1.3-.15,1.84-.44.54-.29,1-.68,1.38-1.17s.66-1.07.86-1.73c.2-.66.3-1.35.3-2.09Z"/>
  </g>
</svg>