<?xml version="1.0" encoding="UTF-8"?>
<svg id="Ebene_2" data-name="Ebene 2" xmlns="http://www.w3.org/2000/svg" viewBox="0 0 11.9 18.35">
  <defs>
    <style>
      .cls-1 {
        fill: #1d1d1b;
      }
    </style>
  </defs>
  <g id="Ebene_1-2" data-name="Ebene 1">
    <path class="cls-1" d="M1.5,18H0V0h1.5v7.12c.48-.8,1.15-1.4,1.99-1.81.84-.41,1.72-.61,2.64-.61.98,0,1.84.19,2.56.56.73.38,1.33.88,1.8,1.5.47.62.83,1.35,1.06,2.19.23.83.35,1.7.35,2.6,0,.95-.11,1.84-.33,2.67-.22.83-.56,1.55-1.04,2.16-.48.61-1.08,1.09-1.81,1.44-.73.35-1.62.52-2.67.52-.42,0-.84-.06-1.28-.17s-.85-.28-1.26-.5c-.41-.22-.78-.49-1.12-.81s-.62-.7-.84-1.14h-.05v2.28ZM1.5,11.47c0,.78.1,1.51.29,2.19.19.68.47,1.26.84,1.75.37.49.83.88,1.38,1.16.55.28,1.18.42,1.88.42.63,0,1.22-.11,1.75-.34.53-.22,1-.55,1.4-.99.4-.43.71-.96.94-1.59s.34-1.35.34-2.16c.03-.82-.03-1.58-.2-2.29-.17-.71-.43-1.33-.8-1.86-.37-.53-.84-.95-1.41-1.26s-1.25-.46-2.01-.46c-.68,0-1.3.15-1.84.44-.54.29-1,.68-1.38,1.17-.38.49-.66,1.07-.86,1.73-.2.66-.3,1.35-.3,2.09Z"/>
  </g>
</svg>