<?xml version="1.0" encoding="UTF-8"?>
<svg id="Ebene_2" data-name="Ebene 2" xmlns="http://www.w3.org/2000/svg" viewBox="0 0 14.7 18">
  <defs>
    <style>
      .cls-1 {
        fill: #1d1d1b;
      }
    </style>
  </defs>
  <g id="Ebene_1-2" data-name="Ebene 1">
    <path class="cls-1" d="M0,18V0h6.15c.5,0,.99.01,1.48.04.48.03.96.08,1.42.18.47.09.92.23,1.36.41s.87.42,1.29.72c.6.43,1.09.96,1.48,1.59.38.62.69,1.28.91,1.97.23.69.38,1.39.48,2.1.09.71.14,1.36.14,1.96s-.04,1.21-.11,1.83c-.08.62-.2,1.22-.36,1.81-.17.59-.39,1.16-.66,1.7-.28.54-.62,1.04-1.04,1.49-.42.47-.87.84-1.36,1.12-.49.28-1.01.5-1.55.66-.54.16-1.1.27-1.69.32-.58.06-1.17.09-1.78.09H0ZM1.7,16.55h4.08c.77,0,1.49-.05,2.16-.14.67-.09,1.36-.32,2.06-.69.6-.3,1.09-.71,1.47-1.22.38-.52.69-1.08.91-1.69.23-.61.38-1.25.48-1.91.09-.67.14-1.31.14-1.93,0-.65-.04-1.31-.12-1.99-.08-.67-.24-1.32-.48-1.92s-.55-1.17-.95-1.67c-.4-.51-.92-.93-1.55-1.26-.53-.28-1.17-.47-1.9-.55-.73-.08-1.48-.12-2.23-.12H1.7v15.1Z"/>
  </g>
</svg>