<?xml version="1.0" encoding="UTF-8"?>
<svg id="Ebene_2" data-name="Ebene 2" xmlns="http://www.w3.org/2000/svg" viewBox="0 0 11.9 18.35">
  <defs>
    <style>
      .cls-1 {
        fill: #1d1d1b;
      }
    </style>
  </defs>
  <g id="Ebene_1-2" data-name="Ebene 1">
    <path class="cls-1" d="M10.4,0h1.5v18h-1.5v-2.28h-.05c-.22.43-.5.81-.84,1.14s-.72.6-1.12.81c-.41.22-.83.38-1.26.5-.43.12-.86.17-1.28.17-1.05,0-1.94-.17-2.67-.52-.73-.35-1.34-.83-1.81-1.44-.48-.61-.82-1.33-1.04-2.16-.22-.83-.32-1.72-.32-2.67,0-.9.12-1.77.35-2.6s.59-1.56,1.06-2.19,1.08-1.12,1.8-1.5c.73-.38,1.58-.56,2.56-.56.92,0,1.8.2,2.64.61s1.5,1.01,1.99,1.81V0ZM10.4,11.47c0-.73-.1-1.43-.3-2.09s-.49-1.23-.86-1.73c-.38-.49-.83-.88-1.38-1.17-.54-.29-1.15-.44-1.84-.44-.78,0-1.46.15-2.02.46-.57.31-1.03.73-1.4,1.26-.37.53-.63,1.15-.8,1.86-.17.71-.23,1.47-.2,2.29,0,.82.11,1.54.34,2.16.22.62.54,1.15.94,1.59.4.43.87.76,1.4.99.53.23,1.12.34,1.75.34.7,0,1.33-.14,1.88-.42s1.01-.67,1.38-1.16c.37-.49.65-1.07.84-1.75.19-.67.29-1.4.29-2.19Z"/>
  </g>
</svg>